<svg width="50" height="50" viewBox="0 0 50 50" fill="none" xmlns="http://www.w3.org/2000/svg">
<path d="M2.24299 9.92657C2.9773 12.0694 3.95193 14.9132 5.24032 18.6582C5.6542 19.8665 6.34179 21.8758 6.76902 23.1175C7.75701 25.9813 8.87183 29.2323 9.83978 32.0627C10.2603 33.2777 10.9479 35.287 11.3685 36.5154C13.1976 41.8425 13.6782 43.2376 13.7517 43.4379L13.8318 43.6582H18.972C23.8318 43.6582 24.1055 43.6515 24.0721 43.538C24.0454 43.4579 18.6115 20.721 15.5874 8.02403L15.5541 7.87717H1.54205L2.24299 9.92657ZM19.5594 9.55941L19.5661 11.2483L21.0881 18.2243L22.6035 25.2003H27.4633L28.9853 18.2243L30.5007 11.2483L30.5073 9.55941V7.87717H19.5594V9.55941ZM27.49 10.9613C27.47 11.008 26.9226 13.5314 26.2617 16.5688C25.6075 19.6128 25.0534 22.0961 25.0334 22.0961C25.0133 22.0961 24.4593 19.6128 23.8051 16.5688C23.1442 13.5314 22.5968 11.008 22.5768 10.9613C22.5567 10.9012 23.0774 10.8812 25.0334 10.8812C26.9893 10.8812 27.51 10.9012 27.49 10.9613ZM34.8798 8.02403C31.8558 20.721 26.4219 43.4579 26.3952 43.538C26.3618 43.6515 26.6355 43.6582 31.4953 43.6582H36.6355L36.7156 43.4379C36.8024 43.2043 37.2897 41.7824 40.6142 32.0961C41.0414 30.8545 41.729 28.8384 42.1495 27.6235C42.5701 26.4019 43.2577 24.3925 43.6782 23.1642C44.1055 21.9359 44.7931 19.9199 45.2136 18.6916C46.6222 14.5995 47.51 12.0027 48.2243 9.92657L48.9252 7.87717H34.9132L34.8798 8.02403Z" fill="#E5E5E5"/>
</svg>
