<svg width="50" height="60" viewBox="0 0 50 60" fill="none" xmlns="http://www.w3.org/2000/svg">
<g clip-path="url(#clip0_437_1277)">
<path d="M46.2387 0C46.2068 0 45.8927 0.213228 45.5409 0.473911C45.3484 0.616463 44.425 1.25771 43.175 2.11938L43.1721 2.12131C43.1596 2.12854 43.1477 2.13673 43.1365 2.14582C42.2565 2.75196 41.3758 3.3569 40.4942 3.96066C38.4735 5.33226 36.4153 6.74967 35.1335 7.66008C35.0662 7.70081 35.0066 7.74255 34.9637 7.78097C34.843 7.86713 34.7275 7.94979 34.6244 8.02433C34.4715 8.09326 34.2634 8.25037 34.0749 8.4307C34.0542 8.44674 34.0356 8.46139 34.0177 8.47558C33.9136 8.5539 33.8414 8.61057 33.8128 8.63776L33.7276 8.71885L33.4135 8.98128V37.2273H33.7671C33.7788 37.2273 33.7906 37.2261 33.8024 37.2255C33.8115 37.225 33.8203 37.2251 33.8294 37.2245L33.8345 37.2239L33.8528 37.2219C34.0145 37.206 34.1757 37.1532 34.2387 37.0901C34.2764 37.0524 34.3371 37.0026 34.4041 36.9525C34.4365 36.9283 34.4704 36.9042 34.5039 36.8812C34.5408 36.8674 34.5764 36.8587 34.607 36.8587C34.7061 36.8587 34.879 36.7507 34.9912 36.6185C35.0307 36.572 35.3955 36.3143 35.9702 35.922C36.6545 35.4707 37.515 34.9016 38.4587 34.2758C38.8119 34.0415 39.2173 33.7745 39.5998 33.5215C39.6067 33.5181 39.6136 33.5146 39.6179 33.5095C41.385 32.3404 43.3072 31.0734 44.3181 30.4139L46.0713 29.2704L46.0992 29.2529L46.5599 28.9755V28.9514L46.5608 28.9509L46.5599 28.5351V14.656C46.5918 7.22561 46.6053 3.57604 46.5599 1.7695V0.274598L46.4534 0.246677C46.401 0.0152964 46.3311 0 46.2387 0ZM3.49007 0.245664C3.47063 0.245664 3.45321 0.27082 3.43792 0.335967C3.43598 0.344261 3.43432 0.359096 3.43248 0.368587H3.31223V12.7031C3.31223 16.6461 3.31794 19.3764 3.33223 21.2859C3.33342 21.4549 3.33517 21.5955 3.33656 21.7497C3.34024 22.1576 3.34421 22.5382 3.349 22.86C3.35084 22.9782 3.35287 23.0958 3.35489 23.2016C3.35987 23.4799 3.36475 23.7623 3.37074 23.9712L3.3736 25.0968V25.1008L6.98143 27.5508C7.00538 27.5691 7.0275 27.5837 7.04943 27.5971L8.46665 28.5596L9.14826 29.0227C11.3353 30.5085 13.2374 31.7873 14.2936 32.4857C14.3373 32.5212 14.3796 32.5564 14.417 32.5892C14.5243 32.6834 14.6613 32.7632 14.7577 32.792C14.8429 32.8476 14.9372 32.9096 14.9956 32.9468C15.0147 32.9725 15.0587 32.9985 15.1187 33.0215C15.1307 33.0285 15.1634 33.0494 15.1685 33.0516C15.3036 33.1097 15.6492 33.1609 15.9364 33.1651L16.4585 33.1729V8.72502L16.2764 8.60421L16.2742 8.56699L15.995 8.41762L15.9945 8.41743L15.5122 8.09759L15.0587 7.79682C15.0458 7.77342 15.022 7.75867 14.9881 7.75001H14.9879L14.4244 7.37645L14.4242 7.37627C14.3986 7.3525 14.3702 7.33207 14.3394 7.31545C14.3237 7.30542 14.3075 7.29619 14.2909 7.2878L14.2905 7.28771L14.214 7.23694L14.2122 7.23565C14.0993 7.15869 13.9854 7.08316 13.8706 7.00906L10.0638 4.48534C8.41376 3.39137 6.91702 2.41148 5.75053 1.65735C5.74065 1.64192 5.72759 1.62876 5.71222 1.61877C5.69686 1.60878 5.67954 1.60217 5.66142 1.59939C5.3285 1.38432 5.01151 1.18013 4.74576 1.01076L4.74521 1.01039C4.60634 0.910503 4.46416 0.800941 4.35284 0.706398C4.17316 0.553618 3.92362 0.425074 3.74191 0.3837C3.60461 0.301873 3.50574 0.245664 3.49081 0.245664L3.49044 0.245848L3.49007 0.245664ZM20.4505 11.5491C20.43 11.5491 20.4118 11.5833 20.3956 11.6719H20.2673V45.8278H20.3951L20.3956 45.8316V45.8317C20.4076 45.8964 20.4207 45.9311 20.4349 45.9442C20.4396 45.9485 20.4445 45.9506 20.4496 45.9506L20.4507 45.9501L20.4516 45.9505C20.4811 45.9505 20.6962 45.829 21.0253 45.6314C21.178 45.5514 21.3268 45.4642 21.4712 45.3701C21.8565 45.1184 22.3238 44.835 22.5096 44.7403C22.6526 44.6676 22.7748 44.5766 22.8239 44.5115C23.6024 44.0188 24.3782 43.5216 25.1511 43.0201L25.3834 42.8694C25.4078 42.8654 25.4189 42.8588 25.4161 42.8483L27.2627 41.6497C27.3093 41.6464 27.3909 41.5919 27.4669 41.5172L29.6663 40.0897V40.0858L29.6977 25.9422V25.915L29.698 25.7407C29.7224 14.6915 29.7248 12.3757 29.6012 11.9143L29.6001 11.9097L29.5999 11.9094L29.5997 11.9087C29.5965 11.897 29.5927 11.8855 29.5884 11.8741C29.587 11.8705 29.5856 11.8659 29.5842 11.8626C29.5812 11.8553 29.578 11.8497 29.5747 11.8439C29.5722 11.8395 29.5699 11.8344 29.5674 11.8307C29.5652 11.8276 29.5628 11.8254 29.5606 11.8228C29.5571 11.8184 29.5531 11.8143 29.5488 11.8106L29.5446 11.8081C29.5402 11.8049 29.5353 11.8023 29.5302 11.8003H29.53L29.5277 11.7996H29.5276C29.516 11.7962 29.5041 11.7945 29.4921 11.7947L29.4902 11.7951L29.4872 11.7947C29.4446 11.7947 29.2986 11.8632 29.092 11.9735C29.0379 11.9919 28.9823 12.0175 28.9289 12.0487C28.7554 12.1338 28.5527 12.2529 28.3646 12.3847C28.3498 12.395 28.3352 12.4045 28.3204 12.4148C28.2582 12.4519 28.1917 12.4925 28.1265 12.5321L28.1237 12.5337C27.8944 12.6721 27.6664 12.8126 27.4397 12.955L27.438 12.9559C27.4365 12.957 27.4355 12.9574 27.4339 12.9585C27.4066 12.9725 27.3819 12.9881 27.3599 13.0052C27.2868 13.0513 27.215 13.0962 27.1409 13.1435C26.7441 13.3971 26.3429 13.6435 25.9372 13.8827C25.433 14.1785 25.0594 14.3755 24.9331 14.4087C24.8931 14.3986 24.8513 14.3806 24.8048 14.3571C24.6336 14.2478 23.7622 13.6612 22.7036 12.9416C22.1959 12.5964 21.7173 12.2835 21.3292 12.0394C21.266 11.9934 21.2035 11.9465 21.1415 11.8989C21.0604 11.8362 20.9537 11.7791 20.8472 11.7379C20.8313 11.7298 20.8149 11.7228 20.7982 11.7167C20.619 11.6132 20.4941 11.5491 20.4615 11.5491C20.461 11.5491 20.4606 11.5497 20.46 11.5497C20.4596 11.5497 20.4586 11.5491 20.4581 11.5491C20.457 11.5491 20.456 11.5501 20.4549 11.5501C20.4538 11.5502 20.4515 11.5491 20.4505 11.5491ZM3.42327 27.2755C3.40994 27.2755 3.39728 27.2759 3.3853 27.2768C3.37246 27.2776 3.36048 27.2792 3.34937 27.2816L3.34734 27.2817C3.33858 27.2838 3.33075 27.2871 3.32292 27.2904C3.32117 27.2911 3.31923 27.2913 3.31748 27.2922L3.31638 27.2926C3.31085 27.2954 3.30606 27.2995 3.3009 27.3032C3.29739 27.3057 3.29352 27.3077 3.2903 27.3108C3.28827 27.3126 3.28661 27.3154 3.28477 27.3174C3.27869 27.3239 3.27279 27.3303 3.26745 27.3389C3.26057 27.3499 3.25433 27.363 3.24874 27.3782C3.22617 27.439 3.21326 27.5358 3.20718 27.6885V27.689C3.19806 27.918 3.20433 28.2732 3.21649 28.8236V28.8274L3.25086 30.3793L8.66523 33.9159L8.66541 33.916C8.74291 33.9846 8.81239 34.0331 8.84307 34.0331C8.84353 34.0331 8.84537 34.0338 8.84593 34.034L9.70114 34.5926C10.9751 35.4249 12.2531 36.251 13.5352 37.0708C13.5528 37.089 13.573 37.1067 13.5958 37.1228C13.6539 37.1717 13.7078 37.2097 13.7431 37.2224C13.7523 37.2256 13.7602 37.2273 13.7668 37.2273C13.7714 37.2273 13.7818 37.2315 13.7913 37.2349H13.7914C14.2561 37.5313 14.7166 37.825 15.0691 38.0461L15.073 38.0485C15.3762 38.2473 15.6603 38.426 15.7942 38.4985C15.803 38.5033 15.8108 38.5063 15.8194 38.5109L15.8203 38.5115C16.1313 38.7008 16.3273 38.8139 16.3532 38.8151C16.4417 38.8193 16.5085 38.7982 16.559 38.7315L16.5595 38.7309C16.5903 38.7021 16.6153 38.6678 16.6297 38.6303C16.6991 38.4495 16.7193 37.8376 16.7043 37.2317V37.2309C16.7043 36.7449 16.694 36.4317 16.6619 36.2154C16.6459 36.1072 16.6243 36.0231 16.596 35.9537C16.5936 35.9479 16.5904 35.9435 16.5879 35.9378L16.5877 35.9375C16.5759 35.8951 16.5638 35.8597 16.5507 35.8423C16.5467 35.837 16.5312 35.8244 16.5213 35.8155C16.4446 35.686 16.3353 35.5717 16.2447 35.5347C16.1968 35.5151 15.9832 35.3838 15.7052 35.2078C14.2986 34.2373 11.2551 32.2356 8.53032 30.4729C8.46352 30.4171 8.39828 30.3739 8.35054 30.3567C8.10488 30.1979 7.84558 30.0287 7.60793 29.8757L7.59964 29.8703C6.98482 29.4743 6.36872 29.0803 5.75136 28.6883C5.73965 28.676 5.72518 28.6668 5.70915 28.6613C5.5714 28.5739 5.44359 28.4932 5.31523 28.4122C5.12782 28.2917 4.93921 28.1731 4.74945 28.0564C3.97781 27.5746 3.47736 27.2755 3.42649 27.2755H3.42327ZM3.50528 32.5586C3.49299 32.5587 3.48144 32.5599 3.47063 32.5623C3.46621 32.563 3.46151 32.5633 3.45736 32.5643C3.45543 32.5648 3.45377 32.5658 3.45183 32.5664C3.36706 32.5901 3.3231 32.6714 3.31914 32.776C3.23105 33.0351 3.18931 33.531 3.18931 34.2939C3.18931 34.6478 3.17622 34.9457 3.15752 35.1144C3.13104 35.1746 3.10103 35.2162 3.06749 35.2392C2.97995 35.2092 2.73705 35.1139 2.42062 34.9873C2.31861 34.9461 2.19698 34.8956 2.08013 34.8476C2.07571 34.8336 2.0641 34.8225 2.04613 34.8143L2.1451 34.7573L1.95583 34.7964C1.82645 34.743 1.73127 34.7054 1.59222 34.6472C0.783536 34.3093 0.0931715 34.033 0.05834 34.033C0.0567735 34.033 0.0552991 34.0356 0.0538248 34.0379C0.0523504 34.0375 0.0409242 34.033 0.0403713 34.033C0.0341053 34.033 0.0283922 34.0701 0.023232 34.1371C0.00839636 34.3309 -0.000726179 34.7775 0.000563878 35.2966C0.000563878 35.3166 0.000103143 35.3334 0.00019529 35.3536L0.00563196 36.6745L8.07853 41.7969C10.6021 43.3981 12.7722 44.7521 14.2737 45.6678C14.3673 45.7505 14.4664 45.8119 14.5313 45.8244C14.6492 45.8959 14.785 45.9794 14.8927 46.0443C14.9026 46.0543 14.9134 46.0631 14.9227 46.0734C15.0451 46.2086 15.2056 46.3205 15.2796 46.322C15.3364 46.3232 15.4666 46.3881 15.6003 46.4779C15.6051 46.5419 15.6353 46.5661 15.6735 46.5304C15.6894 46.5421 15.7057 46.5528 15.7214 46.5649C15.8803 46.6893 16.0353 46.7645 16.1716 46.7915C16.3001 46.8606 16.3788 46.8975 16.3971 46.8957C16.4708 46.8887 16.5226 46.8735 16.56 46.7808V46.7804L16.5606 46.7787H16.5607C16.5962 46.764 16.6064 46.7297 16.5883 46.6777C16.5929 46.656 16.5972 46.6328 16.6012 46.6061L16.6014 46.606C16.6123 46.5828 16.6212 46.5587 16.6281 46.5341C16.6318 46.5204 16.6351 46.4887 16.6381 46.4443C16.6463 46.4193 16.6546 46.3942 16.6637 46.3706C16.7115 46.246 16.7094 46.2017 16.6468 46.2232C16.6496 46.1193 16.6516 46.0154 16.6529 45.9114C16.6965 45.6467 16.7023 45.1516 16.6784 44.1992V44.1982C16.6956 42.8181 16.6808 41.5834 16.6443 41.4342C16.6403 41.4179 16.6205 41.3919 16.5933 41.3614C16.5925 41.3491 16.5919 41.3265 16.5911 41.3149C16.5911 41.3135 16.5893 41.3109 16.5888 41.3094L16.5851 41.192C16.5817 41.165 16.1722 40.8864 15.674 40.5601C15.624 40.5149 15.5671 40.4778 15.5056 40.4503C15.4125 40.3897 15.3222 40.3309 15.2273 40.2698C14.862 40.02 14.4981 39.7814 14.2357 39.6247L14.1903 39.5938C14.1836 39.5861 14.1753 39.5776 14.17 39.5707L14.1698 39.5704C14.1599 39.5583 14.1514 39.5451 14.1446 39.531C14.1288 39.4954 14.0616 39.4651 13.979 39.4498C13.9002 39.3958 13.8109 39.3353 13.7281 39.2788C13.6762 39.2179 13.5511 39.1332 13.4019 39.0564C13.1821 38.9072 12.9622 38.7583 12.7421 38.6097C12.6786 38.5449 12.5996 38.4909 12.5322 38.4682C12.3365 38.3362 12.1487 38.2093 11.9369 38.0671C11.9072 38.044 11.876 38.023 11.8435 38.0042C11.6507 37.8749 11.4304 37.7278 11.2242 37.5898L11.2241 37.5896C11.1619 37.5372 11.1032 37.4965 11.0618 37.481L11.0614 37.4808L10.8197 37.3193C10.7339 37.2619 10.6534 37.2078 10.5654 37.149C10.4863 37.0838 10.4161 37.0366 10.3605 37.0119L10.3601 37.0117H10.3599L10.359 37.0112C10.2779 36.9571 10.2122 36.9127 10.1293 36.8575C9.87309 36.6866 9.65138 36.5408 9.40203 36.3751L9.40166 36.3747C9.278 36.2864 9.15453 36.2029 9.04533 36.1384C8.79377 35.9715 8.54129 35.8039 8.29968 35.6441L8.29857 35.6433C8.22034 35.5742 8.14552 35.5231 8.09935 35.511H8.09917C7.99753 35.4438 7.88124 35.3661 7.78172 35.3005L7.75113 35.2802C7.71731 35.2578 7.67667 35.2306 7.64313 35.2085C7.6259 35.1944 7.6095 35.179 7.59181 35.166C7.53384 35.1223 7.47171 35.0845 7.40632 35.0529C7.28699 34.9744 7.19631 34.9156 7.08085 34.8397H7.08067C7.01617 34.7703 6.87979 34.6756 6.72166 34.5953C6.69476 34.5816 6.65689 34.5589 6.62427 34.5406C6.36183 34.3686 6.08134 34.184 5.84553 34.0304L5.84461 34.0297C5.8201 34.0116 5.79264 33.9928 5.76942 33.9753C5.60918 33.8543 5.44893 33.7461 5.31928 33.6681C5.31109 33.659 5.30406 33.6489 5.29836 33.638C5.28021 33.5951 5.19811 33.5597 5.10228 33.5471C5.01464 33.4905 4.91982 33.4291 4.83855 33.3769C4.67748 33.2084 4.17786 32.8758 3.82908 32.6906L3.8289 32.6904C3.81908 32.6825 3.80906 32.6749 3.79886 32.6675C3.78943 32.6604 3.77978 32.6536 3.76992 32.6471L3.769 32.6465C3.69363 32.5959 3.60378 32.5611 3.51394 32.559H3.51376L3.51265 32.5584L3.51053 32.5588L3.50528 32.5584H3.50509L3.50528 32.5586ZM46.2849 32.7391C46.253 32.7431 46.1899 32.7693 46.1051 32.8107C46.0904 32.8064 46.075 32.8042 46.0596 32.8043C46.0179 32.8043 45.9722 32.8196 45.9264 32.8441L45.9262 32.8439C45.9089 32.841 45.8741 32.8651 45.8222 32.9127C45.7492 32.9518 45.6846 32.999 45.6384 33.0499C45.621 33.0692 45.6015 33.0863 45.5827 33.1043C45.4981 33.1544 45.4293 33.1933 45.3289 33.2545C45.3092 33.2665 45.2806 33.2848 45.2603 33.2973C45.1901 33.3034 45.0683 33.3815 44.9605 33.4839L44.9603 33.4841C44.7664 33.6048 44.5731 33.7266 44.3804 33.8492C44.3739 33.8533 44.3673 33.8575 44.3606 33.8619C43.3026 34.5359 41.8083 35.5157 39.7795 36.8661C37.3504 38.483 35.2204 39.9214 34.1193 40.6839C34.0426 40.713 33.9464 40.779 33.8645 40.8603C33.723 40.9585 33.5827 41.0585 33.4437 41.1602C33.4309 41.1616 33.4192 41.1701 33.4083 41.1868L33.4081 41.187C33.3625 41.2214 33.3284 41.2482 33.3213 41.2571C33.1519 41.4718 33.0919 46.6936 33.2569 46.8587C33.3059 46.9076 33.4431 46.9223 33.5618 46.8912C33.5871 46.8846 33.8069 46.7542 34.1331 46.5558C34.1625 46.5632 34.1887 46.5452 34.2198 46.5036V46.5034C34.4808 46.3441 34.915 46.0737 35.3108 45.8281L35.3157 45.8253C35.3401 45.8116 35.3627 45.798 35.3862 45.7842C35.4595 45.7588 35.4903 45.7427 35.476 45.732C35.511 45.71 35.538 45.6897 35.5683 45.6686L35.5696 45.6677C35.7809 45.5363 35.919 45.4517 36.1584 45.3023L36.1588 45.3021H36.159C36.1898 45.2856 36.2193 45.267 36.2475 45.2464C36.4106 45.1445 36.6291 45.0068 36.8038 44.8975L36.8661 44.8584L36.9241 44.8221C36.9704 44.8169 36.9829 44.8107 36.959 44.8001L37.0227 44.7602H37.0229C37.1036 44.7286 37.1685 44.6879 37.2003 44.6487C38.7657 43.6675 40.3285 42.6824 41.8888 41.6932L46.2664 38.9181C46.2766 38.9154 46.281 38.9122 46.2813 38.9086L49.9997 36.5515V36.5096H49.9999V34.3159L49.9385 34.3254V34.2173L49.9107 34.2199C49.9064 34.2067 49.9021 34.1917 49.8977 34.1846C49.8227 34.0665 49.4925 34.1578 48.5174 34.5661C46.5806 35.3773 46.6827 35.3645 46.6827 34.7964C46.6827 34.1698 46.6373 33.6392 46.5599 33.2728V32.8043H46.3876C46.3612 32.7711 46.3336 32.749 46.3046 32.7398C46.2982 32.7381 46.2915 32.7379 46.2849 32.7391ZM29.4702 43.6357C29.4507 43.6372 29.4322 43.6489 29.412 43.6716C29.4088 43.6753 29.4048 43.682 29.4015 43.6863C29.3421 43.7078 29.2854 43.7361 29.2325 43.7705C29.0658 43.8605 28.8471 44.0046 28.5661 44.2065C28.4959 44.2487 28.4124 44.3053 28.3167 44.3754C27.4662 44.9264 26.2351 45.7582 24.7517 46.789L24.7237 46.8084L24.7205 46.8106L22.5101 48.3278C22.4992 48.3299 22.491 48.3338 22.4893 48.3422L20.1561 49.9436L20.1503 53.4735L20.1443 57.0034L20.2059 57.0488V57.0691L20.5346 57.3017L20.5348 57.3019C20.5531 57.3192 20.5727 57.3331 20.5935 57.3436L21.1839 57.7613C21.7162 58.144 22.2502 58.5242 22.786 58.902C23.5969 59.4737 24.346 59.9449 24.4508 59.9491C24.5457 59.953 24.6225 59.9393 24.6849 59.8993C24.6886 59.8969 24.6926 59.8955 24.6961 59.8929L24.6963 59.8928C24.7129 59.881 24.7281 59.8674 24.7416 59.8523C24.7556 59.8368 24.7687 59.8192 24.7809 59.7994L24.7811 59.799L24.7814 59.7983C24.7848 59.7926 24.7877 59.7854 24.7909 59.7794L24.8747 59.7725L24.8898 59.4224V59.4223C24.8951 59.3832 24.9002 59.3421 24.9045 59.2975V59.297C24.9092 59.2488 24.9133 59.1971 24.9168 59.1422V59.1412C24.9238 59.0309 24.9286 58.9065 24.9317 58.7668V58.7646C24.932 58.7512 24.9317 58.7333 24.9321 58.7196C24.9341 58.612 24.935 58.493 24.9353 58.3668L24.9355 58.3634L24.9361 58.3515L24.9976 56.9305L25.2042 56.7494L26.8113 55.6505C26.8588 55.6437 26.8831 55.6279 26.8897 55.5969L27.34 55.289C27.762 55.0004 28.1808 54.7072 28.5962 54.4094C29.1171 54.0908 29.4505 53.8454 29.6501 53.6216C29.767 53.5267 29.8438 53.4581 29.8584 53.4309L29.8585 53.4302C29.8588 53.4296 29.8592 53.4279 29.8595 53.4273C29.8599 53.4264 29.8614 53.4249 29.8618 53.4242C29.8735 53.4024 29.8837 53.3086 29.8933 53.1838C29.8966 53.1699 29.9006 53.1561 29.9032 53.1422C29.9256 53.0228 29.936 52.5582 29.9378 51.909C29.943 51.6293 29.9483 51.3471 29.9514 51.0198C29.9514 51.0139 29.9514 51.0095 29.9516 51.0036C29.9562 50.5636 29.9588 50.0897 29.9594 49.6048V49.5746C29.9603 48.6531 29.9536 47.6999 29.9401 46.8593C29.9395 46.8224 29.9395 46.7797 29.9388 46.7433C29.9351 46.525 29.9308 46.3155 29.9261 46.1174V46.1164C29.9213 45.9183 29.916 45.7318 29.9102 45.5597V45.559C29.9051 45.4022 29.8988 45.2455 29.8914 45.0888V45.0883C29.8856 44.9661 29.8783 44.8439 29.8692 44.7219C29.8262 44.1607 29.7974 43.899 29.7335 43.7779L29.7295 43.7696C29.7253 43.7452 29.7211 43.7281 29.7169 43.7214C29.7072 43.705 29.6944 43.6907 29.6791 43.6793C29.6638 43.6678 29.6465 43.6595 29.628 43.6549C29.6162 43.6491 29.6037 43.6449 29.5908 43.6422C29.586 43.6413 29.5759 43.6441 29.5634 43.6485C29.5509 43.6492 29.5376 43.6509 29.5236 43.6534C29.5042 43.6411 29.4867 43.6343 29.4703 43.6356L29.4702 43.6357Z" fill="#D7C38F"/>
</g>
<defs>
<clipPath id="clip0_437_1277">
<rect width="50" height="59.9498" fill="white"/>
</clipPath>
</defs>
</svg>
