<svg width="70" height="70" viewBox="0 0 70 70" fill="none" xmlns="http://www.w3.org/2000/svg">
<path d="M32.725 9.25859C33.8188 6.67188 34.568 3.94844 35 1.17578C35.4211 3.94844 36.2414 6.63906 37.2477 9.25313C45.8664 10.0516 53.9711 15.2687 57.9797 22.9797C61.95 30.1273 61.9391 39.0195 58.6906 46.4406C60.5992 48.6719 62.5352 50.9195 64.9906 52.5766C62.2508 51.3516 59.3141 50.6789 56.3555 50.2687C51.5758 57.0992 43.3946 61.518 35.0055 61.2719C26.6164 61.518 18.4352 57.0937 13.6446 50.2687C10.6422 50.6844 7.66174 51.3734 4.90002 52.6477C7.42659 50.9578 9.46096 48.6773 11.3477 46.3203C8.19768 39.4844 8.09377 31.2758 11.2985 24.4453C15.0336 15.9906 23.5594 10.0844 32.725 9.25859ZM33.6438 11.6648C34.5461 11.6648 35.443 11.6648 36.3453 11.6703C35.886 10.4453 35.443 9.21484 35.0164 7.97344C34.5844 9.21484 34.1196 10.4398 33.6438 11.6648ZM14.1313 22.9469C10.2211 29.3562 9.77268 37.5648 12.518 44.5047C13.0813 43.7117 13.6008 42.8859 14.1258 42.0711C15.236 44.9258 16.7836 47.5945 18.6922 49.9898C17.7024 50.0063 16.7071 50.0281 15.7117 50.05C20.2891 55.9125 27.5625 59.6313 35.0383 59.5383C42.4922 59.6094 49.7219 55.8852 54.2938 50.05C53.2985 50.0281 52.3086 50.0062 51.3133 49.9953C53.1508 47.5453 54.8024 44.9367 55.8797 42.0602C56.4047 42.8094 56.7 43.8156 57.5258 44.3133C60.4516 37.0508 59.6149 28.3609 55.1961 21.875C51.4008 16.0508 44.9696 12.1188 38.0953 11.2055C38.6039 12.0805 39.1235 12.9445 39.6375 13.8141C36.5641 13.382 33.4414 13.3875 30.368 13.8141C30.8766 12.9445 31.3961 12.075 31.9047 11.2055C24.6039 12.168 17.8336 16.5594 14.1313 22.9469ZM13.836 45.9539C13.0266 46.9656 12.2063 47.9609 11.375 48.9508C12.6602 48.7102 13.9508 48.4805 15.2414 48.2617C14.7711 47.4961 14.2953 46.725 13.836 45.9539ZM54.7477 48.2672C56.0438 48.4805 57.3344 48.7102 58.625 48.9453C57.7938 47.9609 56.9735 46.9602 56.1641 45.9484C55.7047 46.7305 55.218 47.4961 54.7477 48.2672Z" fill="white"/>
<path d="M29.4493 23.9094C30.9094 22.5476 33.1024 22.6187 34.9727 22.5312C37.4118 22.3891 40.6274 22.8758 41.6336 25.457C42.4157 25.8726 42.9024 26.4961 42.7875 27.4312C43.0938 27.4422 43.7063 27.464 44.0125 27.4805C45.0899 28.6344 46.4133 29.6297 47.1625 31.0461C47.5727 32.6812 47.2063 34.393 47.436 36.0555C47.4688 37.3133 48.0321 38.8609 46.9493 39.8508C44.8274 42.2187 42.35 44.2367 40.1953 46.5773C36.9086 48.2781 33.0149 47.868 29.6133 46.7031L29.2852 45.8555C28.3883 45.1773 27.6446 44.3297 26.9118 43.4765C26.8407 43.1594 26.6985 42.5305 26.6328 42.2133C26.2938 42.2078 25.6157 42.1969 25.2766 42.1859C24.2977 41.114 23.0618 40.1898 22.4328 38.85C22.3344 37.3898 22.6899 35.9406 22.6407 34.475C22.7063 33.2117 22.4 31.8281 23.0235 30.6578C24.8336 28.0984 27.6336 26.4578 29.4493 23.9094ZM30.1711 24.1062C30.1328 26.0476 31.5164 27.464 32.3313 29.0883C31.8446 27.3273 31.6696 25.3641 30.1711 24.1062ZM37.6743 28.1531C38.2758 27.464 38.8282 26.7422 39.3914 26.0203C39.4024 25.5062 39.4352 24.4836 39.4461 23.9695C38.4727 25.1836 37.8547 26.6055 37.6743 28.1531ZM24.861 30.8765C24.9102 30.9203 24.9102 30.9203 24.861 30.8765ZM28.8969 35.1586C29.3672 37.3297 31.5438 38.2101 33.0477 39.55C31.4782 38.9539 29.7118 38.5875 28.5032 37.3297C27.2727 38.0187 25.375 38.2922 24.9485 39.8398C27.0539 40.868 28.3828 42.7711 29.8922 44.4773C30.9094 43.7937 31.6258 42.782 32.375 41.8305C32.1344 42.9953 31.8883 44.1601 31.686 45.3359C33.8899 45.407 36.0993 45.5109 38.3032 45.3359C38.0297 44.1219 37.7344 42.9133 37.5047 41.6937C38.3578 42.7328 39.0907 43.8594 39.8563 44.964C40.0696 44.625 40.5016 43.9469 40.7149 43.6078C42.2516 42.1531 43.5969 40.507 45.4071 39.3531C44.2805 38.4398 42.9899 37.7836 41.6227 37.3187C40.1828 38.2777 38.6238 39.0444 36.9852 39.5992C38.3961 38.1172 40.8516 37.3461 41.125 35.0656C39.9 33.9117 38.8336 32.5992 37.5758 31.4781C38.1063 32.4789 38.7352 33.4195 39.2711 34.4148C38.7899 35.7601 36.9961 35.793 36.0391 36.7008C36.7172 36.4711 38.0844 36.0062 38.768 35.7765C37.8274 36.9414 37.2149 38.4508 35.9407 39.3094C34.3985 40.0476 33.2336 38.4836 32.1618 37.6742C33.7586 38.15 35.4375 38.3797 37.0836 38.0406C34.8907 38.0133 32.3641 37.9203 30.986 35.9078C31.9375 36.1156 32.8891 36.3234 33.8461 36.5312C32.9164 36.0773 31.9649 35.6617 31.0461 35.1914C30.4063 33.857 32.0305 32.7195 32.3914 31.4945C31.1336 32.6265 30.0727 33.9445 28.8969 35.1586ZM24.0133 31.9867C24.4016 34.0484 24.0735 36.143 24.1883 38.2211C24.8063 38.0133 25.4243 37.8 26.0368 37.5812C26.786 36.6023 28.443 36.0937 27.6063 34.6062L28.3719 33.95C26.8461 33.4742 25.2164 33.1187 24.0133 31.9867ZM41.7321 33.9281C42.525 34.4859 42.3172 35.3172 42.1203 36.1101C43.4274 36.8047 44.4008 38.0406 45.9375 38.2539C46.1399 36.1703 46.0524 34.0812 45.8993 32.0031C44.7399 33.0695 43.2141 33.507 41.7321 33.9281Z" fill="white"/>
<path d="M32.5062 40.786C34.0812 40.0367 35.9133 40.0422 37.4937 40.7805C35.8586 41.207 34.1414 41.207 32.5062 40.786Z" fill="white"/>
</svg>
