<svg width="50" height="50" viewBox="0 0 50 50" fill="none" xmlns="http://www.w3.org/2000/svg">
<g clip-path="url(#clip0_437_1273)">
<path d="M25.0647 0C25.0357 0 25.0064 0.000573184 24.9774 0.000655068C24.8736 0.000655068 24.7697 0.0019652 24.6658 0.00311157C24.6289 0.00352099 24.592 0.00352099 24.5551 0.00417606C23.1296 0.0241556 21.707 0.138219 20.6703 0.340717L19.367 0.595293L19.4015 0.92168C19.4205 1.10117 19.4815 1.29466 19.5372 1.35173C19.593 1.4088 19.6386 1.56848 19.6386 1.70661C19.6386 1.99206 19.6937 2.00058 20.533 1.84459C21.546 1.65634 21.8844 1.63071 24.2545 1.56283C26.4478 1.49994 27.3122 1.55538 29.8751 1.92311C29.8862 1.92475 29.8938 1.92565 29.9044 1.92721C29.9211 1.93016 29.936 1.93147 29.9508 1.93335C30.2684 1.97618 30.2824 1.94809 30.2824 1.64201C30.2824 1.57912 30.2885 1.52082 30.2987 1.47022C30.3075 1.44025 30.3153 1.41462 30.325 1.38096C30.3449 1.33273 30.3702 1.3026 30.3979 1.3026C30.4624 1.3026 30.4983 1.14915 30.4793 0.954925C30.4763 0.923428 30.4724 0.892026 30.4675 0.860759C30.4861 0.787146 30.4995 0.729991 30.4995 0.71779C30.4995 0.688476 30.4358 0.653594 30.3198 0.614453C30.1059 0.478527 29.5798 0.397626 28.2219 0.197994C27.7103 0.122743 27.1217 0.0700922 26.4966 0.037912L26.4876 0.037257L26.4849 0.0370932C26.4054 0.032999 26.3247 0.0298875 26.2442 0.0265302C26.1451 0.0222723 26.0462 0.0179325 25.9457 0.014739C25.8873 0.0127996 25.829 0.0112984 25.7706 0.0102354C25.6607 0.00729249 25.5508 0.00499971 25.4408 0.00335722L25.3724 0.00270215C25.2699 0.00163767 25.1679 8.18834e-05 25.0647 0ZM16.4696 0.880083C16.4068 0.881175 16.3429 0.886088 16.2779 0.894822C14.8813 1.08315 14.4905 2.76168 15.6694 3.50756C16.2006 3.84361 17.0429 3.73323 17.5241 3.26445C17.8442 2.95264 17.8954 2.84209 17.8997 2.3869C17.9059 2.31353 17.9053 2.23935 17.8981 2.16434C17.8855 1.80717 17.8203 1.64684 17.6192 1.42002C17.2942 1.05343 16.9091 0.872632 16.4696 0.880083ZM32.389 1.1503C32.3623 1.14982 32.3358 1.15372 32.3104 1.16184C32.0953 1.18944 32.0401 1.36442 31.9914 1.71366C31.9602 1.93794 31.9171 2.19071 31.8958 2.27546C31.8715 2.37233 32.0184 2.48909 32.2915 2.58973C33.9855 3.21384 34.5915 3.4622 35.5499 3.92525C37.1484 4.69774 38.9795 5.89946 40.4373 7.13295C40.5009 7.18675 40.5669 7.23432 40.6308 7.27723C40.6396 7.28771 40.6494 7.29884 40.654 7.30638C40.7054 7.38998 40.7716 7.42314 40.861 7.40341C40.8773 7.40865 40.892 7.41242 40.9032 7.41266C40.9069 7.41283 40.9132 7.41029 40.9179 7.40947C40.9221 7.41143 40.9293 7.41602 40.9311 7.41602C40.9389 7.4161 40.9577 7.40431 40.9838 7.38441C41.1024 7.32341 41.3062 7.16742 41.5006 6.98327L41.958 6.54986L41.5777 6.20857C39.5548 4.3919 36.1649 2.40017 33.5121 1.46956C33.0907 1.32176 32.7942 1.22432 32.5809 1.18191C32.5019 1.16143 32.4388 1.15046 32.3889 1.15038M11.8103 1.82428C11.4786 1.82313 11.1622 1.86768 10.9326 1.96078C10.4113 2.17204 8.32324 3.58371 7.62653 4.19579C7.55818 4.25589 7.23936 4.52578 6.91784 4.79567C6.30976 5.30629 4.68687 6.91784 4.21564 7.47915C3.61464 8.19489 2.71567 9.35789 2.36532 9.8731C2.06962 10.308 1.9959 10.5165 1.95884 11.0617C1.94988 11.1161 1.94377 11.174 1.94051 11.2352C1.93381 11.3279 1.93234 11.4208 1.93611 11.5136C1.93644 11.5969 1.93913 11.672 1.94304 11.7427C1.94736 11.9611 1.95974 12.1563 1.98035 12.2665C2.08429 12.8237 2.90815 13.6885 3.5959 13.9625C4.35974 14.2667 5.19875 14.206 5.95648 13.7914C6.39187 13.5531 6.71501 13.2254 7.3947 12.3336C8.96961 10.2671 10.7721 8.60145 13.5424 6.65229C14.2015 6.18859 14.5593 5.53196 14.6219 4.67145C14.6657 4.06813 14.5136 3.37139 14.2739 3.07841C13.8835 2.60103 13.4426 2.24074 13.0131 2.04799C12.6885 1.90223 12.2368 1.82567 11.8103 1.82428ZM11.8685 3.27501C12.107 3.27829 12.3537 3.35771 12.5898 3.51714C13.1647 3.90559 13.2699 4.78142 12.8653 5.29254C12.8029 5.36338 12.7342 5.42826 12.66 5.48635C12.0549 5.92107 11.2135 5.78466 10.8449 5.18502C10.5676 4.73385 10.5642 4.28865 10.8351 3.87571C11.0971 3.47603 11.4713 3.26969 11.8685 3.27501ZM24.881 5.69647C24.3754 5.6991 23.8702 5.72249 23.3665 5.76656C22.6937 5.80758 22.064 5.87448 21.539 5.96914C19.351 6.36382 16.5699 7.46286 14.6748 8.68137C12.7011 9.95056 10.5881 12.0579 9.23231 14.1093C9.04178 14.3975 8.88595 14.6758 8.88595 14.7278C8.88595 14.7373 8.8831 14.7471 8.88049 14.7568L8.83968 14.826C8.82583 14.8399 8.81068 14.852 8.7935 14.8587C8.74267 14.8788 8.48005 15.362 8.21009 15.9324C7.5379 17.3526 7.39714 17.6952 7.31291 18.126C7.29198 18.2001 7.27512 18.2711 7.26583 18.3313C7.22592 18.475 7.17615 18.5898 7.13892 18.613C7.0876 18.6448 7.01372 18.9144 6.97438 19.2122C6.93511 19.51 6.86506 19.7536 6.81879 19.7536C6.77252 19.7536 6.71127 19.9869 6.68259 20.2722C6.65392 20.5575 6.57702 20.9873 6.51169 21.2275C6.44718 21.4649 6.41101 22.3401 6.4001 23.3153C6.39105 23.5262 6.38527 23.7262 6.38527 23.9024C6.38527 24.0701 6.39073 24.2603 6.39944 24.4609C6.40946 25.4462 6.44522 26.3352 6.51015 26.5772C6.5745 26.8175 6.6518 27.2104 6.68162 27.4506C6.71151 27.6909 6.77977 27.9341 6.83345 27.9912C6.88713 28.0483 6.93096 28.2077 6.93096 28.3456C6.93096 28.6068 7.27284 29.7116 7.53782 30.3059C7.62213 30.495 7.69112 30.6947 7.69112 30.7494C7.69112 30.8475 8.48184 32.4414 8.78478 32.9541C9.11517 33.5132 9.98058 34.7581 10.3741 35.2404C11.1801 36.2281 12.8196 37.7741 13.859 38.5267C14.4391 38.9466 14.9481 39.2916 14.9902 39.2933C15.0837 39.2973 15.3582 38.695 15.4482 38.2885C15.5085 38.0166 15.4399 37.935 14.6711 37.3641C13.5369 36.5221 12.0392 35.0599 11.2611 34.035C10.9105 33.5732 10.6236 33.166 10.6236 33.1299C10.6236 33.0938 10.5625 32.9908 10.4879 32.9012C10.4154 32.8141 10.311 32.6883 10.2499 32.6141C10.1491 32.4528 10.0501 32.2904 9.95305 32.1269C9.39303 31.0718 8.45145 28.8125 8.45145 28.4303C8.45145 28.3059 8.40128 28.1536 8.33986 28.0919C8.2786 28.0303 8.19787 27.7135 8.16049 27.3877C8.12521 27.0808 8.0484 26.7982 7.98478 26.7304L7.91212 26.3681C7.84345 25.5582 7.83115 23.51 7.87457 22.201C7.89917 21.7776 7.92996 21.3911 7.96588 21.0738C7.9689 21.0664 7.97183 21.0572 7.97492 21.0533C8.04139 20.969 8.12416 20.6459 8.15886 20.3352C8.19356 20.0246 8.26679 19.6806 8.32145 19.571C8.3761 19.4613 8.50342 19.1013 8.60435 18.771C8.9086 17.7753 9.56515 16.3066 10.0844 15.3889C10.1773 15.2331 10.2722 15.0786 10.3692 14.9253C10.378 14.9114 10.3871 14.8978 10.3959 14.884C10.4574 14.7953 10.5151 14.7181 10.5655 14.6629C10.6274 14.5952 10.7513 14.431 10.8409 14.2979C12.2781 12.1638 14.5484 10.2002 17.0273 8.9474C18.9711 7.96497 21.2031 7.3081 23.3139 7.07522C23.4752 7.06414 23.6393 7.05475 23.8061 7.04705C24.1338 7.04419 24.4999 7.04263 24.9602 7.04263C25.372 7.04263 25.7061 7.04394 26.0101 7.04615C26.2679 7.05762 26.5211 7.07301 26.7669 7.09283C29.3889 7.40972 32.1696 8.37733 34.3812 9.77991C35.4503 10.458 36.996 11.7771 37.7381 12.645C38.1287 13.102 38.5658 13.6066 38.7096 13.7663C38.8534 13.926 38.971 14.0879 38.971 14.1258C38.971 14.1904 39.0719 14.3271 39.364 14.6584C39.4308 14.7342 39.5196 14.9045 39.5614 15.0367C39.6032 15.1692 39.683 15.2773 39.7387 15.2773C39.7554 15.2778 39.7715 15.284 39.7843 15.2949C39.8004 15.3215 39.8164 15.3481 39.8323 15.3748C39.8373 15.3929 39.8399 15.4125 39.84 15.4333C39.84 15.519 39.9011 15.6542 39.9757 15.7336C40.1461 15.9147 40.6002 16.842 40.6002 17.0089C40.6002 17.0774 40.6371 17.1334 40.6823 17.1334C40.7122 17.1334 40.7383 17.1529 40.7788 17.2358C40.7914 17.2644 40.8039 17.2931 40.8163 17.3219C40.8924 17.5083 41.0134 17.8735 41.2509 18.6072C41.3869 19.0276 41.535 19.4698 41.58 19.5898C42.0795 20.9212 42.2252 24.6717 41.8599 26.7955C41.7463 27.4561 41.612 28.0432 41.5613 28.1003C41.5106 28.1573 41.4692 28.311 41.4692 28.4417C41.4692 29.0656 39.7419 32.7965 39.384 32.946C39.3361 32.9659 39.2968 33.0326 39.2968 33.094C39.2968 33.2882 37.9401 34.9546 37.1643 35.7131C36.2412 36.6155 35.6874 37.0756 34.9577 37.5463C34.4109 37.899 34.394 37.9246 34.4641 38.3C34.5456 38.7366 34.8075 39.2965 34.9302 39.2965C35.133 39.2965 37.42 37.4552 38.2314 36.6388C39.3969 35.4661 39.6129 35.2045 40.4983 33.8922C41.594 32.2685 42.2049 30.9573 42.9835 28.5594C43.0584 28.3285 43.161 27.8863 43.2115 27.5768C43.2619 27.2673 43.3526 26.7929 43.4132 26.5227C43.4726 26.2574 43.5058 25.4107 43.5158 24.4721C43.526 24.2535 43.5317 24.0436 43.5317 23.8477C43.5317 23.6622 43.5255 23.4598 43.5151 23.2482C43.5041 22.3438 43.4708 21.5397 43.4132 21.2822C43.3526 21.0119 43.2595 20.5206 43.2059 20.1903C43.1059 19.5741 42.6593 18.1115 42.3839 17.4991C42.2989 17.3099 42.2293 17.1023 42.2293 17.0381C42.2293 16.8962 41.2449 14.9432 41.0902 14.7781C41.0298 14.7136 40.8837 14.4802 40.7656 14.2594C40.6475 14.0386 40.513 13.858 40.4668 13.858C40.4658 13.858 40.4649 13.8575 40.4638 13.8575C40.439 13.8218 40.4134 13.7862 40.3882 13.7505C40.385 13.735 40.3832 13.7192 40.383 13.7033C40.383 13.6183 40.3463 13.5324 40.3015 13.5123C40.2567 13.4923 40.0735 13.2586 39.8943 12.9929C39.4482 12.3316 37.5694 10.4328 36.5976 9.6611C34.3813 7.90126 31.2218 6.48157 28.3815 5.96914C27.862 5.87546 27.2401 5.80914 26.5754 5.76795C26.012 5.7182 25.4466 5.69435 24.8811 5.69647M7.7879 6.35457C8.20089 6.35571 8.77386 6.65631 8.94778 6.99432C9.24811 7.57815 9.07045 8.35162 8.56737 8.65041C8.26532 8.82974 7.68787 8.88222 7.37727 8.7585C7.1254 8.65811 6.82237 8.35907 6.82237 8.21103C6.82237 8.1343 6.7735 8.07158 6.71371 8.07158C6.71012 8.07148 6.70657 8.07079 6.7032 8.06953C6.64422 7.92704 6.61125 7.77505 6.60586 7.62081C6.60944 7.30007 6.68984 7.12353 6.96395 6.83137C7.14112 6.64255 7.39722 6.45823 7.56706 6.39215C7.61701 6.37776 7.66777 6.36638 7.71906 6.35809C7.74195 6.35594 7.76491 6.35476 7.7879 6.35457ZM43.1028 7.79858L43.0042 7.89741C42.8471 7.93058 42.6918 8.09049 42.4492 8.34204L42.0849 8.71993L42.5663 9.24194C42.8311 9.52902 43.1202 9.85156 43.2089 9.95875C43.2994 10.0683 43.3905 10.1775 43.4819 10.2863C43.7613 10.6173 44.619 11.7721 44.619 11.8175C44.619 11.8452 44.8102 12.1561 45.0438 12.5082C45.543 13.2607 46.574 15.249 46.574 15.4592C46.574 15.5393 46.6229 15.6049 46.6826 15.6049C46.6949 15.6049 46.7067 15.6092 46.7178 15.6159C46.7439 15.6743 46.771 15.7346 46.7942 15.7882C46.7942 15.7908 46.7947 15.7933 46.7948 15.796C46.7968 15.9011 46.893 16.1835 47.0085 16.4237C47.1239 16.6639 47.2199 16.9224 47.222 16.9983C47.224 17.0743 47.2861 17.2336 47.36 17.3524C47.3817 17.3875 47.4092 17.4182 47.4388 17.4444C47.4847 17.52 47.5463 17.5536 47.6087 17.5295C47.6106 17.5287 47.6175 17.5267 47.6196 17.5259C47.6327 17.5262 47.6459 17.5246 47.6586 17.5212C47.749 17.4951 48.0254 17.4214 48.2728 17.3572L48.7226 17.2405L48.5967 16.812C48.5275 16.5764 48.4351 16.3476 48.3914 16.3036C48.3476 16.2595 48.3118 16.1532 48.3118 16.0673C48.3118 15.9036 48.1701 15.552 47.7047 14.5876C47.7009 14.5744 47.6923 14.5499 47.6902 14.5404C47.6631 14.4203 47.6094 14.3201 47.564 14.2992C47.5015 14.1708 47.4431 14.0499 47.3701 13.9013C47.3372 13.7856 47.2919 13.6912 47.2502 13.6561C46.6128 12.3642 46.4254 12.0156 46.2168 11.7351C46.1697 11.6717 45.8796 11.2268 45.5721 10.7464C45.2646 10.266 44.9855 9.84853 44.9518 9.81848C44.9181 9.78843 44.6461 9.47129 44.3474 9.11346C43.7783 8.43187 43.4732 8.06716 43.2422 7.94155L43.1075 7.80005L43.1058 7.80177L43.1028 7.79858ZM25.7598 8.50834C25.4022 8.50834 25.3949 8.51768 25.3949 8.97778C25.3949 9.23596 25.4356 9.49389 25.4855 9.55097C25.5354 9.60796 25.6617 9.888 25.7661 10.1733C25.9469 10.6671 25.9468 10.7166 25.7653 11.2105C25.6604 11.4958 25.5264 11.7927 25.4674 11.8704C25.2771 12.1212 25.3334 13.2245 25.5576 13.6397C25.8548 14.1899 25.8423 15.1868 25.5298 15.8446C25.3959 16.1265 25.2862 16.3845 25.2862 16.4178C25.2862 16.4511 25.3595 16.4782 25.4491 16.4782C25.5387 16.4782 25.6121 16.4216 25.6121 16.3522C25.6121 16.2829 25.7271 16.0739 25.8675 15.8881C26.427 15.1482 26.5149 14.8546 26.4257 14.0275C26.2882 12.7551 26.3091 12.5853 26.6635 12.0849C27.2339 11.2795 27.3785 10.8686 27.3062 10.2586C27.2705 9.95645 27.2125 9.46966 27.1773 9.17692L27.1134 8.64468L26.6191 8.57647C26.3472 8.53905 25.9605 8.50834 25.7598 8.50834ZM23.6676 8.55232C23.2891 8.54282 22.1022 8.71756 22.0069 8.81336C21.9214 8.89934 22.5078 10.1485 22.6856 10.2589C22.8962 10.3898 22.9817 10.9869 22.8743 11.5771C22.7492 12.2645 22.8154 13.2303 22.9916 13.2894C23.059 13.312 23.1141 13.374 23.1141 13.4272C23.1141 13.4805 23.2635 13.7373 23.4461 13.9977C23.7879 14.4852 23.8409 14.7704 23.7423 15.788C23.7325 15.8542 23.7238 15.9205 23.7163 15.987C23.6791 16.3267 23.6633 16.4853 23.6806 16.5102C23.6863 16.7081 23.7946 16.4677 24.1334 15.6976C24.2261 15.4869 24.2798 15.2063 24.2963 14.9102C24.3253 14.693 24.3179 14.4917 24.2761 14.2878C24.2442 14.0231 24.183 13.7754 24.0916 13.5851C23.9761 13.345 23.8817 12.9518 23.8817 12.7116C23.8817 12.4713 23.9761 12.0785 24.0916 11.8382C24.2117 11.5881 24.2833 11.2575 24.2982 10.891C24.3077 10.7604 24.3059 10.6314 24.292 10.5019C24.269 10.1756 24.2006 9.88178 24.0916 9.65471C23.9761 9.41455 23.8801 9.08579 23.8781 8.92415C23.876 8.76259 23.8294 8.60251 23.7746 8.56853C23.7591 8.55887 23.7217 8.55371 23.6676 8.55232ZM28.9262 8.99056C28.8148 8.99301 28.7686 9.03944 28.6989 9.13172C28.5262 9.36059 28.4961 9.99371 28.6532 10.0914C28.8375 10.2059 28.7809 11.3244 28.5743 11.651C28.4711 11.814 28.36 11.9719 28.3274 12.002C28.2948 12.032 28.1715 12.2039 28.0534 12.3841C27.8654 12.6708 27.8418 12.8724 27.865 14.0014L27.8912 15.2767C27.8898 15.2838 27.8886 15.2913 27.887 15.2981L27.4552 15.9372C27.2152 16.2924 26.9903 16.6579 26.9555 16.7492C26.8414 17.0481 27.0223 16.9251 27.6782 16.2574C28.5225 15.3981 28.653 15.1253 28.6539 14.2183C28.6547 13.3956 28.7369 13.2212 29.491 12.4402C30.1236 11.7852 30.2824 11.397 30.2824 10.5061C30.2824 10.4967 30.2826 10.488 30.2827 10.4787C30.2941 10.3763 30.3031 10.2757 30.3074 10.1809L30.3191 9.92354C30.3427 9.76763 30.3765 9.65848 30.4173 9.61746C30.5993 9.43453 30.4293 9.33619 29.5439 9.11256C29.214 9.02929 29.0375 8.98802 28.9262 8.99056ZM20.3135 9.16341C19.9633 9.16341 18.8252 9.66388 18.793 9.83207C18.7756 9.92255 19.0604 10.3077 19.4259 10.6878C20.2023 11.4955 20.2902 11.6855 20.2902 12.5594C20.2902 13.362 20.518 13.8327 21.2475 14.5365C21.8058 15.0752 21.9156 15.3693 21.9181 16.3329C21.9187 16.5832 21.9517 16.8731 21.9914 16.9771C22.1002 17.262 22.3431 16.2274 22.349 15.4544C22.3533 14.8732 22.3102 14.7494 21.8922 14.1442L21.4307 13.4759V12.0803C21.4307 12.0551 21.4302 12.032 21.4302 12.0072C21.4774 11.6418 21.4721 11.3481 21.4006 11.0713C21.3812 10.8021 21.3538 10.6293 21.322 10.6064C21.1161 10.4582 20.5074 9.50953 20.5074 9.33668C20.5074 9.24145 20.4202 9.16341 20.3135 9.16341ZM31.9778 10.146C31.9675 10.146 31.9556 10.1622 31.9428 10.1894C31.7424 10.2864 31.6742 10.6467 31.6201 11.3526L31.5505 12.2579L30.8693 13.0042C30.1094 13.8367 30.136 13.7769 29.9494 15.059C29.8152 15.9808 29.8101 15.9913 29.1795 16.6386C28.8303 16.9969 28.5445 17.3285 28.5445 17.3755C28.5445 17.4225 28.5688 17.4608 28.5985 17.4608C28.7015 17.4608 30.2289 16.3316 30.3581 16.1599C30.4882 15.9868 30.7371 15.2763 30.8713 14.6949C30.9621 14.3017 31.164 14.0947 31.9329 13.6062C32.6715 13.137 32.8543 12.879 33.1314 11.9145C33.2469 11.5122 33.366 11.1032 33.3959 11.0055C33.4005 10.9904 33.4023 10.9749 33.4013 10.9591C33.4341 10.925 33.4477 10.892 33.429 10.8745C33.4205 10.8665 33.392 10.8491 33.3511 10.8259C33.3367 10.8071 33.3193 10.7909 33.2997 10.7779C33.2869 10.7692 33.2668 10.7574 33.2514 10.7476C33.1631 10.6736 33.0354 10.589 32.8578 10.4868C32.5151 10.2897 32.2734 10.1743 32.0995 10.1631C32.0695 10.1525 32.0466 10.146 32.0353 10.146C32.0221 10.146 32.0097 10.149 31.9975 10.1534C31.993 10.1521 31.9798 10.146 31.9779 10.146M4.62643 10.2551C5.02753 10.2551 5.16715 10.3162 5.47571 10.6264C5.77841 10.9308 5.84496 11.0802 5.84496 11.4561C5.84496 11.8321 5.77841 11.9816 5.47571 12.2859C5.18148 12.5816 5.0215 12.6564 4.68834 12.6537C3.88834 12.6474 3.40122 12.1874 3.40122 11.4382C3.40122 11.2487 3.41018 11.1199 3.44464 11.0122C3.4681 10.9577 3.49465 10.9041 3.52512 10.8523C3.58083 10.772 3.65952 10.6921 3.77381 10.5895C4.07031 10.3234 4.24439 10.2551 4.62643 10.2551ZM17.2077 10.4462L17.1531 10.4763C17.1493 10.4749 17.1453 10.4739 17.1412 10.4735L17.1401 10.4737L17.1361 10.4697L17.1266 10.4758C16.8971 10.4979 16.0209 11.0744 15.8638 11.2914C15.863 11.2921 15.8539 11.2979 15.8533 11.2984C15.8481 11.3034 15.8455 11.31 15.8456 11.3183C15.8408 11.3267 15.8379 11.336 15.8371 11.3457C15.8371 11.5463 16.0552 11.7463 16.8612 12.2842C17.4498 12.6771 17.7921 13.1731 17.7921 13.6333C17.7921 13.9439 18.1509 14.6372 18.4638 14.931C18.6021 15.0608 18.9842 15.3522 19.3127 15.5787C19.847 15.9468 19.9311 16.0593 20.1101 16.6438C20.2203 17.0032 20.3607 17.4323 20.4221 17.5974C20.5874 18.0416 20.8408 17.9959 20.7251 17.5427C20.6755 17.3476 20.6016 16.8932 20.5612 16.5329C20.4769 15.781 20.213 15.2867 19.6761 14.8749C19.1624 14.4811 19.0272 14.1671 18.9349 13.1546C18.8914 12.6777 18.7776 12.1618 18.6819 12.0082C18.5353 11.7729 17.9005 11.1155 17.4896 10.7425L17.2077 10.4462ZM34.8766 11.8928C34.8748 11.8928 34.8722 11.8945 34.8702 11.8949C34.6529 11.9167 34.3224 12.5213 34.1903 13.1457C34.0451 13.8323 33.9584 13.9439 33.1888 14.4371C32.3481 14.9757 32.1162 15.2711 31.8587 16.1312C31.5912 17.025 31.4256 17.2688 30.8671 17.5918C30.3432 17.8948 29.8479 18.2823 29.8479 18.3891C29.8479 18.4319 29.909 18.44 29.9837 18.4071C30.0584 18.3743 30.4859 18.1943 30.9339 18.007C31.9293 17.5908 32.159 17.382 32.5985 16.4943C32.9564 15.7716 33.1955 15.5815 34.1278 15.2781C34.6864 15.0964 35.422 14.3435 35.7187 13.6501C35.8497 13.3441 35.9997 13.0938 36.052 13.0938C36.1044 13.0938 36.1473 13.0243 36.1473 12.9393C36.1473 12.7578 35.1018 11.8928 34.8825 11.8928C34.8812 11.8928 34.8799 11.8933 34.8787 11.8934C34.8782 11.8934 34.8771 11.8928 34.8766 11.8928ZM14.4296 12.2956L14.3322 12.3868C14.2119 12.4513 14.0432 12.6037 13.754 12.8784L13.1762 13.4272L13.4823 13.67C13.6506 13.8035 14.1139 14.0373 14.5118 14.1897C14.6161 14.2292 14.7197 14.2709 14.8224 14.3145C14.9851 14.3992 15.1066 14.4704 15.1995 14.5396C15.3302 14.6644 15.4239 14.8396 15.5879 15.1637C16.0642 16.1046 16.3948 16.4223 17.2397 16.7517C18.1659 17.1128 18.2464 17.181 18.6612 17.9558C18.8531 18.3141 19.0597 18.6688 19.1204 18.7438C19.2843 18.9466 19.4559 18.9089 19.369 18.6891C19.3275 18.584 19.1955 18.1787 19.0757 17.7884C18.8251 16.9725 18.5279 16.6133 17.6679 16.0872C17.0305 15.6975 16.8114 15.3527 16.6495 14.4846C16.556 13.9841 15.9655 13.287 15.3121 12.9056C15.0333 12.7429 14.7407 12.5469 14.6618 12.4698C14.6004 12.4098 14.5508 12.3699 14.4977 12.3556L14.4296 12.2956ZM37.3086 14.0678L37.0122 14.3533C36.8493 14.5102 36.6247 14.8192 36.5134 15.0399C36.0895 15.8806 35.9519 16.01 35.1999 16.2748C34.9418 16.3657 34.6655 16.5123 34.4134 16.6788C34.3521 16.7166 34.2949 16.7565 34.2403 16.7986C33.8419 17.0896 33.5407 17.4142 33.5407 17.6092C33.5407 17.6978 33.504 17.7866 33.4592 17.8065C33.4144 17.8265 33.3029 17.9904 33.2115 18.1706C33.0413 18.5061 32.7659 18.6801 31.6592 19.1516C31.3018 19.3039 31.0568 19.4698 31.0956 19.5331C31.1388 19.6031 31.2329 19.6081 31.3478 19.5463C31.4488 19.492 31.7757 19.4128 32.0744 19.3703C32.4463 19.3172 32.7475 19.237 33.019 19.1081C33.0495 19.1035 33.0814 19.0987 33.0887 19.0987C33.0998 19.0987 33.1423 19.0639 33.2 19.012C33.2225 18.9988 33.245 18.9856 33.2672 18.9715C33.3771 18.9098 33.4767 18.8361 33.5761 18.7421C33.7367 18.6052 33.8967 18.442 34.067 18.2445C34.6712 17.5434 34.6837 17.5373 36.0923 17.2423C36.6974 17.1154 36.8028 17.0448 37.5848 16.2404C38.1854 15.6227 38.3955 15.3378 38.319 15.2444C38.2601 15.1725 38.0087 14.8784 37.7602 14.5907L37.3086 14.0678ZM2.25445 14.404C1.57762 14.404 0.735912 15.2392 0.743813 15.903C0.749597 16.3892 1.27655 17.0534 1.77556 17.2033C2.0126 17.2745 2.27979 17.3149 2.36939 17.2929C2.45899 17.2709 2.66248 17.2217 2.82148 17.1837C2.98041 17.1457 3.237 16.9719 3.39169 16.7975C3.61521 16.5453 3.67272 16.3674 3.67272 15.9295L3.67231 15.9124C3.67231 15.9042 3.6728 15.8976 3.6728 15.8891C3.6728 15.7125 3.66066 15.5845 3.62588 15.4696C3.59427 15.3186 3.54841 15.1882 3.4931 15.1036C3.28995 14.7918 2.60334 14.404 2.25445 14.404ZM12.1287 14.7315C12.1163 14.7315 12.0875 14.7567 12.0504 14.7952C12.0245 14.7931 12.0029 14.7929 11.9917 14.7972C11.8443 14.8541 11.1669 15.8676 11.1669 16.0312C11.1669 16.0349 11.1681 16.0385 11.1683 16.0421C11.1682 16.0435 11.1669 16.0464 11.1669 16.0475C11.1669 16.0548 11.1695 16.0624 11.1736 16.0703C11.2264 16.2366 11.6216 16.3836 12.4297 16.539C13.4353 16.7324 13.4289 16.7288 13.9799 17.4321C14.5167 18.1172 15.02 18.3954 16.0108 18.5545C16.7695 18.6763 16.9659 18.7714 17.247 19.1532C17.3354 19.2733 17.5733 19.5557 17.7755 19.7809C17.9778 20.0061 18.2353 20.1903 18.3478 20.1903C18.5478 20.1903 18.5478 20.1857 18.3466 19.9836C18.2335 19.8698 18.0112 19.5169 17.8525 19.1995C17.4729 18.4398 17.1968 18.1993 16.3066 17.8523C15.378 17.4904 15.2631 17.4009 14.9576 16.8012C14.5982 16.0956 14.2151 15.6142 13.8708 15.4352C13.5171 15.2514 12.8535 15.0063 12.4137 14.879C12.3621 14.8532 12.3268 14.8331 12.3127 14.8209C12.256 14.7718 12.1732 14.7315 12.1286 14.7315M39.2007 16.868C38.9757 16.8657 38.393 17.3342 38.092 17.7734C38.0447 17.8429 37.9945 17.9103 37.9415 17.9755C37.839 18.0804 37.7512 18.1663 37.6743 18.2322C37.4476 18.3933 37.1619 18.47 36.6688 18.5402C35.6992 18.6783 35.241 18.9179 34.7597 19.5385C34.2217 20.2323 33.8811 20.4191 32.8529 20.5846C32.3779 20.661 31.9406 20.7725 31.8811 20.8323C31.8095 20.9044 32.1926 20.9335 33.0201 20.9188C34.3786 20.8948 34.3084 20.9213 35.5389 19.9715C35.9405 19.6614 36.0155 19.6445 36.9888 19.6445C38.1131 19.6445 38.4469 19.5389 39.0798 18.9832C39.2889 18.7996 39.5959 18.5764 39.762 18.4872C40.0625 18.3261 40.0633 18.3231 39.8824 17.9749C39.7825 17.7822 39.6572 17.5509 39.6042 17.4608C39.5512 17.3708 39.4801 17.2146 39.4461 17.1136C39.412 17.0127 39.3197 16.9053 39.2408 16.8749C39.228 16.8702 39.2144 16.8679 39.2007 16.868ZM10.4053 17.5217C10.2872 17.5108 10.1916 17.7152 9.72187 18.7436C9.66021 18.8787 9.64058 19.02 9.67813 19.0577C9.81042 19.1908 10.6836 19.3007 11.1322 19.2409C11.7689 19.1557 12.0077 19.2397 12.7295 19.8032C13.4841 20.3922 14.0401 20.5653 14.8928 20.4764C15.6243 20.4003 16.0396 20.5383 16.6191 21.0496C16.8314 21.237 17.1434 21.4625 17.3123 21.5506C17.754 21.781 17.7655 21.6732 17.3444 21.2484C17.1426 21.0449 16.8083 20.6921 16.6014 20.4645C16.1425 19.9595 15.7679 19.7935 14.855 19.6904C14.1609 19.6121 14.1457 19.6031 13.3837 18.818C12.5802 17.9904 12.3772 17.8879 11.2212 17.7269C10.9225 17.6854 10.5959 17.6085 10.4956 17.5563C10.461 17.5383 10.4326 17.5244 10.4053 17.5217ZM20.8536 18.2251L20.8509 18.2277H20.779L19.881 19.1171L18.9883 20.0012L18.9869 20.0026L18.9831 20.0064L18.9844 20.1192L18.9829 20.1206L18.9869 20.4711V25.3022L19.0408 25.3198L19.0412 25.3443L20.1679 25.7149C21.4083 26.1229 22.1237 26.4972 23.0605 27.2283C24.2389 28.1483 24.6 28.908 24.7097 30.6988C24.7672 31.6391 24.7984 31.7632 24.9763 31.7632C25.1509 31.7632 25.1778 31.6724 25.1783 31.0808C25.1798 29.5874 25.4965 28.5658 26.1856 27.8328C27.0702 26.8919 28.1833 26.2311 29.7531 25.7149L30.8798 25.3444L30.8801 25.3213L30.934 25.3039L30.9357 22.6653L30.937 20.2393L30.9382 20.1446L30.9372 20.1437V20.1078L30.938 20.0352L30.9372 20.0344V20.0266L30.794 19.8898L30.0423 19.1302L29.1468 18.2251H24.9531H20.8536ZM0.973362 18.9894C0.934588 18.9894 0.894755 19.0212 0.852804 19.0877C0.277792 19.7509 -0.188718 23.6442 0.0762645 26.0868C0.207738 27.2989 0.523469 28.7807 0.783728 29.4069L0.939638 29.7821L1.45576 29.6258C1.73964 29.5399 1.99142 29.4503 2.01513 29.4264C2.03883 29.4025 1.92886 28.7517 1.77075 27.9801C1.52133 26.7631 1.48353 26.3163 1.485 24.6055C1.48663 22.733 1.62975 21.3615 1.93416 20.3002C1.99436 20.0904 2.04364 19.7666 2.04364 19.5805C2.04364 19.2824 1.99362 19.2274 1.62364 19.1159C1.39271 19.0463 1.12145 18.9894 1.02085 18.9894C1.01173 18.9895 1.00263 18.9905 0.993563 18.9923C0.988269 18.9917 0.976702 18.9894 0.973362 18.9894ZM49.0087 18.9894C48.908 18.9894 48.6367 19.0464 48.4059 19.1159C48.0358 19.2274 47.986 19.2824 47.986 19.5805C47.986 19.7666 48.0351 20.0904 48.0953 20.3002C48.3997 21.3614 48.5427 22.733 48.5444 24.6055C48.5459 26.3164 48.5081 26.7631 48.2587 27.9801C48.1005 28.7517 47.9919 29.4038 48.0172 29.4291C48.0424 29.4544 48.2777 29.5401 48.5403 29.6195C48.8028 29.6987 49.053 29.7447 49.0962 29.7216C49.2141 29.6585 49.5834 28.3929 49.7987 27.314C50.0925 25.8416 50.0589 22.3796 49.7362 20.8563C49.5058 19.7689 49.3377 19.2352 49.1564 19.0589C49.1218 19.0128 49.0887 18.9894 49.0562 18.9894C49.0525 18.9894 49.0399 18.992 49.0338 18.9927C49.0255 18.9915 49.0171 18.9894 49.0087 18.9894ZM24.8846 19.6617C25.0027 19.6621 25.1282 19.6723 25.2326 19.692C25.3716 19.7182 25.4593 19.7354 25.5151 19.7755C25.6039 19.8607 25.6119 20.0031 25.6121 20.3579C25.6121 20.3859 25.6116 20.4079 25.6114 20.4333C25.6112 20.47 25.6112 20.5081 25.6104 20.5401C25.6097 20.5764 25.608 20.6065 25.6064 20.6368C25.6055 20.6503 25.6053 20.6665 25.6044 20.6791C25.5845 20.9276 25.5141 20.9676 25.27 21.0531C25.1307 21.102 25.0081 21.1417 24.9511 21.1573C24.9299 21.1569 24.9087 21.1555 24.8876 21.1531C24.8602 21.1408 24.7562 21.1007 24.6074 21.0461C24.332 20.945 24.3087 20.8905 24.3087 20.3471C24.3087 20.0126 24.318 19.8639 24.3847 19.7843C24.4334 19.756 24.4931 19.7286 24.571 19.6958C24.5797 19.6922 24.5873 19.6897 24.5957 19.6863C24.6701 19.6695 24.7735 19.6611 24.8846 19.6617ZM22.3818 19.6656C22.5096 19.665 22.6402 19.6741 22.7424 19.6935C22.7884 19.7019 22.8343 19.7115 22.8799 19.7222C22.9366 19.7435 22.9822 19.7647 23.0144 19.7921C23.0628 19.8924 23.0763 20.0576 23.0917 20.3702L23.1059 20.6652C23.0873 20.9048 23.0284 20.9526 22.8526 20.9968C22.7089 21.0332 22.5256 21.0838 22.4453 21.1093C22.3651 21.1349 22.1651 21.1063 22.0009 21.0459C21.7259 20.945 21.7021 20.8899 21.7021 20.3536C21.7021 19.7916 21.714 19.7683 22.0365 19.6971C22.1285 19.6768 22.2538 19.6663 22.3818 19.6656ZM27.5392 19.6656C27.6672 19.6663 27.7925 19.6768 27.8844 19.6971C28.0221 19.7274 28.1029 19.7497 28.1506 19.8081L28.1508 19.8084C28.2131 19.8964 28.2185 20.0411 28.2187 20.3445V20.3541C28.2187 20.3792 28.2183 20.3988 28.2182 20.4217C28.2181 20.4592 28.2181 20.4983 28.2174 20.5306C28.2101 20.9042 28.1626 20.9349 27.8658 21.0246C27.64 21.0928 27.3856 21.0937 27.1598 21.0271C26.937 20.9614 26.8556 20.9259 26.8253 20.7549C26.8114 20.6686 26.8075 20.5508 26.8071 20.3845C26.8071 20.3733 26.8068 20.3651 26.8068 20.3534V20.3432C26.8069 20.1384 26.8089 20.005 26.8291 19.914C26.8516 19.8553 26.8861 19.8035 26.9309 19.7587C26.9857 19.7305 27.0645 19.7149 27.1785 19.6935C27.2807 19.6741 27.4112 19.665 27.5392 19.6656ZM40.4067 19.934C40.1391 19.9331 39.6483 20.2042 39.0892 20.6738L38.6984 21.002C38.6352 21.0313 38.569 21.0508 38.4902 21.0637H37.5065C36.4003 21.0637 36.3826 21.0679 35.8605 21.4474C34.7138 22.2808 34.76 22.2638 33.6494 22.2661C33.4955 22.2664 33.3449 22.2704 33.2038 22.277C32.9485 22.2714 32.7766 22.2857 32.6889 22.3195C32.5707 22.3356 32.4851 22.3539 32.4545 22.3738C32.332 22.4534 32.386 22.4807 32.6719 22.4836C32.881 22.4856 33.2962 22.5556 33.5949 22.6391C34.5016 22.8927 34.941 22.8504 35.7735 22.4289C36.6146 22.003 36.8346 21.9769 37.6037 22.2114C38.4278 22.4627 38.9235 22.4159 39.8352 22.001C40.2859 21.796 40.7324 21.6041 40.8274 21.5745C40.9521 21.5357 40.9864 21.4266 40.9507 21.1818C40.9235 20.9953 40.8579 20.8158 40.8051 20.783C40.7831 20.7693 40.7629 20.7319 40.7467 20.6815C40.7457 20.6745 40.7444 20.6675 40.7435 20.6605C40.7352 20.5993 40.725 20.5384 40.7128 20.4779C40.7115 20.457 40.709 20.437 40.709 20.4157C40.709 20.2464 40.6394 20.0499 40.5543 19.9789C40.5183 19.9489 40.4685 19.9342 40.4067 19.934ZM22.4696 20.2996C22.2842 20.2996 22.1994 20.3194 22.1625 20.3963C22.0953 20.4342 22.059 20.4867 22.0452 20.5595C22.024 20.6724 22.0724 20.8067 22.1529 20.8581C22.4917 21.0739 22.8969 20.9083 22.8969 20.5542C22.8969 20.3551 22.8679 20.3055 22.6552 20.3108C22.6096 20.3023 22.5499 20.2996 22.4695 20.2996M24.9094 20.2996C24.58 20.2996 24.526 20.3356 24.526 20.5544C24.526 20.6944 24.5586 20.8418 24.5984 20.8819C24.6502 20.934 24.748 20.9556 24.8555 20.9536C24.9104 20.961 24.9681 20.9526 25.0229 20.9318C25.131 20.9057 25.2305 20.8582 25.285 20.7922C25.5057 20.5249 25.3337 20.2996 24.9094 20.2996ZM27.357 20.2996C26.9623 20.2996 26.9153 20.3277 26.9153 20.5635C26.9153 20.7086 26.9765 20.8532 27.0512 20.8848C27.0734 20.8941 27.1069 20.9016 27.1445 20.908C27.2006 20.9288 27.2598 20.9399 27.3196 20.9409C27.3478 20.9458 27.3755 20.943 27.4047 20.9338C27.4264 20.9305 27.4476 20.9258 27.4683 20.9197C27.6521 20.9034 27.7252 20.8378 27.7561 20.6528C27.7605 20.6356 27.763 20.6179 27.7643 20.5997C27.7647 20.5943 27.7657 20.589 27.7659 20.5835C27.7952 20.3168 27.7656 20.2996 27.357 20.2996ZM9.11338 20.6271L9.00024 21.0365C8.93808 21.2617 8.88685 21.6547 8.88652 21.9099C8.88595 22.3736 8.88628 22.3739 9.29332 22.3728C9.51733 22.3721 9.94051 22.2984 10.2338 22.209C10.3364 22.1774 10.44 22.1489 10.5444 22.1236C10.6271 22.1138 10.7298 22.1027 10.7939 22.0943C10.9404 22.0752 11.0569 22.0669 11.1638 22.0698C11.4051 22.0987 11.6433 22.1952 11.973 22.3695C12.8144 22.8144 13.2169 22.8698 14.0782 22.6598C15.0901 22.413 15.2776 22.4313 16.1782 22.8651C16.9626 23.243 17.4662 23.3499 17.4662 23.1381C17.4662 23.0781 17.3738 23.0289 17.2609 23.0289C17.148 23.0289 16.7692 22.8176 16.4191 22.5595C16.0691 22.3014 15.7094 22.0434 15.6198 21.9864C15.5754 21.958 15.4012 21.9263 15.1565 21.8978C15.0038 21.8669 14.8417 21.8527 14.6614 21.853C14.5254 21.8428 14.3893 21.8345 14.2531 21.828C13.0726 21.7745 13.0411 21.7662 12.6311 21.4042C11.921 20.7774 11.4691 20.6322 10.2215 20.6296L9.11338 20.6271ZM26.2666 21.8523C26.383 21.8527 26.4999 21.8628 26.5895 21.8826C26.6237 21.8901 26.6529 21.8974 26.6803 21.9046C26.9041 21.9869 26.9151 22.0711 26.9153 22.5463C26.9153 22.5793 26.9149 22.6061 26.9146 22.6354C26.9144 22.6657 26.9144 22.6981 26.9138 22.725C26.9059 23.0987 26.8569 23.1372 26.5732 23.2366C26.3848 23.3027 26.2843 23.3371 26.1985 23.34C26.1769 23.339 26.1554 23.3375 26.134 23.3355C26.0552 23.3218 25.9745 23.2787 25.8293 23.1992C25.5857 23.066 25.5615 22.9938 25.5949 22.5003C25.6292 21.9936 25.6569 21.9447 25.9478 21.8805C26.0347 21.8613 26.1503 21.8519 26.2666 21.8523ZM23.6408 21.8545C23.7952 21.854 23.9539 21.8725 24.0586 21.9075C24.3306 21.9982 24.3665 22.0666 24.395 22.55C24.4038 22.6984 24.4082 22.8036 24.4036 22.8851C24.3938 22.9643 24.3778 23.0246 24.3503 23.0707C24.3009 23.1334 24.2127 23.1688 24.0614 23.2238C23.6459 23.3748 23.6981 23.3743 23.3041 23.2296C23.0979 23.1539 23.033 23.1042 23.0135 22.8569C23.0131 22.8512 23.0129 22.8437 23.0125 22.8378C23.01 22.8018 23.0081 22.7633 23.007 22.7186C23.0065 22.6996 23.0066 22.6764 23.0064 22.6556C23.006 22.6202 23.0055 22.5857 23.0055 22.5448C23.0057 22.0764 23.0183 21.988 23.2304 21.9083C23.2726 21.8977 23.32 21.8878 23.3796 21.8765C23.4568 21.8619 23.5481 21.8548 23.6408 21.8545ZM21.1066 21.8632C21.1962 21.8662 21.2876 21.8782 21.3762 21.8996C21.7432 21.9886 21.7574 22.0112 21.7887 22.5525C21.7978 22.7099 21.8022 22.82 21.7975 22.9048C21.7724 23.112 21.6976 23.1564 21.4686 23.2366C21.2923 23.2985 21.1786 23.3312 21.0717 23.3378C20.9807 23.3342 20.8864 23.299 20.6974 23.2297C20.4266 23.1302 20.3987 23.0697 20.3987 22.5805C20.3987 22.0931 20.4276 22.0298 20.6974 21.9243C20.8134 21.879 20.9573 21.8584 21.1066 21.8632ZM28.8179 21.8632C28.9088 21.8662 28.9991 21.8784 29.0875 21.8996C29.4533 21.9882 29.4688 22.0126 29.4997 22.5413C29.5308 23.0766 29.5223 23.0942 29.1662 23.2237C28.7507 23.3748 28.8027 23.3743 28.4087 23.2296C28.3288 23.2003 28.2704 23.1741 28.2272 23.1394C28.1331 23.0471 28.1112 22.9006 28.1103 22.5605C28.1112 22.0931 28.143 22.0281 28.4088 21.9243C28.5247 21.879 28.6686 21.8584 28.8179 21.8632ZM21.2545 22.3738C21.0687 22.3738 20.8566 22.7136 20.9113 22.9237C20.9748 23.1683 21.3902 23.1907 21.587 23.03C21.5918 23.0298 21.598 23.0289 21.6022 23.0289C21.6571 23.0289 21.702 22.9316 21.702 22.8127C21.702 22.7568 21.6758 22.7035 21.6331 22.6567C21.5497 22.5098 21.388 22.3738 21.2546 22.3738M28.5461 22.4159C28.4928 22.4131 28.4395 22.4214 28.3896 22.4405C28.2165 22.5073 28.1542 22.9277 28.2962 23.0703C28.3689 23.1435 28.4953 23.1561 28.6185 23.1279C28.6964 23.1226 28.7761 23.0908 28.8704 23.0304C28.9497 22.9795 28.9739 22.9061 28.9593 22.8314C28.9797 22.6171 28.769 22.4263 28.5461 22.4159ZM26.1973 22.4174C26.1191 22.4121 26.0285 22.4345 25.9301 22.4874C25.7254 22.5975 25.6489 22.9204 25.7931 23.0654C25.8329 23.1055 26.0039 23.1381 26.1732 23.1381C26.4402 23.1381 26.481 23.0964 26.481 22.8223C26.481 22.5742 26.3695 22.4289 26.1973 22.4174ZM23.7125 22.4313C23.6625 22.4316 23.61 22.4501 23.546 22.4845C23.3369 22.597 23.2579 22.9189 23.4036 23.0654C23.448 23.11 23.5311 23.1313 23.627 23.1356C23.6933 23.1566 23.7632 23.1502 23.8262 23.1227C24.0192 23.091 24.2002 23.0088 24.2002 22.9081C24.2002 22.8546 24.1013 22.7113 23.9805 22.5898C23.8714 22.4801 23.7956 22.4307 23.7125 22.4313ZM41.252 23.1092L41.1112 23.1283L41.1103 23.1174L40.9443 23.1509L40.823 23.1672C40.5871 23.199 40.0528 23.3831 39.6355 23.5765L38.9849 23.8779C38.9003 23.8871 38.8151 23.8888 38.7303 23.8832L38.084 23.6859C37.138 23.397 36.7766 23.4294 35.811 23.8889C35.0079 24.2712 34.7009 24.2997 33.9306 24.0649C33.6068 23.9661 33.2272 23.9122 32.9488 23.9072C32.9288 23.9064 32.9107 23.9064 32.893 23.9065C32.6978 23.908 32.5631 23.9361 32.5631 23.9975C32.5631 24.0499 32.7562 24.1238 32.9922 24.1618C33.2281 24.1997 33.5823 24.3245 33.7795 24.4393C34.5665 24.8972 34.9718 24.9401 35.9691 24.6707L36.7411 24.4621C36.8288 24.4618 36.9164 24.4674 37.0034 24.4789L37.7372 24.8158C38.6989 25.2574 39.3907 25.3237 40.166 25.0487C40.42 24.9586 40.7681 24.885 40.9398 24.885H41.252V23.9972V23.1092ZM10.7249 23.5107C10.4615 23.5173 10.1861 23.5733 9.86361 23.6756C9.4753 23.7987 9.04756 23.9002 8.91316 23.901C8.68206 23.9023 8.66878 23.9459 8.66878 24.703C8.66878 25.1433 8.703 25.5381 8.74495 25.5801C8.86086 25.6967 9.40907 25.549 10.1576 25.1997C10.9265 24.8408 11.1212 24.8237 11.863 25.0499C12.6948 25.3035 13.1643 25.2548 14.1363 24.8136L14.8027 24.5111C14.943 24.4735 15.0721 24.4581 15.2091 24.4642L16.0062 24.6681C16.5938 24.8184 17.0818 24.8879 17.2047 24.8389C17.3692 24.7733 17.2887 24.716 16.8145 24.5609C16.4861 24.4535 16.0555 24.2809 15.8578 24.1773C15.3215 23.8965 14.7457 23.8567 14.0709 24.0538C13.2116 24.3049 12.7933 24.2743 12.1034 23.9094C11.5696 23.6271 11.164 23.4999 10.7249 23.5107ZM27.5657 23.9359C27.6741 23.9367 27.7757 23.9627 27.8992 24.0141C28.1881 24.1345 28.2185 24.1952 28.2187 24.6588V24.6678C28.2184 25.1086 28.1804 25.195 27.942 25.3041C27.7985 25.3699 27.674 25.4053 27.5524 25.4137C27.5142 25.4143 27.4758 25.414 27.4374 25.4129C27.3155 25.403 27.1922 25.3659 27.0513 25.2976C26.8488 25.1995 26.807 25.0906 26.8069 24.6605V24.6583L26.807 24.6447C26.8074 24.1594 26.826 24.1312 27.1933 24.0093C27.3428 23.9598 27.4575 23.9352 27.5657 23.9359ZM22.3249 23.9409C22.4388 23.9421 22.5623 23.9642 22.7068 24.0074C23.095 24.1237 23.1132 24.1442 23.1139 24.6259V24.6292C23.1134 24.8609 23.1019 25.0116 23.0697 25.115C23.0262 25.2117 22.9408 25.2519 22.772 25.311C22.5733 25.3807 22.4495 25.4157 22.3345 25.4169L22.3282 25.4165C22.215 25.4165 22.1088 25.3838 21.9464 25.3183C21.7382 25.2341 21.7021 25.138 21.7021 24.6675C21.7021 24.1658 21.7294 24.1048 22.0009 24.0004C22.1068 23.9597 22.211 23.9398 22.3249 23.9409ZM24.9212 23.9489C25.0683 23.9467 25.2154 23.9636 25.3217 24.0042C25.5815 24.1035 25.6121 24.1712 25.6121 24.6463C25.6121 25.1095 25.5766 25.1937 25.3353 25.3041C25.1814 25.3747 25.0718 25.4117 24.9679 25.4183C24.9438 25.4185 24.9197 25.4189 24.8958 25.4179C24.7897 25.4093 24.6811 25.3684 24.5283 25.2907C24.2924 25.1706 24.2633 25.0933 24.2941 24.6648C24.3134 24.3958 24.3497 24.1424 24.3746 24.102C24.4311 24.0101 24.6761 23.9527 24.9212 23.9489V23.9489ZM24.9497 24.5574C24.9211 24.5574 24.8942 24.5595 24.8683 24.5623C24.8536 24.5613 24.84 24.5591 24.8247 24.5591C24.7655 24.5586 24.7232 24.5752 24.6931 24.6116C24.5419 24.6904 24.489 24.8491 24.5652 25.0487C24.5796 25.0864 24.6166 25.1177 24.6662 25.1429C24.6915 25.1882 24.7382 25.2023 24.8165 25.2009C24.8525 25.2103 24.8908 25.2127 24.9298 25.2086C25.1049 25.2226 25.287 25.1903 25.3411 25.1023C25.4913 24.8581 25.2752 24.5574 24.9497 24.5574ZM22.4209 24.5735C22.0935 24.5657 21.954 24.7521 22.0699 25.0556C22.1005 25.1358 22.1719 25.1802 22.2907 25.1935C22.3354 25.2106 22.3858 25.2144 22.4371 25.2072C22.4521 25.2117 22.4685 25.2126 22.4864 25.2098C22.5026 25.2106 22.5186 25.2125 22.5348 25.2125C22.6537 25.2125 22.7209 25.1897 22.7559 25.1265C22.8227 25.0827 22.8425 25.0119 22.8425 24.885C22.8425 24.7015 22.8027 24.6336 22.6344 24.5989C22.6 24.5847 22.5598 24.5787 22.5136 24.5808C22.5049 24.5799 22.498 24.5786 22.4888 24.5777C22.4662 24.5756 22.4435 24.5742 22.4209 24.5736M27.3083 24.5736C27.0608 24.5677 26.9212 24.6732 26.9177 24.8561C26.917 24.8635 26.9153 24.8705 26.9153 24.878C26.9153 24.9239 26.9256 24.9703 26.9424 25.0115C26.9469 25.0261 26.9516 25.0405 26.9574 25.0558C26.988 25.1358 27.0594 25.1803 27.1782 25.1936C27.2279 25.2126 27.2846 25.2155 27.3416 25.2049C27.6492 25.2169 27.8498 25.0302 27.7266 24.8061C27.7111 24.6445 27.6342 24.6028 27.3764 24.5778C27.3537 24.5756 27.331 24.5742 27.3083 24.5736ZM32.7923 25.5453C32.7119 25.5507 32.6718 25.5854 32.6719 25.6493C32.6719 25.7094 32.7384 25.7585 32.8198 25.7585C32.9012 25.7585 33.299 26.0041 33.7036 26.3043L34.4393 26.8503H35.5564C36.6685 26.8503 36.6757 26.852 37.1436 27.229C37.7372 27.7074 38.1764 27.9579 38.5911 28.0547C38.7703 28.0966 39.3157 28.1252 39.8031 28.1183C40.2668 28.1117 40.5333 28.0983 40.6963 27.9982L40.7613 27.9967L40.7748 27.9336C40.9105 27.7909 40.9491 27.5353 40.9978 27.0672L41.0657 26.4136H40.6065C40.354 26.4136 39.8332 26.4976 39.4492 26.6005L39.1565 26.6789C38.8834 26.7183 38.7085 26.7224 38.5454 26.6853L37.9362 26.3822C37.0052 25.9191 36.5364 25.8762 35.4381 26.1535L34.9051 26.288C34.7896 26.2865 34.6746 26.2724 34.5621 26.2458L33.9111 25.9352C33.3413 25.6633 32.9692 25.5334 32.7923 25.5453ZM31.4964 25.868C31.4852 25.868 31.4247 25.8857 31.339 25.9127C31.1255 25.9462 30.8284 26.0376 30.416 26.1813C29.5421 26.4859 28.1623 27.0891 28.0259 27.2262C28.007 27.2452 28.1338 27.549 28.3077 27.9015C28.4817 28.254 28.7374 28.8742 28.8759 29.2795C28.9532 29.5056 29.0416 29.7062 29.1184 29.8416L29.1934 30.0204L29.2294 29.9966C29.2435 30.0087 29.2563 30.0164 29.267 30.0164C29.3436 30.0164 29.5822 29.8396 29.7973 29.6234C30.0123 29.4072 30.2176 29.2598 30.2534 29.2958C30.2583 29.3006 30.2623 29.3063 30.2652 29.3125C30.2584 29.3239 30.2533 29.334 30.2461 29.3457L30.2415 29.3534C30.2287 29.3582 30.213 29.3614 30.1918 29.3614C30.1221 29.3614 30.0652 29.4209 30.0652 29.4936C30.0652 29.5663 29.8744 29.8244 29.6412 30.0668L29.2172 30.5077L29.3424 31.3207L29.4003 31.6962L29.4359 32.0309L29.4495 32.0149L29.4678 32.1336L29.7664 31.7763C29.9451 31.5625 30.0652 31.4844 30.0652 31.582C30.0652 31.5865 30.0641 31.5908 30.0639 31.5952C30.0266 31.668 29.9875 31.7399 29.9465 31.8107C29.8822 31.8706 29.7665 32.0126 29.6579 32.1683C29.4016 32.5357 29.3718 32.7513 29.4837 33.4318C29.5011 33.5374 29.5148 33.6137 29.529 33.6681L29.5299 33.7831L29.5593 33.747C29.5949 33.7987 29.6462 33.7585 29.7539 33.6604C29.8654 33.5591 29.9604 33.398 29.9652 33.3022C29.9657 33.2802 29.9687 33.2585 29.9742 33.2372L29.9903 33.2132C30.0004 33.2107 30.0126 33.224 30.0258 33.2565C30.0544 33.3271 29.9446 33.5971 29.7819 33.8563C29.619 34.1156 29.486 34.3853 29.486 34.4556C29.486 34.5258 29.3818 34.6311 29.2546 34.6894C29.0625 34.7774 27.9849 35.5518 27.3499 36.0582C27.2603 36.1297 27.0159 36.3058 26.8069 36.4496C26.2041 36.8643 25.775 37.3925 25.3807 38.2059C25.1794 38.6213 24.9903 38.9611 24.9604 38.9611C24.9306 38.9611 24.7414 38.6213 24.5401 38.2059C24.1013 37.3004 23.728 36.9095 22.317 35.8773C21.7275 35.446 21.1157 34.9827 20.9577 34.8477C20.5944 34.5374 20.49 34.5374 20.554 34.8475C20.5819 34.9827 20.6868 35.6703 20.7873 36.3757L20.9699 37.6583L22.0488 37.9929C23.7011 38.5054 24.0295 38.6756 24.4352 39.2298C24.5095 39.3315 24.5906 39.428 24.678 39.5186C24.7157 39.5756 24.7432 39.6223 24.7432 39.6395C24.7432 39.7433 24.8023 39.7681 24.8918 39.7327L24.8995 39.7429L24.9051 39.7366L24.9061 39.7382L24.9221 39.7191L24.9263 39.7167C24.9392 39.7217 24.9508 39.7248 24.9604 39.7248C25.05 39.7248 25.2877 39.5004 25.4885 39.2263C25.7337 38.8914 26.0189 38.6577 26.3573 38.5147C26.6344 38.3976 26.9834 38.2469 27.1328 38.1797C27.2822 38.1126 27.4418 38.0665 27.4879 38.0774C27.5338 38.0882 27.8882 37.9942 28.2752 37.8685C28.8707 37.6751 28.9819 37.5994 28.998 37.3765C29.0115 37.1886 29.0304 37.0123 29.0543 36.8243C29.0567 36.8188 29.0575 36.8127 29.0566 36.8067C29.0941 36.5158 29.1476 36.1881 29.2389 35.6937C29.4413 34.5971 29.4545 35.2709 29.2548 36.508C29.1679 37.046 29.1156 37.505 29.1385 37.528C29.2698 37.6599 30.0891 37.1991 30.5676 36.7242C31.2193 36.0775 31.3755 35.5656 31.3822 34.0561C31.393 31.6055 31.5764 27.266 31.6742 27.1468C31.7341 27.0738 31.7996 26.7994 31.8201 26.537C31.8239 26.489 31.8265 26.4438 31.828 26.4014C31.8546 26.2701 31.849 26.1934 31.8097 26.1265C31.7796 25.9953 31.7089 25.9232 31.5767 25.9042C31.5429 25.8829 31.5132 25.868 31.4965 25.868H31.4964ZM18.4918 25.8848C18.3156 25.8798 18.1958 25.9317 18.1279 26.0416C18.0422 26.1073 18.0233 26.1808 18.0622 26.2797L18.0633 26.2829C18.0585 26.364 18.0631 26.4563 18.0792 26.5628C18.1169 26.8109 18.1921 27.0709 18.2465 27.1404C18.3008 27.21 18.3919 29.0278 18.449 31.1801C18.5061 33.3323 18.6061 35.3248 18.6711 35.6077C18.8158 36.2378 19.4477 36.9953 20.0986 37.3193C20.6667 37.6019 20.8662 37.6131 20.7928 37.3586C20.7625 37.2535 20.6545 36.5044 20.5529 35.6937C20.4513 34.8831 20.314 34.1461 20.2477 34.0561C20.074 33.82 19.8557 33.4161 19.8557 33.331C19.8557 33.2945 19.9533 33.3795 20.0776 33.5193C20.1039 33.5526 20.132 33.5852 20.1607 33.6147L20.3744 33.8645L20.4514 33.1978C20.5247 32.563 20.5122 32.5104 20.1921 32.1041C19.7679 31.5658 19.7494 31.3127 20.1687 31.7845L20.4817 32.1365L20.5822 31.3221L20.6827 30.5077L20.5814 30.4043C20.5555 30.3354 20.5082 30.2968 20.4366 30.2563L20.3176 30.1348C19.7492 29.554 19.6317 29.2499 20.1376 29.6691C20.3683 29.8602 20.6113 30.0164 20.6778 30.0164C20.7847 30.0164 21.0894 29.2688 21.1006 28.9793C21.1028 28.9193 21.1292 28.8456 21.1591 28.8155C21.189 28.7856 21.3706 28.4316 21.5629 28.029L21.9124 27.297L21.6173 27.0923C21.3379 26.8986 20.2673 26.4331 19.9488 26.367C19.8678 26.3502 19.6155 26.2538 19.3883 26.1528C19.0021 25.981 18.7056 25.8911 18.4918 25.8848ZM15.3435 25.908C15.0026 25.9143 14.6786 26.0491 14.018 26.3734L13.3531 26.6998C13.2594 26.7171 13.1641 26.7244 13.0688 26.7216L12.3131 26.5424C11.251 26.2908 10.8717 26.3388 9.85913 26.8526C9.50658 27.0314 9.14238 27.1779 9.05001 27.1779C8.92293 27.1779 8.89801 27.2512 8.94802 27.478C9.00969 27.7581 9.17317 28.3659 9.27092 28.6789C9.29536 28.757 9.35116 28.8 9.43563 28.8091L9.43783 28.8165L9.45184 28.8093C9.46341 28.8101 9.47546 28.8102 9.48801 28.8098C9.49281 28.8118 9.49876 28.8155 9.5021 28.8155C9.51741 28.8155 9.54014 28.8096 9.56751 28.8002C9.84561 28.7467 10.2992 28.4793 10.8848 28.0149C11.2934 27.691 11.3437 27.6797 12.2653 27.7045C13.3045 27.7324 13.8289 27.586 14.3166 27.1317C14.9428 26.5482 15.1766 26.4681 16.2582 26.4681C16.353 26.4681 16.4399 26.4674 16.521 26.466C16.8649 26.4757 17.0619 26.4626 17.106 26.4273C17.1277 26.4238 17.1512 26.4206 17.1696 26.4167L17.1948 26.4181L17.1797 26.4137C17.269 26.3929 17.3183 26.3661 17.3299 26.3317C17.3599 26.2426 17.2627 26.1953 17.0497 26.1953C16.8704 26.1953 16.4216 26.1175 16.0523 26.0224C15.7591 25.9468 15.5482 25.9042 15.3436 25.9081L15.3435 25.908ZM32.5089 27.246L32.5877 27.341C32.5378 27.3594 32.5801 27.4572 32.7458 27.6423C32.9204 27.8385 33.0933 28.0361 33.2647 28.2351C33.6159 28.6433 34.1258 28.8679 34.9527 28.9788C35.735 29.0838 35.8512 29.1536 36.688 30.0204C37.3348 30.6902 37.4531 30.7655 38.0481 30.8861C38.4065 30.9587 38.8708 31.058 39.0798 31.1065C39.2889 31.1551 39.5089 31.1996 39.5686 31.2054C39.7485 31.2226 40.2971 29.7773 40.1622 29.6416C40.1183 29.5974 39.8688 29.5594 39.5264 29.5378C39.4848 29.5346 39.4431 29.5322 39.4013 29.5304L39.3963 29.5303C39.2528 29.5235 39.1092 29.5198 38.9656 29.5191C38.0223 29.5137 37.8466 29.4823 37.5862 29.2739C36.6504 28.5248 36.4519 28.3759 35.7138 28.3118C35.6313 28.3034 35.5486 28.2977 35.4658 28.2945C35.3469 28.2873 35.228 28.2808 35.109 28.275L33.9341 28.2166C33.9028 28.2026 33.8724 28.1868 33.8429 28.1693L33.2841 27.7356C33.0179 27.529 32.8094 27.4013 32.6871 27.3559L32.5089 27.246ZM22.1234 27.4507L22.0513 27.5702C21.8591 27.7741 21.5563 28.4472 21.3072 29.2521C21.1678 29.7025 21.053 30.1049 21.0522 30.1461C21.0512 30.1874 21.5759 30.4958 22.218 30.8316C22.8602 31.1674 23.6001 31.6359 23.8623 31.8727C24.0003 31.9974 24.1371 32.101 24.2448 32.1672C24.2704 32.1862 24.2904 32.1987 24.3002 32.1996C24.3694 32.2369 24.4206 32.2527 24.4421 32.2393C24.5047 32.2003 24.4986 32.1289 24.4268 32.0567C24.3906 32.0203 24.3584 31.9128 24.3367 31.7757C24.3312 31.6144 24.3207 31.4533 24.3052 31.2926C24.27 30.6455 23.9582 29.7223 23.5265 29.006C23.1677 28.4108 22.4146 27.5795 22.1811 27.5105L22.1234 27.4507ZM27.7621 27.5054C27.5301 27.5054 26.2637 28.9545 26.2637 29.2199C26.2637 29.2976 26.225 29.3614 26.1776 29.3614C25.9783 29.3614 25.3227 32.0911 25.4833 32.2526C25.5703 32.34 25.5706 32.3397 26.1573 31.816C26.4611 31.5447 27.1958 31.0776 27.7901 30.7779C28.3843 30.4782 28.8696 30.1964 28.8687 30.1519C28.8678 30.1075 28.7531 29.7025 28.6138 29.2521C28.3527 28.4089 28.0392 27.7238 27.8458 27.5495C27.8413 27.5456 27.8368 27.5412 27.8326 27.5377C27.8126 27.5188 27.7946 27.5064 27.7805 27.5062C27.7797 27.5062 27.7767 27.5084 27.7755 27.5087C27.7711 27.5079 27.7662 27.5055 27.7621 27.5055M16.7864 27.8533C16.4968 27.8558 16.1156 27.91 15.7861 27.9896L15.548 27.9968L15.4158 28.0995C15.2985 28.1425 15.2026 28.1884 15.1425 28.2351C14.9191 28.4094 14.6965 28.5847 14.4745 28.7609C14.0837 29.0712 14.0072 29.089 13.0217 29.0974C11.8446 29.1074 11.6267 29.1749 10.9561 29.7381C10.6936 29.9586 10.3463 30.208 10.1845 30.292L9.89033 30.445L10.2298 31.1539C10.4166 31.5439 10.6269 31.865 10.6969 31.8677C10.8497 31.8735 11.4833 31.3625 11.7051 31.0548C12.1534 30.433 12.4314 30.2555 13.0762 30.1786C14.1762 30.0476 14.6803 29.7604 15.3424 28.8877C15.3623 28.8616 15.3829 28.8361 15.4041 28.8112C15.5289 28.6882 15.6405 28.5838 15.7388 28.5015C16.0375 28.2853 16.3926 28.1605 16.7465 28.1588C16.9334 28.1579 17.1569 28.1122 17.2434 28.0573C17.3661 27.9792 17.334 27.9404 17.0973 27.8807C17.0181 27.8607 16.9108 27.8522 16.7864 27.8533ZM17.2688 29.6124C17.2305 29.6121 17.1789 29.6208 17.1134 29.6413C16.7291 29.7613 16.3114 30.0947 15.8756 30.6294C15.3815 31.2354 15.0918 31.3881 14.2843 31.4681C13.4978 31.5458 12.8079 31.9377 12.3344 32.5757C12.1403 32.8372 11.8724 33.1187 11.7392 33.2013L11.4971 33.3515L11.9852 33.9768C12.2537 34.3207 12.513 34.602 12.5614 34.602C12.7706 34.602 13.5563 33.4493 13.5563 33.1423C13.5563 33.1387 13.5577 33.1345 13.558 33.1309C13.6069 33.0435 13.6557 32.9667 13.7072 32.8991C13.9147 32.6998 14.3067 32.4731 14.695 32.35C15.4985 32.0954 15.9499 31.6947 16.3776 30.8566C16.5891 30.442 16.8626 30.0799 17.0466 29.9707C17.3491 29.791 17.4348 29.614 17.2688 29.6124ZM32.6302 29.9484C32.6078 29.9481 32.5907 29.9526 32.5809 29.9626C32.4554 30.0891 33.0729 30.5342 33.7017 30.7708C34.5859 31.1033 34.7953 31.2754 35.0555 31.8832C35.4001 32.6884 35.9838 33.2194 36.8388 33.5053C37.1843 33.6209 37.4964 33.7529 37.5918 33.8212C37.6056 33.8315 37.6151 33.8401 37.6193 33.847C37.6599 33.9124 37.7097 33.9451 37.7687 33.9452C37.7717 33.9454 37.775 33.9469 37.7779 33.9469C37.7805 33.9469 37.7847 33.9442 37.7878 33.9434C37.9147 33.9297 38.0799 33.7757 38.2776 33.483C38.4501 33.2278 38.6277 33.0026 38.6725 32.9826C38.7173 32.9625 38.754 32.8806 38.754 32.8005C38.754 32.6098 37.991 32.3399 37.2083 32.2536C36.7023 32.1979 36.5296 32.1234 36.2851 31.8554C35.1514 30.6129 35.0222 30.5307 33.9373 30.3618C33.5282 30.2982 33.0719 30.1659 32.9232 30.068C32.8117 29.9946 32.6972 29.9495 32.6302 29.9485M20.9599 30.752C20.9404 30.7501 20.9263 30.7528 20.9185 30.7607C20.877 30.8025 20.8369 31.012 20.8142 31.2766C20.8014 31.3759 20.7888 31.4908 20.7737 31.624L20.7017 32.2638L20.7796 32.3046L20.779 32.3325L21.9194 32.928C23.2535 33.6244 24.0916 34.1482 24.0916 34.2859C24.0916 34.3397 24.1404 34.3838 24.2002 34.3838C24.2795 34.3838 24.3117 34.3178 24.3074 34.2087C24.308 34.2035 24.3089 34.1985 24.3089 34.1926C24.3089 34.1902 24.3067 34.1833 24.3056 34.1789L24.3055 34.1786V34.1781C24.3055 34.1595 24.3028 34.1401 24.2964 34.1203C24.2281 33.7129 23.8153 32.9253 23.3558 32.4456C22.7905 31.8553 21.2532 30.7801 20.9598 30.7519L20.9599 30.752ZM28.9655 30.7532C28.7048 30.7815 27.2973 31.7306 26.6146 32.3526C26.2389 32.6947 25.4644 34.1226 25.5654 34.2869C25.6538 34.4307 25.7074 34.4093 25.9703 34.1256C26.1019 33.9837 26.8693 33.5215 27.6757 33.0988L29.142 32.3301L29.1415 32.3085L29.2196 32.2681L29.2062 32.1489L29.2105 32.1467L29.197 32.067L29.1455 31.6093C29.1359 31.525 29.1249 31.4408 29.1126 31.3568C29.0916 31.0549 29.0477 30.8063 29.0018 30.7601C28.9951 30.7535 28.983 30.7512 28.9655 30.7532ZM47.702 31.2181C47.5925 31.2176 47.2309 32.0014 47.222 32.2585C47.2212 32.281 47.2032 32.3365 47.1786 32.4037C47.1485 32.4406 47.1274 32.4955 47.1207 32.5497C47.0854 32.6343 47.048 32.718 47.0085 32.8006C46.893 33.0409 46.7968 33.3233 46.7948 33.4283C46.7947 33.4344 46.794 33.4401 46.7935 33.4459C46.7714 33.496 46.745 33.5533 46.721 33.6067C46.7097 33.6146 46.6964 33.6191 46.6826 33.6195C46.6229 33.6195 46.574 33.6758 46.574 33.7446C46.574 34.327 44.3502 38.0015 43.2138 39.2968C43.0463 39.4877 42.8785 39.6784 42.7106 39.869C42.5465 40.0552 42.468 40.1528 42.4634 40.241L42.4603 40.2445L42.463 40.2473C42.4621 40.3248 42.5184 40.3965 42.6264 40.5164C42.754 40.6581 42.8459 40.7388 42.9855 40.695C43.033 40.6964 43.0802 40.6677 43.1405 40.609C43.3918 40.4245 43.7893 39.9562 44.5647 39.0227C45.0391 38.4516 45.2028 38.2262 45.754 37.3861C46.6576 36.0088 47.6601 34.1669 47.6601 33.8837C47.6601 33.8731 47.6608 33.8628 47.6622 33.8528V33.8527C47.6768 33.8202 47.6914 33.7878 47.7058 33.7554L47.7059 33.7552C47.7225 33.7385 47.7423 33.7287 47.7638 33.7287C47.8208 33.7287 47.8995 33.5567 47.9387 33.3465C47.978 33.1363 48.0535 32.9644 48.1065 32.9644C48.1596 32.9644 48.2035 32.8784 48.2038 32.7733C48.2042 32.6682 48.2699 32.4562 48.35 32.3021C48.4301 32.148 48.5276 31.8925 48.5672 31.7343C48.6323 31.4734 48.601 31.436 48.231 31.3326C48.0066 31.27 47.7686 31.2185 47.702 31.2181ZM17.6514 31.2185C17.6147 31.2185 17.5738 31.2252 17.5292 31.2346C17.5225 31.2352 17.5157 31.2353 17.5089 31.2361L17.1948 31.2722V31.3172L17.1404 31.3309V35.3732C17.1404 37.4731 17.1552 38.687 17.226 39.5029C17.2471 40.1744 17.2801 40.4635 17.3305 40.5142C17.4052 40.5892 17.4663 40.7418 17.4663 40.8532C17.4663 41.1547 18.0723 42.3269 18.5729 42.9939C19.7432 44.5529 21.3135 45.5593 23.2004 45.9593C23.2367 45.9669 23.2763 45.9743 23.3147 45.9818C23.4511 46.013 23.5887 46.0424 23.7288 46.068C23.8748 46.0947 24.0522 46.1126 24.2497 46.1226C24.4873 46.1488 24.7065 46.1656 24.867 46.1674C25.7149 46.1764 27.1431 45.9222 27.9503 45.6186C28.4804 45.4193 29.7052 44.6908 30.0108 44.3933C30.0836 44.3223 30.3189 44.1055 30.5337 43.9114C31.323 43.1979 32.4545 41.3963 32.4545 40.8532C32.4545 40.7418 32.5157 40.5892 32.5904 40.5142C32.6438 40.4605 32.6778 40.1411 32.6986 39.3791C32.7447 38.8408 32.7637 38.1104 32.7721 37.0754C32.7947 35.8794 32.7976 34.5375 32.7795 33.4459L32.7804 31.3309L32.7261 31.3173V31.2723L32.5169 31.2519C32.4659 31.228 32.409 31.2199 32.3534 31.2285C32.2986 31.2194 32.2494 31.2161 32.2075 31.2267C32.0921 31.2216 32.0058 31.225 31.997 31.238C31.9934 31.2433 31.9871 31.42 31.9796 31.68C31.9576 31.8315 31.9428 32.0774 31.9325 32.4298C31.9301 32.5029 31.9281 32.5842 31.9262 32.666C31.9254 32.7086 31.9242 32.7446 31.9235 32.7902C31.9208 32.9306 31.9197 33.1133 31.918 33.2787C31.9172 33.385 31.916 33.4907 31.9154 33.6099C31.9133 33.9771 31.912 34.4044 31.9119 34.8901C31.9094 35.0289 31.9071 35.1147 31.9047 35.2571C31.8375 39.1335 31.7674 39.9733 31.4368 40.8797C30.6163 43.129 28.5967 44.7382 26.0709 45.155C25.0315 45.3265 24.8895 45.3265 23.85 45.155C22.6339 44.9543 21.7004 44.5743 20.7928 43.9106C20.0747 43.3855 19.9895 43.3 19.4055 42.5174C18.7816 41.6814 18.5007 41.0838 18.228 40.012C18.0799 39.4298 18.0311 39.039 18.0151 37.4354C18.011 36.9063 18.0094 36.2781 18.0094 35.4956C18.0094 35.3769 18.0091 35.2946 18.0091 35.1823C18.0091 34.8453 18.0088 34.5135 18.0083 34.2366C18.008 34.1297 18.0075 34.0224 18.0071 33.9227C18.0035 32.705 17.9917 32.083 17.9529 31.7742C17.9411 31.5257 17.9282 31.3671 17.9144 31.3453C17.8912 31.3085 17.8426 31.2793 17.7809 31.2594C17.744 31.2303 17.7013 31.2185 17.6514 31.2185ZM2.21576 31.242C2.20623 31.2421 2.19197 31.2442 2.18138 31.2447C2.1242 31.2392 2.04339 31.2516 1.95566 31.2735C1.88219 31.2869 1.8057 31.3029 1.72815 31.3239C1.31573 31.4355 1.28665 31.4676 1.35059 31.7406C1.38872 31.9033 1.46244 32.0831 1.51449 32.1402C1.56646 32.1972 1.60914 32.3127 1.60914 32.3967C1.60914 32.7062 2.74141 35.0667 3.46199 36.2591C3.68901 36.6343 3.91519 37.0099 4.14053 37.3861C4.21181 37.5062 4.29457 37.6291 4.32446 37.6591C4.35436 37.6891 4.4987 37.8856 4.64541 38.0957C4.79203 38.3059 4.95185 38.527 5.00048 38.587L5.3088 38.9692C5.42985 39.1194 5.80773 39.5707 6.14847 39.9723C6.48929 40.3739 6.82922 40.7055 6.90391 40.7093C6.90571 40.7093 6.90815 40.7087 6.91011 40.7086C6.9145 40.7115 6.92045 40.716 6.92232 40.716C6.92925 40.716 6.94326 40.7088 6.96224 40.6965C7.13403 40.631 7.47412 40.3245 7.47412 40.2164C7.47412 40.1817 7.33971 40.0113 7.17549 39.8377C6.8069 39.4481 6.79997 39.4395 5.99883 38.3687C4.91047 36.9141 3.34697 34.21 3.34697 33.7822C3.34697 33.6927 3.29809 33.6195 3.2383 33.6195C3.22792 33.6191 3.21773 33.6165 3.20841 33.6119C3.18071 33.5478 3.15383 33.4834 3.12679 33.4189C3.11261 33.3049 3.02887 33.0514 2.92754 32.8219C2.81643 32.57 2.65751 32.1244 2.5745 31.8316C2.4915 31.5388 2.36768 31.2776 2.29934 31.2511C2.28223 31.2445 2.25331 31.2416 2.21576 31.242ZM29.3049 32.73L29.2478 32.7712C29.2468 32.7688 29.2455 32.7639 29.2446 32.7629C29.2433 32.7614 29.2378 32.7632 29.2301 32.7667C29.2193 32.7544 29.2083 32.7461 29.1969 32.7461C29.1459 32.7461 28.9662 32.8597 28.7973 32.9985C28.6285 33.1372 28.0503 33.5659 27.5127 33.951C26.9751 34.3362 26.372 34.8239 26.1724 35.0347C25.7913 35.4372 25.3778 36.1863 25.4798 36.2889C25.5611 36.3706 25.5433 36.3791 25.8638 36.1033C26.0207 35.9682 26.8343 35.4949 27.6716 35.0515C28.5088 34.6081 29.2488 34.1786 29.3162 34.097C29.3386 34.0699 29.354 34.0143 29.3645 33.9433C29.399 33.8563 29.3952 33.7607 29.3801 33.6358C29.377 33.4186 29.352 33.1733 29.3134 32.9945L29.3049 32.73ZM20.7241 32.7461C20.7167 32.7461 20.7086 32.7537 20.7002 32.7649C20.6864 32.7608 20.6753 32.7592 20.6711 32.7634C20.6633 32.7712 20.6539 32.8279 20.6441 32.9026C20.6105 33.0165 20.5775 33.1815 20.5545 33.3666C20.5078 33.742 20.4968 33.8966 20.5659 34.0158L20.5617 34.0941L20.7289 34.185C20.7405 34.1944 20.7499 34.2028 20.7626 34.2129C20.9195 34.3369 21.6611 34.7576 22.4103 35.148C23.1596 35.5383 23.8998 35.9671 24.055 36.1009C24.498 36.4829 24.5512 36.2846 24.1727 35.6625C23.7142 34.9088 23.6611 34.857 22.4624 33.9968C21.8949 33.5895 21.2924 33.1415 21.1236 33.0012C20.9547 32.8609 20.7749 32.7461 20.7241 32.7461ZM33.2963 32.7463C33.1733 32.7459 33.1979 32.9477 33.3674 33.3301C33.4513 33.5192 33.5473 33.8667 33.5808 34.102C33.6142 34.3373 33.6835 34.5584 33.7348 34.5933C33.7861 34.6282 33.8594 34.7427 33.898 34.8475C33.9366 34.9525 34.1978 35.1982 34.4786 35.3934C34.7594 35.5886 35.1152 35.8575 35.2695 35.9907C35.639 36.3099 35.6921 36.3019 36.2016 35.8518L36.6361 35.468L36.3645 35.2559C36.2152 35.1392 35.7753 34.9384 35.387 34.8096C34.715 34.5864 34.0837 34.1467 34.0837 33.9016C34.0837 33.7498 33.4 32.7465 33.2963 32.7463ZM16.7041 33.6404C16.6579 33.6414 16.5953 33.6511 16.516 33.6711C15.772 33.8586 15.1474 34.2202 14.8466 34.6376C14.6745 34.8763 14.5338 35.1308 14.5338 35.2031C14.5338 35.2754 14.4117 35.467 14.2623 35.629C14.1402 35.7614 14.0625 35.8535 14.0302 35.9321L13.9672 36.0033L14.0185 36.0503C14.0419 36.1444 14.1476 36.2389 14.3438 36.3944C14.4526 36.4806 14.5664 36.5553 14.6608 36.607C14.7148 36.6451 14.7591 36.6726 14.7757 36.6733C14.783 36.6736 14.7908 36.6717 14.7985 36.6696C14.8071 36.672 14.8138 36.6729 14.8206 36.6737C14.8214 36.6739 14.8251 36.6765 14.8255 36.6765C14.8266 36.6765 14.8279 36.6753 14.829 36.6751L14.8304 36.6753C15.0188 36.6769 15.3612 35.9451 15.432 35.3896C15.5037 34.8277 15.8864 34.2907 16.4217 34.0009C16.7992 33.7966 16.9048 33.6362 16.7041 33.6404ZM30.7773 37.6572C30.6898 37.656 30.5578 37.7586 30.3638 37.9302C30.1247 38.1418 30.0707 38.2729 30.0662 38.6811C30.0502 38.835 30.0366 38.9891 30.0254 39.1434C30.0224 39.1823 30.0187 39.2173 30.0154 39.2548C30.0032 39.2995 29.9896 39.3308 29.9751 39.3398C29.9348 39.3649 29.9167 39.2037 29.9255 38.967C29.9548 38.8324 29.9619 38.6467 29.9455 38.5074C29.9439 38.3282 29.9235 38.2055 29.8884 38.2058C29.753 38.207 29.522 38.746 29.522 39.0609C29.522 39.4817 29.1074 40.2069 28.7103 40.4804C28.5106 40.618 27.7685 40.8947 27.0611 41.0952C25.3936 41.568 25.3939 41.5677 25.3268 41.9034C25.2953 42.061 25.2 42.2854 25.115 42.402C24.9621 42.6117 24.9588 42.6117 24.8059 42.402C24.7209 42.2854 24.6256 42.061 24.5941 41.9034C24.5273 41.5685 24.5234 41.5669 22.8937 41.1048C21.5119 40.7129 21.1955 40.5737 20.9167 40.2349L20.6357 39.8936C20.6296 39.8859 20.624 39.8778 20.6189 39.8694L20.6114 39.8568C20.5626 39.7729 20.5013 39.6087 20.4648 39.4568C20.2457 38.5472 20.1637 38.3142 20.0629 38.3142C20.0022 38.3142 19.7964 38.167 19.6055 37.9871C19.3386 37.7357 19.18 37.6091 19.0909 37.675C19.0766 37.6686 19.0643 37.664 19.0562 37.6636C19.0352 37.6626 19.0191 37.7533 19.0086 37.9012C18.9863 38.0777 18.9889 38.3715 19.0021 38.7761C19.0025 38.7959 19.0022 38.8126 19.003 38.8327C19.0043 38.8695 19.0056 38.8986 19.0069 38.9334C19.0083 38.9698 19.0088 38.9964 19.0102 39.0345C19.0122 39.0829 19.0146 39.1293 19.0168 39.1767C19.0491 39.8703 19.1164 40.4446 19.1732 40.4812C19.2338 40.5204 19.314 40.6506 19.3512 40.7707C19.5078 41.2748 20.4356 41.9378 21.8107 42.5279C23.1413 43.0988 23.9733 43.2696 24.146 43.0077L24.2495 43.0087L24.1614 42.9201C24.1132 42.6974 23.5134 42.3192 22.6256 41.965C21.3656 41.4625 20.5428 40.9638 20.2943 40.5522C20.1245 40.2709 19.9606 39.6738 19.8976 39.1768C19.8891 39.0704 19.8807 38.9746 19.8728 38.8902C19.8701 38.8329 19.8698 38.7755 19.872 38.7182L19.8882 38.3687L19.9337 38.6962C20.0938 39.8497 20.5538 40.6596 21.2666 41.043C21.4289 41.1304 23.1572 41.6786 23.8026 41.8568C23.9261 41.9173 24.0226 41.9784 24.0968 42.0427C24.1142 42.1089 24.1334 42.1942 24.1512 42.2897C24.3565 43.3897 25.5639 43.3919 25.769 42.2927C25.8005 42.1245 25.8342 42.0272 25.9152 41.9572C25.9624 41.9269 26.0113 41.8992 26.0615 41.8742C26.1235 41.8494 26.1994 41.8261 26.2952 41.8005C27.4194 41.4991 28.1798 41.2384 28.7027 40.9502C28.7194 40.9415 28.7397 40.932 28.7519 40.9245C28.7639 40.9172 28.7763 40.9081 28.7885 40.9C29.2487 40.6293 29.5127 40.3317 29.6756 39.9518L29.8394 39.5696L29.8429 39.8971C29.8508 40.6315 29.1507 41.2113 27.4027 41.9175C26.424 42.313 25.8297 42.6782 25.7678 42.9118L25.6714 43.0087H25.7757C25.7769 43.0109 25.7777 43.0132 25.779 43.0153L25.7807 43.0176L25.775 43.0228L25.784 43.022C26.1015 43.4731 29.3102 42.2189 30.1467 41.312C30.4005 41.0368 30.6082 40.745 30.6082 40.6636C30.6082 40.5824 30.6642 40.4971 30.7326 40.4742C30.8059 40.4496 30.8636 40.0335 30.8995 39.2851C30.951 38.5908 30.9485 37.6591 30.8628 37.6591C30.8555 37.6591 30.8419 37.6643 30.8255 37.6719C30.8112 37.6624 30.7945 37.6573 30.7773 37.6571V37.6572ZM20.5837 38.5325C20.5633 38.5325 20.5586 38.5683 20.5655 38.6266C20.5459 38.6831 20.559 38.7694 20.5819 38.8873C20.6749 39.3654 20.7985 39.6213 21.2518 39.8641C21.2988 39.891 21.3532 39.9172 21.4117 39.9431C21.7337 40.0906 22.188 40.2415 22.8493 40.443C23.5271 40.6496 23.9175 40.7789 24.1395 40.8925C24.2669 40.975 24.3398 41.0602 24.4089 41.1707C24.4145 41.1979 24.4174 41.2263 24.4174 41.2572C24.4174 41.3599 24.45 41.4767 24.4898 41.5168C24.5204 41.5475 24.6552 41.5736 24.8173 41.5843C24.8728 41.6056 24.9331 41.6105 24.9913 41.5983C25.0077 41.5962 25.024 41.5929 25.0401 41.5884C25.3371 41.5827 25.3898 41.5337 25.4478 41.2683C25.5258 40.9113 25.58 40.8859 27.5529 40.281C28.2326 40.0725 28.7781 39.8362 28.9287 39.6848C29.1617 39.4506 29.4332 38.7331 29.3634 38.5648C29.363 38.5598 29.3624 38.5547 29.3607 38.5529C29.3599 38.5522 29.3573 38.5521 29.3559 38.5517C29.3539 38.5487 29.3527 38.5442 29.3502 38.5418C29.2836 38.4749 27.1372 39.028 26.6191 39.2456C26.4263 39.3267 26.1114 39.6168 25.9194 39.8906C25.5774 40.3784 25.5581 40.3884 24.9752 40.3884C24.6029 40.3884 24.3117 40.3128 24.1435 40.1828C24.0969 40.1386 24.0552 40.0894 24.019 40.0362C23.9953 39.9896 23.983 39.9381 23.9829 39.8858C23.9829 39.7404 23.8035 39.571 23.484 39.3976C23.4726 39.3898 23.4606 39.381 23.4496 39.3746C23.4315 39.3637 23.398 39.3489 23.3576 39.3325C23.0355 39.1741 22.6017 39.0146 22.0823 38.869C21.2751 38.6426 20.88 38.536 20.6972 38.549C20.6469 38.5393 20.6049 38.5325 20.5836 38.5325M41.2056 41.5425C41.101 41.5493 40.989 41.634 40.8176 41.8084C39.5005 43.1488 35.4452 45.691 33.7732 46.2245C33.645 46.2655 33.5549 46.3739 33.543 46.4951C33.5426 46.4971 33.5405 46.4996 33.5405 46.5015C33.5405 46.5048 33.5413 46.5075 33.5416 46.5105C33.5414 46.5143 33.5406 46.5179 33.5406 46.5217L33.5408 46.5258L33.5406 46.5263L33.5409 46.5282C33.5411 46.5412 33.5418 46.5541 33.5431 46.567C33.5425 46.5697 33.5407 46.5728 33.5407 46.5752C33.5407 46.6411 33.5586 46.6797 33.6303 46.6821C33.7857 46.7227 34.1872 46.572 35.1588 46.1564C37.3106 45.2358 39.1944 44.082 41.2791 42.4078C41.7476 42.0316 41.7723 41.9302 41.4607 41.6621C41.3639 41.5788 41.287 41.5371 41.2056 41.5425ZM8.6397 41.5605C8.57739 41.5645 8.52762 41.6038 8.45903 41.6629C8.14851 41.9301 8.17344 42.0318 8.64166 42.4078C10.8644 44.1928 12.9409 45.4345 15.294 46.3856C15.8166 46.5968 16.0915 46.6966 16.234 46.7009C16.2661 46.7113 16.2911 46.7187 16.2987 46.7188C16.3227 46.7194 16.3438 46.6906 16.3587 46.6462C16.368 46.627 16.3739 46.6063 16.376 46.585C16.3886 46.5738 16.3897 46.559 16.3795 46.5405C16.3797 46.5344 16.3802 46.5289 16.3802 46.5225C16.3802 46.5192 16.3796 46.5162 16.3794 46.513C16.3794 46.5093 16.3802 46.5062 16.3802 46.5024C16.3802 46.3824 16.3188 46.284 16.244 46.284C16.2282 46.284 16.1984 46.2765 16.1624 46.2655C16.0635 46.2048 15.9304 46.1403 15.7556 46.0687C15.0087 45.7631 13.3674 44.9028 12.3732 44.2961C11.5274 43.78 10.7886 43.2304 9.5724 42.2129C8.97572 41.7136 8.77696 41.5517 8.6397 41.5605ZM32.0572 46.9583C32.0328 46.9596 32.0086 46.9631 31.9849 46.9688C31.8549 46.9975 31.2656 47.1502 30.6754 47.3082C27.4615 48.1683 22.4591 48.1683 19.2452 47.3082C17.5966 46.867 17.7231 46.8689 17.5887 47.2836C17.5235 47.4845 17.4524 47.7471 17.4305 47.8671C17.4086 47.9871 17.3344 48.2238 17.2655 48.3928C17.1967 48.5618 17.1403 48.7228 17.1403 48.7504C17.1403 48.9272 19.1341 49.4249 21.049 49.7261C21.2795 49.7624 21.5179 49.7941 21.7599 49.8232C22.0171 49.8648 22.2557 49.9001 22.4623 49.9259C22.519 49.9329 22.6665 49.9383 22.8629 49.9423C22.9753 49.9509 23.1062 49.9579 23.2517 49.9636C23.3708 49.9934 23.7237 50.0009 24.2038 49.9916C25.4363 50.0198 26.7007 49.9699 27.8818 49.8405C28.278 49.8049 28.6263 49.7569 28.988 49.6924C31.3761 49.3235 32.8491 48.9145 32.7457 48.6438C32.7146 48.5621 32.5839 48.1402 32.4553 47.7061C32.2725 47.0895 32.2111 46.9518 32.0572 46.9583Z" fill="#FFADAA"/>
</g>
<defs>
<clipPath id="clip0_437_1273">
<rect width="50" height="50" fill="white"/>
</clipPath>
</defs>
</svg>
