<svg width="50" height="41" viewBox="0 0 50 41" fill="none" xmlns="http://www.w3.org/2000/svg">
<g clip-path="url(#clip0_437_1281)">
<path d="M23.3607 0V0.168913L23.3603 0.746L23.3361 14.936L23.3107 29.8673L22.5602 30.4491C20.6979 31.8927 18.5237 33.1634 17.0565 33.666C14.9223 34.3968 10.3608 34.71 8.62466 34.2479C8.61445 34.2451 8.60424 34.2429 8.59404 34.2401C7.71205 33.9965 5.7094 33.0398 4.85153 32.4516C3.52524 31.5423 2.24778 29.2758 2.07016 27.6134C2.05037 27.2858 2.05465 26.9573 2.08297 26.6303C2.19575 25.5996 2.58241 24.6536 3.12417 24.1407L3.4732 23.8101L3.28758 23.4651C3.20052 23.3035 3.10566 23.168 3.05673 23.1311L3.04172 23.1063L3.0157 23.1282C2.94245 23.1655 2.69999 23.3607 2.43711 23.5957C1.29034 24.6211 0.634003 25.5114 0.295876 26.5631C0.293274 26.5709 0.289972 26.5788 0.287471 26.5866C0.285569 26.5923 0.284268 26.598 0.282467 26.6037C0.27226 26.6362 0.262387 26.6689 0.252847 26.7017C0.243041 26.7356 0.233534 26.7703 0.224829 26.8048C0.139371 27.1205 0.0790309 27.4514 0.0421061 27.8066C-0.0349455 28.5501 -0.00692673 29.2454 0.131766 29.909C0.163387 30.1851 0.223728 30.3722 0.332301 30.6352C0.680334 31.6423 1.30655 32.5855 2.23518 33.5262C5.65747 36.9926 12.6193 39.3798 21.2092 40.0322C21.519 40.0557 22.0688 40.0695 22.7133 40.0778C23.3081 40.0984 24.2633 40.0966 25.3178 40.0789C26.1439 40.0714 26.9589 40.0575 27.7122 40.0386L27.7748 40.0419L27.774 40.0371C28.8045 40.0106 29.686 39.9758 30.1152 39.9328C40.5827 38.8827 48.0825 35.2826 49.7484 30.5086C49.97 29.8738 50.004 29.6124 49.9996 28.5739C49.9918 26.7241 49.5599 25.6146 48.2847 24.2911C48.0777 24.0679 47.8596 23.8552 47.6312 23.6538C47.2966 23.3427 47.0368 23.1203 47.0028 23.1203C47.0021 23.1203 47.0009 23.1212 47.0001 23.1213L46.9821 23.1063L46.9573 23.1469C46.9003 23.1987 46.8138 23.3208 46.7376 23.4623L46.5535 23.8046L46.9145 24.1655C47.3841 24.6352 47.6587 25.186 47.8329 26.0077C47.9245 26.4398 47.972 26.8345 47.9716 27.2181V27.2199C47.971 27.3013 47.9674 27.3812 47.9646 27.4617C47.9229 28.2189 47.6874 28.9543 47.2252 29.8748C46.6673 30.9859 45.8936 31.9569 45.1721 32.4515C44.312 33.0413 42.3007 34.0017 41.4223 34.2422C40.7396 34.4292 40.3656 34.4611 38.871 34.4597C37.6679 34.4587 36.8066 34.4038 36.1192 34.2846C35.5688 34.1892 34.8708 34.072 34.5681 34.0241C32.6785 33.7246 29.7055 32.1639 27.4384 30.2812L26.8127 29.7616L26.7875 14.9873L26.7629 0.451002V0.00480322H23.6598L23.3607 0ZM28.3641 3.89831V16.5787C28.3641 23.535 28.3849 29.2245 28.4101 29.2245C28.4111 29.2245 28.4241 29.2172 28.4276 29.2157C28.4279 29.2165 28.4283 29.2245 28.4286 29.2245C28.5619 29.2245 30.9363 27.7655 32.5037 26.757C33.1721 26.3443 33.7075 26.0098 33.7517 25.9694C33.762 25.96 33.7687 25.9376 33.7734 25.9076C33.8294 25.8645 33.8683 25.8318 33.8686 25.8222C33.8712 25.7396 32.9396 20.775 31.7985 14.7898L29.7236 3.90752H28.5732L28.3641 3.89831ZM21.0092 3.90752C21.0023 3.90752 20.9967 3.90792 20.99 3.90792C20.7552 3.90872 20.6073 3.91472 20.5139 3.93564C20.4216 3.94865 20.3588 3.96466 20.3588 3.98257C20.3588 3.98377 20.3412 4.07643 20.3396 4.08594C20.3348 4.10085 20.3301 4.11516 20.3259 4.13267C20.2197 4.57056 16.2672 25.3759 16.2369 25.6567C16.2309 25.7122 16.232 25.7604 16.2569 25.8142L16.2559 25.8204C16.2559 25.8225 16.2639 25.8294 16.2671 25.8334C16.3852 26.0436 16.8959 26.3662 18.8577 27.5732C20.218 28.4101 21.3837 29.1008 21.5919 29.1956C21.5939 29.1966 21.6342 29.2211 21.6346 29.2212V29.2145C21.734 29.2224 21.7597 26.6313 21.7597 16.566V3.90752H21.0702H21.0092ZM13.1969 7.72708C13.1829 7.70897 12.6299 8.0571 11.968 8.5006C10.7897 9.29002 10.7652 9.31384 10.8105 9.63416C10.836 9.81418 10.9886 11.2627 11.1496 12.8531C11.2413 13.7587 11.3325 14.5479 11.4045 15.096C11.4473 15.4879 11.4806 15.7758 11.4868 15.7821L11.5141 15.7991C11.5173 15.8091 11.5203 15.8167 11.5227 15.819C11.5669 15.8597 12.66 16.5515 13.9519 17.3563C15.2331 18.1545 15.8416 18.5191 16.127 18.6381C16.2053 18.6835 16.2607 18.7144 16.2673 18.7146C16.2718 18.7148 16.2776 18.7076 16.2843 18.6949C16.3383 18.7086 16.356 18.6947 16.356 18.6633L16.3591 18.648C16.3598 18.6463 16.3612 18.6452 16.3619 18.6434C16.3955 18.5464 16.6175 17.5592 16.8554 16.4495L17.288 14.432L15.2551 11.0959C14.1371 9.26111 13.2108 7.74519 13.1969 7.72708ZM36.8729 7.78552C36.8677 7.78478 36.8644 7.78522 36.8629 7.78682C36.6347 8.05019 34.2207 12.0831 33.2577 13.7733L33.2346 13.8128L32.8536 14.4374L32.864 14.4868C32.8515 14.5136 32.843 14.5341 32.8433 14.5398C32.855 14.7193 33.6473 18.4611 33.7239 18.6986C33.7487 18.7754 33.8187 18.7981 33.8922 18.753C34.3065 18.499 38.6234 15.7929 38.6341 15.7805C38.6682 15.7414 39.0955 11.3671 39.2235 9.83489L39.2767 9.31544L39.262 9.30564C39.262 9.29683 39.2633 9.27491 39.2624 9.27421C38.9334 8.99032 37.0336 7.81023 36.873 7.78552H36.8729ZM3.7603 12.3226L2.2779 13.9261C1.46266 14.8081 0.780501 15.5719 0.761988 15.6233C0.761288 15.6253 0.767292 15.6395 0.775297 15.6573L0.758086 15.6785L0.796111 15.7473C0.795264 15.7657 0.799559 15.7841 0.80852 15.8003C0.829834 15.8359 1.26933 16.6361 1.72413 17.4644C3.51363 20.8096 7.25724 27.6898 8.12612 29.2009L8.37139 29.6275L8.88643 29.3328C9.16962 29.1706 10.6397 28.3195 12.1532 27.4416L14.9051 25.8456L15.4662 22.957C15.7747 21.3682 15.9999 20.0409 15.9666 20.0075C15.9333 19.9741 13.4741 18.424 10.5021 16.5627C7.53012 14.7014 4.79729 12.9857 4.42935 12.7503L3.7603 12.3226ZM46.3124 12.3718L43.3583 14.2269C39.8059 16.4141 34.3073 19.8481 34.1428 20.0064C34.1335 20.0152 34.1384 20.0905 34.1498 20.1957C34.1449 20.2147 34.1428 20.2331 34.145 20.2505C34.147 20.2671 34.1811 20.4496 34.1913 20.508C34.3986 21.9001 35.1515 25.745 35.2646 25.8581C35.3192 25.9128 36.7723 26.7785 38.4936 27.7823C40.2148 28.7861 41.647 29.6111 41.6763 29.6159C41.7177 29.6226 49.2264 16.0262 49.3596 15.7033C49.3611 15.6995 49.356 15.6888 49.348 15.6751L49.3535 15.6654L49.2896 15.594C48.9377 15.1327 47.2329 13.2897 46.5828 12.6591L46.3124 12.3718Z" fill="#EBD28E"/>
</g>
<defs>
<clipPath id="clip0_437_1281">
<rect width="50" height="40.0932" fill="white"/>
</clipPath>
</defs>
</svg>
