<svg width="70" height="65" viewBox="0 0 70 65" fill="none" xmlns="http://www.w3.org/2000/svg">
<path fill-rule="evenodd" clip-rule="evenodd" d="M35.3621 0.783654C35.3019 2.20465 34.1471 6.71055 33.3431 8.66128L33.2075 8.99028L32.5054 9.04785C22.8416 9.84025 14.0214 16.1824 10.2305 25.0646C10.1037 25.3619 10.1093 25.3591 9.50498 25.4091C9.32385 25.4242 9.09093 25.4448 8.9875 25.455C7.8955 25.5633 3.83288 25.5652 3.64948 25.4578C3.63583 25.4497 3.41288 25.4291 3.15405 25.4119C2.84739 25.3898 2.54146 25.3584 2.2367 25.3178C1.8069 25.2571 1.6543 25.2572 1.8419 25.3181C1.9371 25.3491 1.98838 25.3703 2.3543 25.5304C3.5373 26.0477 4.91315 26.7572 6.3296 27.5802C7.21423 28.0942 8.77575 29.1723 8.77575 29.2691C8.77575 29.3069 8.7124 29.6223 8.63523 29.9698C6.7188 38.584 9.1023 47.4077 15.1384 54.0447L15.5031 54.4457L15.3426 54.844C14.6337 56.6024 13.7314 58.377 12.6205 60.1974C12.3353 60.665 11.648 61.6956 11.6031 61.7234C11.5745 61.7409 11.5513 61.7757 11.5513 61.8005C11.5513 61.8254 11.7789 61.6597 12.057 61.4322C13.2857 60.4272 16.5375 58.2216 16.7906 58.2216C16.8079 58.2216 16.901 58.1719 16.9974 58.1112C17.3287 57.9028 18.5523 57.2807 18.6311 57.2807C18.6743 57.2807 18.9566 57.4578 19.2584 57.6741C23.1812 60.4851 27.6749 62.1336 32.6265 62.5779C39.5597 63.2 46.1923 61.4765 51.4987 57.6741C51.8006 57.4578 52.0828 57.2807 52.1262 57.2807C52.2048 57.2807 53.4284 57.9028 53.7597 58.1112C53.8563 58.1719 53.9492 58.2216 53.9665 58.2216C54.2196 58.2216 57.4716 60.4272 58.7001 61.4322C58.9784 61.6597 59.2059 61.8254 59.2059 61.8005C59.2059 61.7757 59.1826 61.7409 59.1542 61.7234C59.1093 61.6956 58.422 60.665 58.1366 60.1974C57.0259 58.377 56.1234 56.6024 55.4145 54.844L55.254 54.4457L55.6187 54.0447C61.6548 47.4077 64.0383 38.584 62.1221 29.9698C62.0447 29.6223 61.9814 29.3069 61.9814 29.2691C61.9814 29.1723 63.5429 28.0942 64.4277 27.5802C65.8441 26.7572 67.2198 26.0477 68.4028 25.5304C68.7689 25.3703 68.82 25.3491 68.9152 25.3181C69.1028 25.2572 68.9502 25.2571 68.5204 25.3178C68.2745 25.3524 67.8617 25.3948 67.6031 25.4119C67.3444 25.4291 67.1215 25.4497 67.1076 25.4578C66.9242 25.5652 62.8616 25.5633 61.7698 25.455C61.6662 25.4448 61.4334 25.4242 61.2523 25.4091C60.6479 25.3591 60.6536 25.3619 60.5268 25.0646C56.7359 16.1824 47.9156 9.84025 38.2517 9.04785L37.5496 8.99028L37.4142 8.66128C36.5925 6.66785 35.6692 3.06898 35.3864 0.758454C35.3703 0.627029 35.3688 0.628604 35.3621 0.783654ZM35.7305 8.21485C36.2173 9.6929 36.701 10.9547 36.9161 11.308C37.0461 11.5213 37.0003 11.5304 36.1199 11.4644C35.5572 11.4223 35.2083 11.4223 34.6418 11.4643C33.7558 11.5301 33.7112 11.5213 33.841 11.308C34.0543 10.9576 34.541 9.68958 35.0098 8.26193C35.1502 7.83493 35.2746 7.45763 35.2863 7.42333C35.3553 7.2226 35.4722 7.4305 35.7305 8.21485ZM32.1278 11.308C31.703 12.1007 31.17 12.9595 30.7113 13.5895C30.6219 13.7125 30.5573 13.8129 30.568 13.8129C30.5785 13.8129 30.7444 13.7589 30.9365 13.6929C33.0276 12.974 37.7295 12.974 39.8206 13.6929C40.0127 13.7589 40.1774 13.8129 40.1865 13.8129C40.1956 13.8129 40.0868 13.649 39.9447 13.4484C39.4573 12.7615 38.3315 10.8679 38.381 10.8185C38.3872 10.8122 38.6959 10.8477 39.067 10.8973C45.9865 11.8207 52.1278 15.5692 56.164 21.3329C56.8519 22.3153 57.823 23.9706 58.159 24.7333L58.2549 24.9515L57.9849 24.8885C57.8575 24.8585 57.7298 24.83 57.6018 24.8029C57.5397 24.7905 57.2242 24.7046 56.9008 24.6122C56.6814 24.5493 56.4619 24.4869 56.2422 24.4251C56.1206 24.3922 55.4729 24.1551 55.3177 24.0867C55.0736 23.979 55.0538 24.01 55.2164 24.2447C55.5232 24.6874 56.0062 25.5778 56.0072 25.7024C56.0074 25.7222 56.0384 25.7976 56.0762 25.8701C56.114 25.9425 56.1658 26.0696 56.191 26.1524C56.2162 26.2351 56.2914 26.4511 56.3577 26.6322C56.8334 27.9288 57.15 29.077 57.3239 30.1369C57.3474 30.2792 57.3901 30.5226 57.4189 30.6779C57.5658 31.469 57.5995 31.8479 57.5878 32.5773L57.5754 33.3478L57.673 33.2124C58.044 32.6984 59.8399 30.8404 60.1006 30.701C60.1692 30.6642 60.193 30.7438 60.3024 31.3742C61.4984 38.2697 59.8121 45.3539 55.6588 50.8819C55.1397 51.5728 54.5799 52.2429 54.5416 52.2193C54.4462 52.1603 54.0152 50.0698 53.913 49.1699L53.8813 48.892L53.6508 49.3047C53.454 49.6571 53.0371 50.2898 52.9519 50.3654C52.9374 50.3783 52.7349 50.6109 52.5021 50.8823C51.6665 51.8562 50.2786 53.1792 49.4662 53.7759C49.3957 53.8277 49.1399 54.0204 48.8973 54.204C48.1907 54.7395 47.3034 55.2571 46.8335 55.4082C46.7947 55.4206 46.9324 55.4671 47.1393 55.5116C47.9432 55.684 49.8752 56.2609 49.9718 56.3575C50.0565 56.4422 47.95 57.6937 46.6689 58.3198C43.0404 60.0934 39.795 60.809 35.3786 60.809C30.9623 60.809 27.7167 60.0934 24.0883 58.3198C22.8071 57.6937 20.7008 56.4422 20.7853 56.3575C20.8819 56.2609 22.8139 55.684 23.6179 55.5116C23.8249 55.4671 23.9624 55.4206 23.9236 55.4082C23.4539 55.2571 22.5666 54.7395 21.8598 54.204C21.6708 54.0605 21.4811 53.9178 21.2909 53.7759C20.4787 53.1792 19.0906 51.8562 18.255 50.8823C18.0222 50.6109 17.8199 50.3783 17.8052 50.3654C17.72 50.2898 17.3032 49.6571 17.1063 49.3047L16.8758 48.892L16.8441 49.1699C16.7419 50.0698 16.3109 52.1603 16.2155 52.2193C16.1772 52.2429 15.6174 51.5728 15.0985 50.8819C10.9451 45.3539 9.25875 38.2697 10.4547 31.3742C10.5641 30.7438 10.5881 30.6642 10.6565 30.701C10.9172 30.8404 12.7131 32.6984 13.0841 33.2124L13.1819 33.3478L13.1695 32.5773C13.1576 31.8479 13.1914 31.469 13.3382 30.6779C13.3671 30.5226 13.4098 30.2792 13.4332 30.1369C13.6073 29.077 13.9237 27.9288 14.3994 26.6322C14.4657 26.4511 14.5408 26.2351 14.5662 26.1524C14.5972 26.0555 14.6356 25.9611 14.681 25.8701C14.7188 25.7976 14.7497 25.7222 14.7499 25.7024C14.751 25.5778 15.234 24.6874 15.5407 24.2447C15.7035 24.01 15.6835 23.979 15.4394 24.0867C15.2842 24.1551 14.6365 24.3922 14.5151 24.4251C14.2953 24.4869 14.0758 24.5493 13.8564 24.6122C13.533 24.7046 13.2174 24.7905 13.1553 24.8029C13.0932 24.8154 12.9208 24.8539 12.7722 24.8885L12.5022 24.9515L12.5983 24.7333C13.8915 21.7968 16.6991 18.3113 19.6662 15.9593C23.1699 13.1821 28.1988 11.1372 32.3362 10.8071C32.3735 10.8042 32.2896 11.0056 32.1278 11.308ZM42.8952 15.1746C42.4781 15.4322 42.2345 16.3382 41.8002 19.2465C41.3158 22.4908 41.1826 22.9772 40.5799 23.706C39.7684 24.6876 39.2674 24.7557 37.519 24.1217C37.0523 23.9523 36.8991 23.0463 37.0894 21.5773C37.4084 19.1123 36.4832 17.721 35.9431 19.8538C35.8414 20.2557 35.8031 20.5195 35.6857 21.6281C35.6027 22.4128 35.2912 23.1947 34.8109 23.8247L34.5715 24.1386L33.9779 24.1946C33.3234 24.2566 32.4645 24.4004 31.9227 24.5387C31.4964 24.6475 31.5518 24.731 31.4981 23.8992C31.4169 22.6422 31.1933 22.1389 30.7094 22.1253C30.2974 22.1135 30.0862 22.8932 30.0862 24.4248V25.1363L29.7509 25.2845C29.3351 25.4681 29.3514 25.4693 29.3169 25.2529C29.2663 24.9375 28.9127 23.8907 28.4631 22.7264C27.8973 21.2611 27.8394 21.0649 27.7785 20.4078C27.7004 19.5647 27.6136 19.4068 27.2722 19.4878C26.8897 19.5787 26.8841 19.6175 26.8405 22.4453C26.8016 24.9748 26.7574 25.6232 26.5572 26.5841C26.3939 27.3681 26.3769 27.4015 25.9226 27.8359C25.4037 28.3316 24.7685 29.0428 24.4367 29.4991C24.1397 29.9073 24.1373 29.9084 24.0335 29.6783C23.9096 29.4033 23.9308 28.7721 24.0865 28.0905C24.373 26.8377 24.202 26.0069 23.6261 25.8519C22.959 25.6722 22.7537 26.5115 22.8083 29.196C22.8444 30.9731 22.7822 32.3055 22.6477 32.6389C22.592 32.7765 22.4664 33.1319 22.3682 33.4289C22.1176 34.1864 22.0772 34.1777 21.9951 33.348C21.8754 32.1398 21.7419 31.835 21.4046 31.9991C20.5804 32.4002 20.4927 34.8619 21.2128 37.3853C21.4825 38.3299 21.8162 39.6729 21.9953 40.5333C23.082 45.7566 27.4206 49.9816 32.6934 50.9514C41.0517 52.489 48.537 46.7271 49.0471 38.3632C49.0846 37.7493 49.1189 37.4777 49.1659 37.4253C49.3521 37.2171 49.5179 36.4537 49.6334 35.2723C49.7816 33.7535 49.9009 33.0838 50.1561 32.3374C50.423 31.5572 50.3759 31.23 49.9816 31.1238C49.5203 30.9995 49.3278 31.4335 48.9768 33.3883C48.8856 33.8959 48.7916 34.3616 48.7678 34.4232C48.7174 34.5543 48.7375 34.6019 48.5053 33.8062C48.2169 32.8183 47.7446 31.7205 47.2436 30.8737L47.0532 30.552L47.1113 29.7682C47.1433 29.337 47.2103 28.6668 47.2604 28.2786C47.4767 26.6 47.5087 25.0311 47.3279 24.9624C47.0015 24.8381 46.8489 25.204 46.462 27.0386C46.2746 27.9279 46.1682 28.2209 45.9463 28.4592C45.7074 28.7158 45.7055 28.7151 45.2274 28.2252C44.9854 27.9769 44.5276 27.5522 44.2103 27.2813C42.9855 26.2351 42.5875 25.2144 42.5905 23.1275C42.5924 21.8962 42.7016 21.0891 43.4221 16.9883C43.676 15.543 43.4665 14.8216 42.8952 15.1746ZM36.0842 25.5525C38.2424 25.9222 39.3302 26.7176 39.3302 27.9258C39.3302 29.9915 35.3863 30.9936 32.6286 29.6284C31.3473 28.994 31.0001 27.6519 31.8828 26.7439C32.7186 25.8839 34.715 25.318 36.0842 25.5525ZM12.6146 26.5339C12.6434 26.6086 12.5997 26.768 12.42 27.2437C12.2611 27.6644 12.0486 28.4599 11.9742 28.9137C11.847 29.6896 11.8307 29.711 11.5548 29.4665C11.0828 29.0483 10.276 28.4674 9.02268 27.6439C7.9571 26.9435 7.9529 26.9187 8.89335 26.8693C9.2297 26.8518 9.55783 26.83 9.62258 26.8209C9.68733 26.8118 9.9836 26.7895 10.2811 26.7715C10.5786 26.7535 10.8602 26.7318 10.9067 26.723C10.9531 26.7145 11.1544 26.6935 11.3535 26.6765C11.5528 26.6595 11.7266 26.6394 11.7394 26.6317C11.7523 26.6242 11.8713 26.6042 12.0036 26.5874C12.1359 26.5706 12.3052 26.5386 12.3799 26.5162C12.5722 26.4586 12.5862 26.4597 12.6146 26.5339ZM58.4297 26.5319C58.4814 26.5458 58.6191 26.5696 58.7355 26.5851C58.8518 26.6007 58.9789 26.6217 59.0177 26.6319C59.0566 26.642 59.2435 26.6637 59.4332 26.68C59.6229 26.6963 59.8135 26.7162 59.8565 26.7243C59.8997 26.7323 60.1785 26.7537 60.476 26.7715C60.7735 26.7894 61.07 26.8118 61.1347 26.8209C61.1995 26.83 61.5274 26.8518 61.8638 26.8693C62.8042 26.9187 62.8 26.9435 61.7344 27.6439C60.4811 28.4674 59.6743 29.0483 59.2024 29.4665C58.9264 29.711 58.9101 29.6896 58.7829 28.9137C58.7085 28.4599 58.4961 27.6644 58.3373 27.2437C58.0946 26.6014 58.0761 26.4348 58.253 26.4842C58.2985 26.4968 58.3779 26.5183 58.4297 26.5319ZM28.9828 27.7611C29.8151 28.9237 29.6543 29.3473 27.9458 30.491C26.2138 31.6503 25.6407 31.6969 25.6407 30.6779C25.6407 29.757 26.546 28.6571 28.2706 27.4827C28.6439 27.2283 28.5845 27.2052 28.9828 27.7611ZM43.0231 27.8714C44.4184 28.9174 45.1162 29.8529 45.1164 30.6779C45.1164 31.6969 44.5433 31.6503 42.8113 30.491C41.0678 29.3239 40.9275 28.909 41.8515 27.6535L42.1385 27.2634L42.3103 27.3646C42.4048 27.4204 42.7256 27.6484 43.0231 27.8714ZM29.7087 32.1981C30.1765 32.5444 30.158 33.1795 29.6561 33.9973C29.1766 34.7786 29.0485 35.0583 28.9534 35.5299C28.7454 36.5645 28.3891 36.8258 28.0751 36.1741C27.8844 35.7777 27.7979 35.7322 27.0972 35.6598C25.6864 35.5138 25.5063 35.1887 26.1099 33.8769C26.3678 33.3163 26.7733 33.2656 27.2636 33.7325C27.6861 34.1346 27.8929 34.0869 28.0639 33.5475C28.4008 32.4835 29.2042 31.8246 29.7087 32.1981ZM41.6833 32.1536C42.041 32.316 42.507 32.9592 42.6934 33.5475C42.8642 34.0869 43.071 34.1346 43.4935 33.7325C43.9838 33.2656 44.3895 33.3163 44.6473 33.8769C45.2508 35.1887 45.0708 35.5138 43.6599 35.6598C42.9592 35.7322 42.8729 35.7777 42.682 36.1741C42.3681 36.8258 42.0118 36.5645 41.8037 35.5299C41.7088 35.0583 41.5806 34.7786 41.1011 33.9973C40.6336 33.2355 40.5836 32.6204 40.9605 32.2684C41.1863 32.0576 41.3979 32.024 41.6833 32.1536ZM25.0782 32.4163C25.2868 32.6249 25.2359 32.7702 24.7121 33.4595C24.39 33.8837 23.9707 34.6362 23.9707 34.7907C23.9707 34.9237 24.1359 35.1019 24.5513 35.4165C25.4393 36.089 25.4524 36.1274 25.522 38.2519C25.6165 41.1348 25.7182 42.0154 25.9889 42.2961C26.0896 42.4004 26.2173 42.5766 26.273 42.6879C26.4 42.9419 26.4417 42.9567 26.7267 42.8503C27.0118 42.7438 27.0104 42.7754 26.7794 41.6624C26.1445 38.6019 26.1541 37.923 26.8442 37.0858C27.03 36.8606 27.0759 36.8653 27.3072 37.1345C27.7725 37.6761 28.0132 38.366 28.0168 39.1692C28.0249 40.9596 28.4004 41.4414 29.3817 40.9194C29.5764 40.8158 29.9193 40.6751 30.1438 40.6067C31.0144 40.341 31.0664 39.9431 30.2869 39.5091C29.1213 38.86 29.5049 38.3422 30.7195 38.9251C31.8317 39.4587 31.8999 39.8613 31.0715 41.0039C29.6659 42.942 29.4277 43.4165 29.4277 44.2768C29.4277 45.3409 29.637 45.6141 30.5444 45.7345L30.7869 45.7665L31.0641 45.5021C31.3879 45.1934 31.4255 45.1841 31.4957 45.3969C31.6848 45.9697 32.4442 46.8108 33.2964 47.3914C33.8604 47.7757 33.8716 47.7873 34.1296 48.2484C34.3763 48.6901 34.5837 48.906 34.9239 49.0758C35.5427 49.3847 36.1601 49.0847 36.6277 48.2484C36.8855 47.7873 36.8967 47.7757 37.4607 47.3914C38.313 46.8108 39.0725 45.9697 39.2615 45.3969C39.3316 45.1841 39.3693 45.1934 39.693 45.5021L39.9704 45.7665L40.2128 45.7345C41.1203 45.6141 41.3296 45.3409 41.3296 44.2768C41.3296 43.4165 41.0913 42.942 39.6858 41.0039C38.8572 39.8613 38.9255 39.4587 40.0376 38.9251C41.2523 38.3422 41.6359 38.86 40.4702 39.5091C39.6907 39.9431 39.7427 40.341 40.6133 40.6067C40.8379 40.6751 41.1809 40.8158 41.3755 40.9194C42.3567 41.4414 42.7322 40.9596 42.7405 39.1692C42.7441 38.366 42.9846 37.6761 43.4499 37.1345C43.6813 36.8653 43.7273 36.8606 43.913 37.0858C44.603 37.923 44.6126 38.6019 43.9777 41.6624C43.7469 42.7754 43.7455 42.7438 44.0306 42.8503C44.3155 42.9567 44.3573 42.9419 44.4842 42.6879C44.5398 42.5766 44.6677 42.4004 44.7684 42.2961C45.0389 42.0154 45.1406 41.1348 45.2351 38.2519C45.3047 36.1274 45.3179 36.089 46.2058 35.4165C46.6213 35.1019 46.7865 34.9237 46.7865 34.7907C46.7865 34.6362 46.3673 33.8837 46.045 33.4595C45.4188 32.6352 45.4122 32.3008 46.0224 32.3008C46.598 32.3008 46.9149 32.6821 47.2997 33.8378C49.765 41.2409 44.8132 49.0494 37.0433 50.0113C29.4 50.9576 22.8416 45.2881 22.8416 37.7344C22.8416 35.826 23.3795 33.4075 23.9563 32.722C24.2977 32.316 24.8324 32.1704 25.0782 32.4163ZM36.2719 32.8426C37.4245 33.0164 38.3688 33.3974 38.8702 33.8912C39.6556 34.6645 39.6573 35.8629 38.8744 36.634C37.4392 38.0469 33.3179 38.0469 31.8829 36.634C31.0998 35.8629 31.1016 34.6645 31.887 33.8912C32.7133 33.0776 34.6917 32.6044 36.2719 32.8426ZM35.8343 40.5109C38.0347 40.9684 39.2273 42.5198 38.7641 44.3223C38.4363 45.5982 37.1636 46.3668 35.3786 46.3668C32.9667 46.3668 31.5552 44.9397 31.9725 42.9231C32.2741 41.4664 34.3109 40.1942 35.8343 40.5109ZM18.0296 53.0821C18.3855 53.4823 18.8549 53.9508 19.0939 54.1445C19.3424 54.3469 19.5939 54.5455 19.8484 54.7404C20.1053 54.9364 20.1067 55.0226 19.854 55.1037C19.7507 55.1367 19.6238 55.1777 19.5722 55.1947C19.3893 55.2549 17.3999 56.2798 16.8112 56.6172C15.9984 57.0833 15.8879 57.0482 16.1828 56.4186C16.2745 56.2224 16.3498 56.0525 16.3498 56.0408C16.3498 56.0291 16.4332 55.843 16.5353 55.6271C16.901 54.8531 17.3756 53.6573 17.5051 53.1832C17.646 52.6682 17.6593 52.6657 18.0296 53.0821ZM53.1243 52.8234C53.1493 52.8558 53.2067 53.0177 53.252 53.1832C53.3817 53.6573 53.8563 54.8531 54.2219 55.6271C54.3241 55.843 54.4075 56.0292 54.4075 56.0408C54.4075 56.0525 54.4826 56.2224 54.5745 56.4186C54.8694 57.0482 54.7588 57.0833 53.9459 56.6172C53.3572 56.2798 51.368 55.2549 51.1851 55.1947C51.1333 55.1777 51.0064 55.1367 50.9032 55.1037C50.6506 55.0226 50.6519 54.9364 50.9088 54.7404C51.1632 54.5455 51.4147 54.3469 51.6632 54.1445C51.9022 53.9508 52.3716 53.4823 52.7275 53.0821C53.0256 52.7469 53.0518 52.7298 53.1243 52.8234Z" fill="white"/>
</svg>
