<svg width="20" height="40" viewBox="0 0 20 40" fill="none" xmlns="http://www.w3.org/2000/svg">
<path d="M1.35303 2.69375C1.3749 2.325 1.39678 1.95937 1.42178 1.59375C2.43428 1.91562 3.50615 1.80625 4.55303 1.87187C4.53428 2.01875 4.4999 2.31562 4.48428 2.4625C3.4374 2.50312 2.38428 2.475 1.35303 2.69375ZM12.5562 1.64688C13.3718 1.6875 14.1937 1.65312 15.0093 1.70937C15.0062 1.9 14.9999 2.27812 14.9999 2.46875C14.328 2.91562 13.2718 2.54063 12.4499 2.56875C12.478 2.3375 12.528 1.87812 12.5562 1.64688ZM15.778 1.84687C16.728 1.83437 17.6843 1.84375 18.6124 1.60938C18.6155 1.96875 18.6187 2.33125 18.6249 2.69375C17.6905 2.51562 16.7405 2.49062 15.7937 2.4875C15.728 2.4125 15.5937 2.26563 15.528 2.19063C15.5905 2.10625 15.7155 1.93125 15.778 1.84687ZM4.96865 1.70625C5.74678 1.6375 6.53428 1.64062 7.3124 1.69687C7.3499 1.93125 7.4249 2.4 7.46553 2.6375C6.57803 2.64687 5.69365 2.64687 4.80615 2.64062L4.96865 1.70625ZM7.68115 1.84062C9.13428 1.8375 10.5874 1.80625 12.0374 1.81875C12.0843 1.9125 12.1749 2.09375 12.2187 2.18437L12.0093 2.50625C10.5624 2.5125 9.11865 2.475 7.67178 2.5C7.6749 2.33437 7.68115 2.00312 7.68115 1.84062ZM2.77178 3.32812C7.53115 3.82812 12.3499 3.925 17.103 3.2875C17.1499 12.6656 17.1062 22.0437 17.1218 31.4219C16.3999 32.0812 15.6874 32.775 14.8093 33.225C13.5187 33.9281 12.028 34.125 10.7124 34.7719C9.24365 35.4219 8.01865 36.5062 6.55928 37.1719C5.35928 37.7562 4.0374 38 2.75928 38.35C2.7999 26.6781 2.77803 15.0031 2.77178 3.32812ZM12.7155 4.10625C12.7124 4.33125 12.7124 4.78437 12.7124 5.0125C14.0124 4.89062 15.3155 4.79375 16.6155 4.68125L16.6405 3.80625C15.3468 4.04687 14.028 4.10625 12.7155 4.10625ZM3.17178 3.82812C3.20303 4.02812 3.26865 4.425 3.2999 4.625C4.59678 4.86562 5.92178 4.86875 7.23428 4.975C7.23428 4.76875 7.2374 4.35625 7.24053 4.15C5.87803 4.10625 4.52178 4.0125 3.17178 3.82812ZM8.0624 4.175C8.05928 4.38437 8.05615 4.80625 8.05303 5.01562C9.33428 5.04062 10.6155 5.04062 11.8968 5.0125C11.8655 4.80937 11.7999 4.40625 11.7687 4.20312C10.5343 4.16562 9.29678 4.23437 8.0624 4.175ZM8.49053 13.3687C7.75615 13.8125 7.02178 14.2469 6.2874 14.6875C5.87178 14.5094 5.4749 14.2469 5.01865 14.1937C4.19678 14.2812 3.4874 15.0812 3.6499 15.9187C3.73115 16.5594 4.3749 16.8656 4.80303 17.2625C4.80303 18.1125 4.79678 18.9625 4.75928 19.8125C3.9249 20.2031 3.2124 21.1906 3.8624 22.0687C4.38115 22.9781 5.54678 22.8656 6.2749 22.2875C6.99678 22.725 7.72178 23.1531 8.45615 23.5656C8.47803 24.4 8.77178 25.4437 9.74365 25.5719C10.8593 25.7781 11.5468 24.6 11.4374 23.6156C12.1718 23.1594 12.9187 22.725 13.6718 22.3C13.9999 22.475 14.3374 22.6281 14.6843 22.7594C15.7124 22.9062 16.6718 21.6687 16.1593 20.7281C15.9687 20.275 15.4812 20.0656 15.1249 19.7656C15.1124 18.9094 15.1155 18.0531 15.1468 17.1969C15.978 16.7906 16.703 15.7781 16.0562 14.8937C15.5343 13.9937 14.3874 14.1469 13.6655 14.6969C12.9218 14.2625 12.178 13.8281 11.4374 13.3844C11.5718 12.375 10.8218 11.1719 9.69053 11.4281C8.75615 11.5719 8.48428 12.5625 8.49053 13.3687Z" fill="#FFADAA"/>
<path d="M11.0563 13.8C11.821 14.274 12.5994 14.7252 13.3907 15.1532L13.4095 16.1657C12.3595 16.7844 11.3001 17.3875 10.2595 18.025C10.2563 16.8125 10.2563 15.6 10.2688 14.3875C10.5313 14.1938 10.7938 13.9969 11.0563 13.8ZM6.47822 15.225C7.25947 14.75 8.04385 14.2875 8.83135 13.825C9.1126 14 9.39072 14.175 9.67197 14.35C9.66572 15.5657 9.66885 16.7813 9.6751 18C8.6126 17.4032 7.56885 16.7813 6.50947 16.1782C6.50322 15.9407 6.48447 15.4625 6.47822 15.225ZM5.36572 17.1875C5.6501 17.0063 5.93447 16.8282 6.21885 16.6469C7.27822 17.2844 8.34697 17.9032 9.44385 18.4782C8.36572 19.0844 7.29072 19.6969 6.24072 20.3532C5.9501 20.1719 5.65947 19.9969 5.37197 19.8188C5.37197 18.9407 5.37197 18.0657 5.36572 17.1875ZM10.5126 18.4813C11.5845 17.8782 12.6532 17.2719 13.7095 16.6407C13.922 16.775 14.347 17.0407 14.5595 17.175C14.5563 18.075 14.5532 18.9782 14.5313 19.8782C14.3157 19.9938 13.8845 20.225 13.6688 20.3438C12.6313 19.6969 11.572 19.0907 10.5126 18.4813ZM6.52822 20.7844C7.5876 20.1969 8.62822 19.5782 9.68447 18.9844C9.66885 20.2188 9.67197 21.4532 9.6501 22.6875C9.36885 22.8438 9.0876 23.0032 8.80635 23.1594C8.04697 22.6782 7.27197 22.2282 6.49385 21.7907C6.50322 21.4532 6.51572 21.1188 6.52822 20.7844ZM10.247 18.9657C11.2907 19.5782 12.3313 20.1969 13.3938 20.7782C13.397 21.1157 13.4001 21.45 13.4063 21.7875C12.6501 22.2219 11.9001 22.6719 11.1688 23.1532C10.8595 22.9813 10.5501 22.8094 10.2407 22.6407C10.2657 21.4157 10.2657 20.1907 10.247 18.9657Z" fill="#FFADAA"/>
</svg>
