<svg width="50" height="50" viewBox="0 0 50 50" fill="none" xmlns="http://www.w3.org/2000/svg">
<path d="M25.2422 3.66406C28.3633 9.69141 32.8281 14.8242 36.9023 20.1992C35.2578 21.2656 33.6055 22.3281 31.9453 23.3789C32.4648 22.6328 32.9883 21.8906 33.5117 21.1445C30.9688 18.6562 28.4844 16.0977 25.7695 13.793C25.8008 18.1172 26.9336 22.418 29.1719 26.125C26.4141 25.5234 23.543 25.5234 20.7695 26.0195C22.8945 22.3125 24.6992 18.3281 24.2617 13.9141C21.3945 16.2148 18.6758 18.6992 16.0313 21.25C16.8203 22.1328 17.6055 23.0195 18.3672 23.9297C16.4414 22.6914 14.543 21.418 12.7422 20.0078C17.3516 14.9258 21.9531 9.73047 25.2422 3.66406ZM33.5 26.8203C35.2969 26.0273 37.1172 25.2969 38.9453 24.5781C41.5625 30.8633 44.1055 37.2422 47.9727 42.8984C41.0781 42.3008 34.1914 43.082 27.3398 43.7852C27.3516 41.9141 27.3555 40.0469 27.3906 38.1797C27.543 38.7578 27.8477 39.9219 28 40.5039C31.4727 39.7539 34.9453 38.9922 38.3906 38.1289C34.6328 35.8164 30.2383 34.875 25.875 34.6992C27.5859 32.6289 29.3828 30.4922 30.0625 27.8281C32.3477 31.4648 35.1094 35.0859 39.1094 36.9297C38.3125 33.4805 37.2695 30.0937 36.3281 26.6836C35.3867 26.7305 34.4414 26.7773 33.5 26.8203ZM10.7305 24.9141C12.6836 25.5977 14.6094 26.375 16.5195 27.1836C15.4766 27.1211 14.4492 27.0664 13.4102 27C12.5742 30.3945 11.6094 33.7539 10.8828 37.1758C14.7227 35.0234 17.6016 31.6523 19.6836 27.8203C20.2695 30.5586 22.0195 32.875 24.1289 34.6523C19.7266 34.7773 15.4414 36.0742 11.5586 38.1133C14.9609 39.1133 18.4414 39.8281 21.9063 40.582C22.125 39.7773 22.3477 38.9766 22.5703 38.1719C22.6055 40.0586 22.6445 41.9453 22.668 43.8359C15.7969 43.3555 8.91797 42.582 2.02344 43.2578C5.80469 37.5977 8.25 31.2109 10.7305 24.9141ZM21.125 27.3164C23.5586 27.1719 26.0039 27.1094 28.4414 27.2734C28.2812 29.8281 26.8984 32.0312 24.9648 33.6172C23.1875 31.875 21.6328 29.8047 21.125 27.3164Z" fill="white"/>
</svg>
