<svg width="50" height="50" viewBox="0 0 50 50" fill="none" xmlns="http://www.w3.org/2000/svg">
<path d="M23.0126 2.81544C23.2001 0.401378 27.6767 0.393565 27.8876 2.79982C28.1376 5.667 27.9345 8.55763 27.9892 11.4404C34.6767 12.6123 40.6455 17.8389 41.9658 24.6123C43.0361 28.5029 42.2548 32.7608 40.3642 36.2842C40.0283 37.2061 38.5673 38.1514 39.6533 39.0967C41.8173 41.4717 44.2548 43.5811 46.4502 45.9248C47.9267 47.9873 45.6455 50.6045 43.3798 49.5498C40.6455 47.1592 38.2314 44.417 35.6064 41.9092C29.7783 46.3076 21.122 46.2998 15.2939 41.9092C12.9658 44.2139 10.6689 46.5576 8.34859 48.8623C7.41109 50.042 5.0439 50.0967 4.3564 48.6279C3.64546 47.6748 4.09077 46.2061 4.87984 45.4561C7.14546 43.0811 9.72359 40.9951 11.747 38.4014C9.11421 34.4092 7.61421 29.3701 8.93452 24.6436C10.2392 17.8545 16.208 12.6123 22.9111 11.4404C22.9658 8.56544 22.7705 5.68263 23.0126 2.81544ZM22.0752 14.1983C16.1298 15.5029 11.4267 20.9326 10.9892 27.0108C14.1611 26.9795 17.333 26.9873 20.497 26.9873C21.583 25.2217 23.1298 23.2842 25.4658 23.5733C27.7939 23.292 29.3173 25.2295 30.4033 26.9873C33.5673 26.9873 36.7392 26.9795 39.9111 27.0108C39.4501 18.5264 30.2626 11.8076 22.0752 14.1983ZM11.0126 29.417C11.2236 31.5108 11.6845 33.5889 12.7626 35.417C13.247 36.1826 13.8017 37.5576 14.9501 37.0498C17.0048 34.8545 19.4658 32.9639 21.1611 30.4717C21.0205 30.2139 20.7314 29.7061 20.583 29.4483C17.3955 29.3545 14.2001 29.4717 11.0126 29.417ZM30.208 29.3779C30.1377 29.7295 30.0048 30.4404 29.9423 30.792C31.6689 33.1045 33.9658 34.9561 35.9501 37.0498C36.1923 37.0654 36.6689 37.0811 36.9111 37.0889C38.8486 35.0264 39.622 32.167 39.8876 29.417C36.6611 29.417 33.4345 29.4639 30.208 29.3779ZM16.1845 39.3701C21.1845 43.9483 29.708 43.9248 34.7158 39.3858C32.5908 36.9639 30.2392 34.7529 27.9189 32.5186C27.1667 32.943 26.3177 33.166 25.4541 33.166C24.5904 33.166 23.7414 32.943 22.9892 32.5186C20.6611 34.7451 18.3251 36.9639 16.1845 39.3701Z" fill="white"/>
</svg>
