<svg width="34" height="31" viewBox="0 0 34 31" fill="none" xmlns="http://www.w3.org/2000/svg">
<path d="M6.48699 0.0965976C4.18699 0.396598 2.43699 1.3466 1.78699 2.6466C-0.0630112 6.2466 -0.613011 15.6466 0.786989 19.1466C1.18699 20.1966 2.23699 21.6966 3.03699 22.3966C3.83699 23.0966 4.48699 24.0466 4.48699 24.4466C4.48699 24.8466 4.73699 25.1966 4.98699 25.1966C5.28699 25.1966 5.78699 25.7466 6.08699 26.4466C6.38699 27.1466 6.93699 27.6966 7.23699 27.6966C7.58699 27.6966 8.13699 28.0466 8.48699 28.4466C8.83699 28.8966 9.48699 29.1966 9.93699 29.1466C10.387 29.0966 10.887 29.1466 11.137 29.1966C11.787 29.4466 14.187 29.6966 19.987 30.1466C27.037 30.7466 30.637 30.2466 31.837 28.3966C34.087 24.9466 34.737 14.5966 32.987 10.8966C32.387 9.7466 31.387 8.3966 30.737 7.9966C30.037 7.5466 29.487 6.8966 29.487 6.5966C29.487 6.0466 28.837 5.2466 26.387 2.7966C25.337 1.7466 24.487 1.3966 22.637 1.2966C21.287 1.2466 19.687 0.996598 18.987 0.746598C17.687 0.246598 8.73699 -0.203402 6.48699 0.0965976ZM19.637 1.8466C20.787 2.5966 20.987 3.0466 20.987 5.1966C20.987 7.2466 20.787 7.7966 19.687 8.6466C17.187 10.6466 13.587 9.5966 14.087 7.0466C14.237 6.2966 14.137 5.6966 13.937 5.6966C13.687 5.6966 13.487 6.4966 13.487 7.4466C13.487 9.5966 14.737 10.3966 17.687 10.0466C19.337 9.8966 19.987 10.0966 20.987 10.9966C21.687 11.5966 23.037 12.5466 23.987 13.0466C27.287 14.8466 29.087 20.3466 27.837 24.7466C27.537 25.9466 27.187 26.0966 24.637 26.3466C23.037 26.5466 20.487 26.4966 18.987 26.2966C16.437 25.9966 16.237 25.8466 16.087 24.5466C15.937 23.4966 16.187 23.0966 17.087 22.7466C17.787 22.4466 17.937 22.2466 17.487 22.2466C15.487 22.1466 14.687 25.6966 16.437 26.6966C16.987 26.9466 19.587 27.1966 22.187 27.1966C26.437 27.1966 27.137 27.0466 28.037 26.1466C28.987 25.1966 29.087 24.6466 28.887 21.3966C28.687 18.3966 28.337 17.2466 27.137 15.2966L25.637 12.8966L26.887 11.9466C28.137 11.0466 28.137 11.0466 29.087 12.1466C29.587 12.7966 29.987 13.1466 29.987 12.9466C29.987 12.7466 29.587 12.0966 29.087 11.4466L28.187 10.3466L26.737 11.4966C25.187 12.6966 23.987 13.0466 23.987 12.2466C23.987 11.9966 23.437 11.6466 22.737 11.4966C21.187 11.0966 21.187 10.6966 22.637 8.8966C23.437 7.8466 23.737 6.7966 23.737 4.7966C23.737 2.7466 23.887 2.1966 24.487 2.2966C25.037 2.4466 25.237 3.1966 25.237 5.5466C25.237 7.2466 25.387 8.4966 25.637 8.3466C25.837 8.2466 25.987 7.1466 25.987 5.8966C25.987 4.6966 26.237 3.6966 26.487 3.6966C27.187 3.6966 27.137 7.9966 26.387 9.3466C26.087 9.9466 25.487 10.7466 25.037 11.0966C24.337 11.6466 24.387 11.6966 25.337 11.2466C25.937 10.9466 26.787 9.6966 27.237 8.4466C28.337 5.6966 29.237 5.4466 28.837 8.0466C28.587 9.4966 28.637 9.7466 29.037 9.0466C29.687 7.8966 31.187 8.6466 32.237 10.7466C33.337 12.8466 33.387 21.5966 32.287 25.3466C31.087 29.4466 30.087 29.8466 21.987 29.5966C14.087 29.3466 12.987 28.8466 12.987 25.3966C12.987 23.6966 13.287 22.8466 14.237 21.9466C16.437 19.6966 20.387 20.6966 19.887 23.3466C19.737 24.0966 19.837 24.6966 20.037 24.6966C20.287 24.6966 20.487 24.0466 20.487 23.1966C20.487 21.2466 18.737 20.0466 16.037 20.2466C14.537 20.3466 13.737 20.1466 12.887 19.3466C12.237 18.7966 11.037 17.9466 10.137 17.4966C6.93699 15.8966 4.98699 10.9466 5.83699 6.5966C6.23699 4.4966 6.33699 4.4466 8.48699 4.1966C9.73699 4.0466 12.337 4.0466 14.237 4.1966C17.637 4.4466 17.737 4.4966 17.887 5.8466C18.037 6.8966 17.787 7.2966 16.887 7.6466C16.187 7.9466 16.037 8.1466 16.487 8.1466C18.487 8.2466 19.287 4.6966 17.537 3.6966C16.987 3.4466 14.387 3.1966 11.787 3.1966C7.53699 3.1966 6.83699 3.3466 5.93699 4.2466C4.98699 5.1966 4.88699 5.7466 5.08699 8.9966C5.28699 11.9966 5.63699 13.1466 6.83699 15.0966L8.33699 17.4966L7.08699 18.4466C5.83699 19.3466 5.83699 19.3466 4.88699 18.2466C4.38699 17.5966 3.98699 17.2466 3.98699 17.4966C3.98699 17.6966 4.33699 18.2466 4.73699 18.6966C5.33699 19.3466 5.38699 19.8466 4.98699 20.8966C4.58699 22.0466 4.33699 22.1466 3.48699 21.6966C2.93699 21.3966 2.18699 20.6466 1.78699 20.0466C0.736989 18.4466 0.336989 12.4966 0.986989 8.4466C2.13699 1.0466 2.68699 0.596598 11.787 0.846598C16.987 0.946598 18.587 1.1466 19.637 1.8466ZM22.687 2.1466C22.837 2.3966 23.037 3.7466 23.087 5.1466C23.187 7.3466 23.037 7.8966 21.837 9.0466C20.787 10.1466 20.487 10.2466 20.487 9.5966C20.487 9.1466 20.687 8.6466 20.937 8.4466C21.737 7.9966 22.137 3.8966 21.537 2.7466C21.037 1.8966 21.087 1.6966 21.687 1.6966C22.087 1.6966 22.537 1.8966 22.687 2.1466ZM9.98699 18.1966C9.98699 18.4466 10.287 18.6966 10.637 18.6966C10.937 18.6966 11.537 18.8966 11.937 19.1466C12.487 19.4966 12.387 19.8966 11.437 21.2466C10.487 22.5966 10.237 23.5466 10.287 25.5966C10.337 27.7966 10.237 28.1966 9.53699 28.0966C8.23699 27.8466 8.18699 23.5466 9.48699 21.2966L10.487 19.4466L9.23699 20.9466C8.33699 22.0466 7.98699 23.0466 7.98699 24.5466C7.98699 26.8466 7.23699 27.7966 6.73699 26.1466C6.18699 24.4466 6.98699 21.5466 8.38699 19.9966C9.53699 18.7966 9.58699 18.6466 8.68699 19.0966C7.58699 19.6966 5.98699 22.4966 5.98699 23.8966C5.98699 24.3466 5.73699 24.6966 5.43699 24.6966C5.03699 24.6966 4.93699 23.9966 5.13699 22.5466C5.33699 20.9966 5.83699 20.0966 7.03699 19.0466C8.73699 17.6466 9.98699 17.2966 9.98699 18.1966ZM12.737 22.4966C12.137 23.7966 11.937 24.9966 12.187 26.5466C12.537 29.2466 11.487 29.3466 10.887 26.6466C10.437 24.4966 10.837 22.7466 12.137 21.3466C13.537 19.7966 13.787 20.2966 12.737 22.4966Z" fill="white"/>
<path d="M8.73699 9.14659C9.13699 9.94659 10.387 11.3966 11.487 12.3466C12.737 13.3966 13.387 14.3466 13.237 14.7966C12.187 17.4466 16.137 19.9466 19.037 18.4966C20.287 17.8966 20.787 17.8466 21.337 18.2966C22.237 19.0466 23.737 21.9466 24.187 23.8966C24.387 24.6466 24.637 25.1966 24.787 25.0466C25.287 24.5966 23.987 20.8466 22.737 18.9966C21.987 17.8966 21.487 16.4466 21.487 15.4466C21.487 12.8466 19.937 11.5466 17.337 11.8466C16.187 11.9466 14.737 12.2466 14.137 12.4466C13.237 12.7466 12.537 12.2966 10.537 10.2466C8.53699 8.29659 8.13699 8.04659 8.73699 9.14659ZM18.637 13.1466C19.737 13.5966 20.787 15.0466 20.337 15.5466C20.237 15.6466 19.087 15.2466 17.787 14.6966C14.687 13.2966 15.437 11.9466 18.637 13.1466ZM18.237 16.0966L19.737 16.8466L18.587 17.3466C16.937 18.0966 14.787 17.2466 14.587 15.7466C14.437 14.7466 14.537 14.6466 15.587 14.9466C16.237 15.1466 17.387 15.6466 18.237 16.0966Z" fill="white"/>
<path d="M3.13699 11.4466C3.13699 13.0966 3.23699 13.6966 3.33699 12.7966C3.43699 11.8966 3.43699 10.5466 3.33699 9.79661C3.23699 9.04661 3.13699 9.79661 3.13699 11.4466Z" fill="white"/>
<path d="M23.937 10.0466C23.287 10.8466 23.337 10.8966 24.137 10.2466C24.587 9.8966 24.987 9.4966 24.987 9.3966C24.987 8.9966 24.587 9.2466 23.937 10.0466Z" fill="white"/>
<path d="M30.637 18.9466C30.637 20.5966 30.737 21.1966 30.837 20.2966C30.937 19.3966 30.937 18.0466 30.837 17.2966C30.737 16.5466 30.637 17.2966 30.637 18.9466Z" fill="white"/>
<path d="M14.237 27.1966C14.387 27.4466 14.637 27.6966 14.787 27.6966C14.887 27.6966 14.987 27.4466 14.987 27.1966C14.987 26.8966 14.737 26.6966 14.437 26.6966C14.187 26.6966 14.087 26.8966 14.237 27.1966Z" fill="white"/>
</svg>
