<svg width="40" height="55" viewBox="0 0 40 55" fill="none" xmlns="http://www.w3.org/2000/svg">
<g clip-path="url(#clip0_437_1275)">
<path d="M15.9357 0.000204127C15.9148 -0.00387842 15.9255 0.0610341 15.977 0.21168C15.9786 0.216375 15.9838 0.234645 15.9857 0.240768C16.0242 0.466227 16.1245 0.875503 16.2576 1.33244C16.7153 2.90463 17.0292 4.68666 17.176 6.40266C17.1982 6.93921 17.2063 7.5372 17.2066 8.25379C17.2073 9.22789 17.1928 9.98663 17.1467 10.6501C16.4874 15.8907 14.2476 20.032 8.69134 26.2927C5.65372 29.7157 4.63277 31.005 3.68685 32.6131C2.6259 34.4169 2.16222 35.8205 1.88879 38.056C1.69895 39.6086 1.83868 41.2806 2.24499 42.812L2.24683 42.8195C2.24887 42.8274 2.25163 42.8362 2.25377 42.8442C2.6115 44.1785 3.17163 45.4044 3.89291 46.3491L4.14889 46.6844L4.34332 46.9548C4.33903 46.9607 4.33386 46.9658 4.32801 46.9701H4.08459L3.73737 46.9224C3.3729 46.8724 2.38278 46.4989 1.53728 46.0924C1.24184 45.95 0.943119 45.8146 0.641368 45.6862C0.269142 45.4957 0 45.3813 0 45.4195C0 45.4308 0.00244953 45.445 0.00734859 45.4621C0.00285778 45.4636 0 45.466 0 45.4697C0 45.6823 0.860193 46.8958 1.69477 47.9113C1.93094 48.1986 2.16569 48.4731 2.37757 48.7008C4.42069 50.8972 6.81684 52.3784 9.58879 53.1575C10.3094 53.3721 11.0399 53.5317 11.7714 53.6306C11.9494 53.6547 12.1361 53.6731 12.3263 53.6888C12.3362 53.6905 12.3755 53.6968 12.3838 53.6982C12.5272 53.7229 12.7908 53.7331 13.1188 53.7335C13.2838 53.7408 13.4494 53.7465 13.6161 53.749C13.6335 53.7499 13.6624 53.7521 13.6765 53.7526C13.7836 53.7565 13.9125 53.7553 14.0572 53.75C15.5438 53.7344 17.0417 53.5289 18.2353 53.1528C19.9522 52.6118 21.5799 51.4983 22.6787 50.113C22.9314 49.7943 23.1979 49.3853 23.455 48.9328L23.4556 48.9318C23.5904 48.7093 23.7177 48.4808 23.8375 48.2463C23.8761 48.172 23.9129 48.0965 23.9498 48.0211C23.9498 48.0208 23.9499 48.0205 23.9501 48.0203C24.1175 47.6768 24.2656 47.3243 24.3938 46.9643C24.5518 46.5605 24.6818 46.1713 24.7688 45.8255C24.9327 45.1739 25.0373 44.3213 25.0444 43.791C25.0472 43.7248 25.0461 43.6586 25.0413 43.5926C25.0326 43.4096 25.0056 43.2956 24.9566 43.2956C24.911 43.2956 24.5435 43.5973 24.1399 43.9662C23.8794 44.2037 23.5997 44.4193 23.3036 44.6106C22.8961 44.8474 22.4612 45.0689 22.0855 45.2263C21.7349 45.3586 21.3722 45.4562 21.0026 45.5179C20.8035 45.5287 20.5702 45.5324 20.2766 45.5331C19.9061 45.5339 19.6339 45.5279 19.4027 45.5097C19.3928 45.5077 19.3827 45.5062 19.3728 45.5041C18.2365 45.2658 17.4387 44.8281 16.6012 43.9835C15.3209 42.6925 14.7009 40.9803 14.7016 38.7369C14.7022 36.5483 15.1753 34.8956 16.7469 31.5924C17.9776 29.0054 18.6418 27.2447 19.1852 25.1283C19.3398 24.5247 19.4758 23.9165 19.5933 23.3046C19.678 22.8869 19.7543 22.4681 19.8213 22.046C19.8537 21.8418 19.8822 21.5986 19.9087 21.339C20.2778 18.4687 20.2722 15.4899 19.9009 12.5126C19.8774 12.2991 19.8525 12.0982 19.8246 11.928L19.8191 11.8964C19.438 9.21198 18.7689 6.57636 17.8233 4.03519C17.3111 2.65917 16.6539 1.16863 16.2729 0.466533C16.1245 0.182796 16.0178 0.0154116 15.9886 0.0447039C15.9878 0.0455204 15.9885 0.0525628 15.988 0.0547062H15.9878C15.964 0.022352 15.9457 0.00204127 15.9357 0V0.000204127ZM30.0115 3.18949C29.8372 3.25022 28.4775 5.69669 27.5426 7.64151C26.2605 10.3088 25.4335 12.618 24.9732 14.8746C24.9423 15.0054 24.9125 15.1366 24.8839 15.2679C24.8179 15.572 24.7626 15.9372 24.716 16.3362C24.6704 16.6421 24.6377 16.9497 24.618 17.2584C24.5765 17.7037 24.548 18.1501 24.5323 18.5971C24.5303 18.6553 24.5301 18.71 24.5284 18.7676C24.5231 18.9197 24.5196 19.0709 24.5181 19.2213C24.5006 20.3319 24.5468 21.3376 24.6895 22.3446C24.7254 22.6478 24.7679 22.9224 24.8181 23.1551C24.843 23.2713 24.8692 23.3858 24.8954 23.5002C25.3715 25.7294 26.3495 28.1795 28.141 32.0008C29.2376 34.3395 29.912 36.203 30.393 38.2398C30.5178 38.8072 30.6201 39.3793 30.6998 39.9548C30.7533 40.4305 30.7882 40.9387 30.8067 41.4527C30.8101 41.9959 30.8098 42.539 30.8059 43.0822C30.7761 43.8671 30.7032 44.5979 30.5865 45.1747C30.5626 45.2856 30.5373 45.3958 30.5105 45.5053C30.5075 45.5166 30.5049 45.5299 30.5019 45.5411C30.156 46.8162 29.65 47.9633 28.9799 48.9908C28.5568 49.6238 28.064 50.2227 27.4984 50.7869C27.1322 51.1515 26.7464 51.4959 26.3429 51.8187C26.3021 51.85 26.2632 51.8824 26.222 51.9134C25.284 52.6194 23.7143 53.4964 23.0102 53.7081C22.5678 53.841 22.8094 53.9673 24.0224 54.2368C24.5986 54.3648 25.5426 54.4243 26.5605 54.4257C26.7035 54.4289 26.8469 54.4322 26.9915 54.4343C27.5315 54.4415 28.0714 54.4163 28.6084 54.3587C29.2547 54.3269 29.6748 54.2763 30.1086 54.1779C30.3253 54.1403 30.5226 54.0995 30.6871 54.0541C33.4659 53.2883 36.0745 51.5852 37.6404 49.5147C37.7996 49.3041 37.9688 49.0491 38.1394 48.7691C38.6264 48.0353 39.0243 47.246 39.3246 46.4181C39.4764 46.0468 39.5997 45.6987 39.6788 45.405C39.7809 45.0261 39.86 44.5089 39.9125 43.951C39.9909 43.3657 40.0178 42.7797 39.9839 42.1715C39.976 41.6966 39.9443 41.2667 39.8844 40.9489C39.3045 37.8692 37.8182 34.9115 32.9602 27.1697C31.88 25.4482 30.7348 23.5192 30.4152 22.883C29.1384 20.3409 28.418 17.444 28.2605 14.4019C28.2513 14.0124 28.2472 13.5999 28.248 13.1529C28.2482 12.6991 28.2529 12.2454 28.2619 11.7917C28.3842 9.45018 28.8276 7.05944 29.5977 4.70851C29.7634 4.20247 29.8932 3.76615 29.9653 3.48874C29.9805 3.44394 29.9949 3.39964 30.0103 3.35473C30.031 3.29452 30.032 3.27053 30.0167 3.27737C30.0255 3.23073 30.03 3.19674 30.0247 3.19133C30.0246 3.19119 30.0244 3.19119 30.0241 3.19133V3.19072C30.0239 3.19041 30.0231 3.19123 30.0229 3.19112C30.0213 3.18986 30.0194 3.18904 30.0174 3.18876C30.0154 3.18847 30.0134 3.18872 30.0115 3.18949Z" fill="#E8DDAF"/>
</g>
<defs>
<clipPath id="clip0_437_1275">
<rect width="40" height="54.4356" fill="white"/>
</clipPath>
</defs>
</svg>
