<svg width="70" height="70" viewBox="0 0 70 70" fill="none" xmlns="http://www.w3.org/2000/svg">
<g clip-path="url(#clip0_410_776)">
<path d="M32.6757 8.81014C33.8679 6.11952 34.6445 3.26483 35 0.33905C35.35 3.24843 36.132 6.09218 37.3078 8.77733C44.2968 9.46639 50.9687 12.9664 55.3382 18.4898C58.6031 22.482 60.5062 27.4859 60.9984 32.6047C63.6289 33.7695 66.407 34.5297 69.2398 35.0055C66.396 35.4594 63.6179 36.2633 60.971 37.4008C60.2 44.5375 56.4539 51.2969 50.7007 55.6062C46.8835 58.543 42.2132 60.1836 37.4664 60.7961C36.2578 63.5961 35.3773 66.5328 34.9945 69.568C34.6171 66.5383 33.7476 63.5961 32.5335 60.7961C25.1835 59.9867 18.189 56.1422 13.8851 50.0719C11.1781 46.3695 9.5812 41.9398 9.02886 37.4062C6.27808 36.225 3.39604 35.3719 0.426514 35C3.38511 34.6226 6.27261 33.8078 9.00151 32.6047C9.61401 25.5391 13.1742 18.7742 18.7742 14.4047C22.7117 11.1836 27.639 9.32421 32.6757 8.81014ZM33.6601 11.1781H36.3398C35.8695 9.93124 35.421 8.67343 35 7.40468C34.5789 8.67343 34.1304 9.93124 33.6601 11.1781ZM20.7156 15.2305C15.3398 19.075 11.8343 25.2219 10.8882 31.7297C11.7031 31.2922 12.5125 30.8492 13.3218 30.4008C12.9007 33.4633 12.9117 36.5695 13.3164 39.6375C12.5271 39.1658 11.736 38.6973 10.9429 38.232C11.6156 41.9891 12.9609 45.664 15.2085 48.7703C18.982 54.2008 25.0851 57.843 31.6093 58.8C31.1992 58.0945 30.7835 57.389 30.3679 56.6836C33.4359 57.0937 36.5476 57.0937 39.6156 56.6836C39.2054 57.389 38.8007 58.0945 38.4015 58.8055C48.8578 57.4547 57.5914 48.6391 59.057 38.232C58.2639 38.6973 57.4728 39.1658 56.6835 39.6375C57.0882 36.5695 57.0992 33.4633 56.6781 30.4008C57.4875 30.8492 58.2968 31.2922 59.1117 31.7297C58.439 27.5297 56.875 23.45 54.25 20.0812C50.389 14.9516 44.4281 11.5992 38.0953 10.6969C38.5984 11.5719 39.1125 12.4469 39.6265 13.3164C36.5557 12.9069 33.4442 12.9069 30.3734 13.3164C30.8875 12.4469 31.4015 11.5719 31.9101 10.6969C27.907 11.364 23.975 12.7695 20.7156 15.2305ZM7.40464 35C8.67339 35.4211 9.9312 35.8695 11.1781 36.3398V33.6601C9.9312 34.1305 8.67339 34.5734 7.40464 35ZM58.8218 33.6601V36.3398C60.0687 35.8695 61.3265 35.4211 62.5953 35C61.3265 34.5734 60.0687 34.1305 58.8218 33.6601ZM33.6601 58.8219C34.1304 60.0633 34.5734 61.3211 35 62.5844C35.4265 61.3211 35.8695 60.0687 36.3398 58.8219H33.6601Z" fill="white"/>
<path d="M28.4976 28.4977C30.6632 26.1571 33.2718 24.1883 35 21.4703C37.3187 24.8664 40.6437 27.3985 43.4164 30.4063C44.9531 31.9321 46.3695 33.6383 48.2726 34.743C45.1937 37.2422 42.596 40.261 39.7359 42.9953C38.1117 44.6305 36.3945 46.1891 35 48.0375C33.1187 45.593 30.7671 43.586 28.6343 41.3711C26.3375 39.1563 24.2375 36.7227 21.7273 34.743C24.3687 33.1188 26.2335 30.5703 28.4976 28.4977ZM34.9726 22.668C34.896 23.7344 34.8632 24.7953 34.8468 25.8617C34.1765 26.8673 33.4706 27.8487 32.7304 28.8039C33.4742 28.361 34.2453 27.9782 35.0437 27.6555C35.8039 28 36.5367 28.3938 37.2421 28.8531C35.4156 27.2563 34.9562 24.9813 34.9726 22.668ZM34.475 32.1016C35.3937 33.343 36.5257 34.4149 37.7343 35.3664L38.4343 34.9672C37.6523 33.3485 36.0882 32.3149 34.8468 31.0789C34.7539 31.3305 34.5679 31.8446 34.475 32.1016ZM25.796 32.6539C25.0414 33.425 24.2812 34.1961 23.521 34.9617C25.0796 36.493 26.6273 38.0297 28.1531 39.5938C29.1757 39.2438 30.2039 38.9211 31.2429 38.6203C30.0617 37.6414 28.946 36.5969 27.8578 35.5196C28.0984 35.0383 28.3335 34.5571 28.5687 34.0758C27.5734 33.7532 26.6054 33.3375 25.796 32.6539ZM32.7195 33.1516C33.8132 34.3383 34.8468 35.6016 36.1265 36.5969C36.4109 36.5149 36.9851 36.3453 37.2695 36.2578C36.1812 35.0766 35.1531 33.8078 33.857 32.8399C33.5726 32.9164 33.0039 33.075 32.7195 33.1516ZM44.2039 32.6649C43.3945 33.3485 42.4156 33.7422 41.4312 34.0758C41.6664 34.5571 41.9015 35.0328 42.1312 35.5141C41.5515 36.0774 40.9718 36.6406 40.3867 37.2039C41.0703 37.3571 41.6554 37.6633 42.1421 38.1172C41.4367 37.9805 40.7585 37.7672 40.1023 37.4664C39.7687 37.7563 39.1015 38.325 38.7624 38.6094C39.7523 38.9539 40.7312 39.3149 41.7101 39.6922C42.4539 38.8446 43.2796 38.0789 44.1546 37.368C43.7117 37.2149 42.8312 36.9196 42.3882 36.7664C42.8585 36.8594 43.8101 37.0399 44.2804 37.1328C45.0132 36.4055 45.746 35.6836 46.4843 34.9617C45.7187 34.1961 44.9585 33.4305 44.2039 32.6649ZM31.8007 34.9563C32.6921 36.1758 33.8296 37.1985 35.0054 38.1391L35.596 37.7399C35.082 36.0446 33.2718 35.0821 32.1234 33.8078C32.0414 34.0977 31.8828 34.6664 31.8007 34.9563ZM28.4375 39.8836C28.9078 40.3485 29.3835 40.8133 29.8539 41.2782C31.0734 40.7696 32.3859 40.3867 33.7039 40.8242C32.9715 40.2376 32.2513 39.6359 31.5437 39.0196C30.5156 39.3477 29.4765 39.6211 28.4375 39.8836ZM38.4726 39.0032C37.7566 39.6272 37.0291 40.238 36.2906 40.8352C37.6085 40.3813 38.921 40.7696 40.146 41.2782C40.5726 40.8571 41.0046 40.436 41.4367 40.0149C40.4468 39.6867 39.457 39.3586 38.4726 39.0032ZM30.171 41.7321C30.6632 42.1696 31.1609 42.6071 31.664 43.0446C33.857 42.5086 36.1429 42.5086 38.3359 43.0446L39.8289 41.7321C36.6439 41.067 33.356 41.067 30.171 41.7321ZM32.189 44.0016C32.6156 44.2531 33.4796 44.7617 33.9117 45.0133C34.6335 45.0078 35.3609 45.0078 36.0882 45.0078C36.5203 44.7563 37.3843 44.2531 37.8164 43.9961C35.946 43.75 34.0539 43.7555 32.189 44.0016Z" fill="white"/>
<path d="M28.0875 37.6195C29.8047 36.9906 27.8907 39.4406 28.0875 37.6195Z" fill="white"/>
</g>
<defs>
<clipPath id="clip0_410_776">
<rect width="70" height="70" fill="white"/>
</clipPath>
</defs>
</svg>
