<svg width="70" height="70" viewBox="0 0 70 70" fill="none" xmlns="http://www.w3.org/2000/svg">
<path d="M26.1297 11.6156C27.2781 9.57032 28.35 7.48126 29.5859 5.4797C29.4437 6.2672 29.1484 7.85314 28.9953 8.64064C30.0125 9.92032 31.2266 11.0141 32.4953 12.0313C32.8016 12.7203 33.4031 14.0875 33.6984 14.7766C33.6437 15.9031 33.6 17.0297 33.5672 18.1563C33.2828 23.0453 30.975 27.8031 27.2672 31.0625C27.7156 27.6063 28.7547 24.2375 27.2563 20.8578C29.0609 18.7359 28.1859 17.1828 25.8781 16.2531C27.7156 16.3078 29.5094 16.6797 31.1281 17.5766C29.575 15.4656 27.125 14.1422 26.1297 11.6156ZM41.3 8.32345C40.95 7.26251 40.6109 6.20157 40.3047 5.1297C41.5844 7.4047 43.6406 9.65782 43.6625 12.4031C42.6016 14.5688 40.3484 15.7719 38.8062 17.5328C40.1625 17.2266 42.875 16.625 44.2422 16.3188C43.5203 16.7563 42.0875 17.6203 41.3656 18.0469C41.9453 18.9328 42.525 19.8188 43.1047 20.6938C42.3391 23.0125 41.1906 25.5609 42.5469 27.9125C42.5688 28.7 42.6125 30.275 42.6234 31.0625C39.6266 27.7266 36.9359 23.7016 36.8156 19.075L36.1922 17.9266C36.4109 17.6203 36.8484 17.0297 37.0672 16.7344C36.8047 16.2203 36.2906 15.2031 36.0391 14.7C37.3297 12.2063 39.5062 10.4344 41.3 8.32345ZM46.0687 12.6984C46.3859 13.3547 47.0094 14.6563 47.3266 15.3125C48.6391 15.3016 49.9406 15.3016 51.2531 15.2906C53.1781 17.9703 58.0125 19.6109 57.0828 23.45C59.5 28.0547 60.9656 33.086 63.3828 37.7016C63.6453 41.3766 62.825 45.325 64.6625 48.7156C64.8594 45.1172 64.6406 41.5188 64.5969 37.9203C65.5813 36.3891 66.4781 34.8031 67.3641 33.2172C70.9625 38.2813 67.5609 44.6906 67.8344 50.3234C68.1625 53.5938 66.8609 56.5578 65.2203 59.2813C62.4859 58.461 59.85 57.3891 57.1156 56.5906C54.1078 45.7188 50.7828 34.9234 47.9062 24.0078C47.5453 22.4766 46.2656 21.4266 45.2594 20.3C45.9922 17.8281 46.1781 15.2578 46.0687 12.6984ZM18.9 15.3781C20.8469 15.3563 22.9906 15.5313 24.1172 13.5734C23.9531 15.8156 24.0406 18.1016 25.0469 20.1469C24.0406 21.2078 22.8594 22.2141 22.4219 23.6688C19.2172 34.65 16.275 45.7188 12.8953 56.6563C10.1828 57.1813 7.74375 58.7453 4.9875 59.0297C1.58594 55.0485 2.5375 49.536 1.8375 44.7453C1.37812 40.8735 -0.0546876 36.4438 2.74531 33.0969C3.55469 34.6719 4.39687 36.2359 5.425 37.6797C5.72031 41.3109 4.64844 45.2156 6.33281 48.6063C6.72656 45.1828 6.35469 41.7266 6.69375 38.3141C8.52031 32.5063 12.3703 27.2344 13.0266 21.1422C14.9187 19.1516 16.8984 17.2485 18.9 15.3781ZM29.9688 54.0969C32.1344 44.7016 32.8125 34.9234 35.9297 25.7906C36.4109 35.6016 39.5281 45.0844 40.5344 54.8406C38.5438 57.7828 37.0125 61.0094 35.5031 64.225C33.4469 60.9656 31.6531 57.5531 29.9688 54.0969ZM21.8422 42.7219C24.6641 39.3313 27.5078 35.9516 30.2641 32.5063C29.575 36.6516 28.6453 40.786 28.35 44.9969C26.6547 46.0141 24.9266 46.9547 23.1875 47.8735C22.8484 46.1235 22.3891 44.4063 21.8422 42.7219ZM40.1516 32.9766C42.9734 36.05 45.3469 39.5172 48.2891 42.4922C47.7641 44.2531 47.2391 46.0141 46.7359 47.775C44.9969 46.8344 43.2797 45.8719 41.6063 44.8328C41.7047 40.8188 40.3922 36.9688 40.1516 32.9766Z" fill="white"/>
</svg>
