<svg width="20" height="40" viewBox="0 0 20 40" fill="none" xmlns="http://www.w3.org/2000/svg">
<path d="M1.35315 2.69375C1.37502 2.325 1.3969 1.95937 1.4219 1.59375C2.4344 1.91562 3.50627 1.80625 4.55315 1.87187C4.5344 2.01875 4.50002 2.31562 4.4844 2.4625C3.43752 2.50312 2.3844 2.475 1.35315 2.69375ZM12.5563 1.64688C13.3719 1.6875 14.1938 1.65312 15.0094 1.70937C15.0063 1.9 15 2.27812 15 2.46875C14.3281 2.91562 13.2719 2.54063 12.45 2.56875C12.4782 2.3375 12.5281 1.87812 12.5563 1.64688ZM15.7782 1.84687C16.7282 1.83437 17.6844 1.84375 18.6125 1.60938C18.6157 1.96875 18.6188 2.33125 18.625 2.69375C17.6906 2.51562 16.7406 2.49062 15.7938 2.4875C15.7281 2.4125 15.5938 2.26563 15.5281 2.19063C15.5906 2.10625 15.7157 1.93125 15.7782 1.84687ZM4.96877 1.70625C5.7469 1.6375 6.5344 1.64062 7.31252 1.69687C7.35002 1.93125 7.42502 2.4 7.46565 2.6375C6.57815 2.64687 5.69377 2.64687 4.80627 2.64062L4.96877 1.70625ZM7.68127 1.84062C9.1344 1.8375 10.5875 1.80625 12.0375 1.81875C12.0844 1.9125 12.175 2.09375 12.2188 2.18437L12.0094 2.50625C10.5625 2.5125 9.11877 2.475 7.6719 2.5C7.67502 2.33437 7.68127 2.00312 7.68127 1.84062ZM2.7719 3.32812C7.53127 3.82812 12.35 3.925 17.1031 3.2875C17.15 12.6656 17.1063 22.0437 17.1219 31.4219C16.4 32.0812 15.6875 32.775 14.8094 33.225C13.5188 33.9281 12.0281 34.125 10.7125 34.7719C9.24377 35.4219 8.01877 36.5062 6.5594 37.1719C5.3594 37.7562 4.03752 38 2.7594 38.35C2.80002 26.6781 2.77815 15.0031 2.7719 3.32812ZM12.7156 4.10625C12.7125 4.33125 12.7125 4.78437 12.7125 5.0125C14.0125 4.89062 15.3156 4.79375 16.6156 4.68125L16.6406 3.80625C15.3469 4.04687 14.0281 4.10625 12.7156 4.10625ZM3.1719 3.82812C3.20315 4.02812 3.26877 4.425 3.30002 4.625C4.5969 4.86562 5.9219 4.86875 7.2344 4.975C7.2344 4.76875 7.23752 4.35625 7.24065 4.15C5.87815 4.10625 4.5219 4.0125 3.1719 3.82812ZM8.06252 4.175C8.0594 4.38437 8.05627 4.80625 8.05315 5.01562C9.3344 5.04062 10.6156 5.04062 11.8969 5.0125C11.8656 4.80937 11.8 4.40625 11.7688 4.20312C10.5344 4.16562 9.2969 4.23437 8.06252 4.175ZM8.49065 13.3687C7.75627 13.8125 7.0219 14.2469 6.28752 14.6875C5.8719 14.5094 5.47502 14.2469 5.01877 14.1937C4.1969 14.2812 3.48752 15.0812 3.65002 15.9187C3.73127 16.5594 4.37502 16.8656 4.80315 17.2625C4.80315 18.1125 4.7969 18.9625 4.7594 19.8125C3.92502 20.2031 3.21252 21.1906 3.86252 22.0687C4.38127 22.9781 5.5469 22.8656 6.27502 22.2875C6.9969 22.725 7.7219 23.1531 8.45627 23.5656C8.47815 24.4 8.7719 25.4437 9.74377 25.5719C10.8594 25.7781 11.5469 24.6 11.4375 23.6156C12.1719 23.1594 12.9188 22.725 13.6719 22.3C14 22.475 14.3375 22.6281 14.6844 22.7594C15.7125 22.9062 16.6719 21.6687 16.1594 20.7281C15.9688 20.275 15.4813 20.0656 15.125 19.7656C15.1125 18.9094 15.1156 18.0531 15.1469 17.1969C15.9781 16.7906 16.7032 15.7781 16.0563 14.8937C15.5344 13.9937 14.3875 14.1469 13.6656 14.6969C12.9219 14.2625 12.1781 13.8281 11.4375 13.3844C11.5719 12.375 10.8219 11.1719 9.69065 11.4281C8.75627 11.5719 8.4844 12.5625 8.49065 13.3687Z" fill="#E8DDAF"/>
<path d="M11.0562 13.8C11.8208 14.274 12.5993 14.7252 13.3906 15.1532L13.4094 16.1657C12.3594 16.7844 11.3 17.3875 10.2594 18.025C10.2562 16.8125 10.2562 15.6 10.2687 14.3875C10.5312 14.1938 10.7937 13.9969 11.0562 13.8ZM6.4781 15.225C7.25935 14.75 8.04373 14.2875 8.83123 13.825C9.11248 14 9.3906 14.175 9.67185 14.35C9.6656 15.5657 9.66873 16.7813 9.67498 18C8.61248 17.4032 7.56873 16.7813 6.50935 16.1782C6.5031 15.9407 6.48435 15.4625 6.4781 15.225ZM5.3656 17.1875C5.64998 17.0063 5.93435 16.8282 6.21873 16.6469C7.2781 17.2844 8.34685 17.9032 9.44373 18.4782C8.3656 19.0844 7.2906 19.6969 6.2406 20.3532C5.94998 20.1719 5.65935 19.9969 5.37185 19.8188C5.37185 18.9407 5.37185 18.0657 5.3656 17.1875ZM10.5125 18.4813C11.5844 17.8782 12.6531 17.2719 13.7094 16.6407C13.9219 16.775 14.3469 17.0407 14.5594 17.175C14.5562 18.075 14.5531 18.9782 14.5312 19.8782C14.3156 19.9938 13.8844 20.225 13.6687 20.3438C12.6312 19.6969 11.5719 19.0907 10.5125 18.4813ZM6.5281 20.7844C7.58748 20.1969 8.6281 19.5782 9.68435 18.9844C9.66873 20.2188 9.67185 21.4532 9.64998 22.6875C9.36873 22.8438 9.08748 23.0032 8.80623 23.1594C8.04685 22.6782 7.27185 22.2282 6.49373 21.7907C6.5031 21.4532 6.5156 21.1188 6.5281 20.7844ZM10.2469 18.9657C11.2906 19.5782 12.3312 20.1969 13.3937 20.7782C13.3969 21.1157 13.4 21.45 13.4062 21.7875C12.65 22.2219 11.9 22.6719 11.1687 23.1532C10.8594 22.9813 10.55 22.8094 10.2406 22.6407C10.2656 21.4157 10.2656 20.1907 10.2469 18.9657Z" fill="#E8DDAF"/>
</svg>
