<svg width="34" height="30" viewBox="0 0 34 30" fill="none" xmlns="http://www.w3.org/2000/svg">
<path d="M15.15 0.55001C14.25 0.70001 13.2 1.10001 12.9 1.40001C12.45 1.75001 11.95 1.70001 11.3 1.20001C10.7 0.80001 9.1 0.50001 7.35 0.50001C4.7 0.50001 4.25 0.65001 3 2.00001C2.15 2.90001 1.35 4.50001 1.05 6.05001C0.349997 9.25001 0.399997 9.80001 1.35 12.25C1.85 13.65 2.1 15.65 2 18.85C1.9 24.65 3 27.65 5.7 28.75C8.15 29.8 10.35 29.7 11.35 28.55C12.15 27.6 12.15 27.6 13.05 28.65C14.2 30.15 18.55 30.15 21.05 28.7C22.55 27.8 22.95 27.75 24.25 28.3C26.5 29.3 30.2 29.15 31.5 28.1C33.35 26.6 33.95 19.6 32.45 17.7C32.15 17.35 32.2 16.25 32.55 14.85C33.3 12.1 32.55 4.65001 31.3 2.80001C29.9 0.65001 24.7 -0.0499905 22.65 1.60001C22.2 1.95001 21.75 1.90001 21.25 1.50001C20.2 0.60001 17.05 0.15001 15.15 0.55001ZM10.5 1.65001C11.6 2.20001 11.75 2.60001 11.8 5.25001C11.85 10.5 11.95 10.95 13.5 12.7C14.5 13.8 15.95 14.75 17.65 15.25C21.55 16.5 22 17.3 22 22.5C22 26.7 21.95 27 20.7 27.95C19.75 28.7 18.65 29 16.7 29C13.45 29 12.5 27.95 12.5 24.45C12.5 20.35 11.75 19.15 8.05 17.3C1.9 14.15 0.449997 11.15 2.25 5.10001C2.8 3.25001 3.4 2.30001 4.4 1.80001C6.1 0.85001 8.85 0.80001 10.5 1.65001ZM20.9 2.20001C21.5 2.80001 21.8 4.25001 22 7.50001C22.35 12.85 22.75 13.45 27.8 15.8C30.75 17.15 31.5 17.8 31.95 19.05C32.95 21.85 32.35 26.65 30.9 27.6C30.55 27.8 28.95 28 27.4 28C23.15 28 22.5 27.2 22.5 21.7C22.5 19.35 22.3 17.05 22.05 16.55C21.75 16.05 20.2 15.25 18.5 14.75C16.35 14.1 15 13.35 14 12.15C12.65 10.65 12.5 10.15 12.5 6.95001C12.5 3.85001 12.65 3.30001 13.8 2.15001C14.9 1.05001 15.4 0.90001 17.55 1.10001C18.95 1.25001 20.45 1.75001 20.9 2.20001ZM29.95 2.35001C31.35 3.50001 31.95 6.20001 32 11.1C32 16.55 32 16.55 28.75 15.4C27.3 14.85 25.35 13.75 24.4 13C22.8 11.65 22.75 11.5 22.55 7.30001C22.45 4.40001 22.6 2.75001 23 2.25001C23.9 1.15001 28.6 1.25001 29.95 2.35001ZM6.85 17.35C10.85 19.45 11.5 20.45 11.5 24.35C11.5 28.2 10.7 29.25 8.05 28.75C4.35 28.1 2.6 25.65 2.55 20.95C2.5 18.25 3 15.4 3.45 15.6C3.6 15.7 5.15 16.5 6.85 17.35Z" fill="white"/>
<path d="M4.54999 5.20002C3.64999 6.30002 4.04999 8.70002 5.14999 8.90002C7.79999 9.40002 9.59999 7.60002 8.49999 5.50002C7.84999 4.30002 5.44999 4.15002 4.54999 5.20002ZM7.49999 5.75002C8.19999 6.60002 7.84999 7.90002 6.74999 8.35002C5.49999 8.80002 4.79999 7.80002 5.79999 6.95002C6.59999 6.35002 6.64999 6.35002 6.34999 7.20002C6.04999 8.00002 6.09999 8.05002 6.74999 7.50002C7.14999 7.15002 7.49999 6.70002 7.49999 6.45002C7.49999 6.05002 5.84999 6.20002 4.99999 6.75002C4.29999 7.20002 4.39999 6.30002 5.09999 5.60002C5.89999 4.80002 6.74999 4.85002 7.49999 5.75002Z" fill="white"/>
<path d="M10.75 16C10.9 16.25 11.15 16.5 11.3 16.5C11.4 16.5 11.5 16.25 11.5 16C11.5 15.7 11.25 15.5 10.95 15.5C10.7 15.5 10.6 15.7 10.75 16Z" fill="white"/>
<path d="M15 17.5C15 17.75 15.25 18 15.55 18C15.8 18 15.9 17.75 15.75 17.5C15.6 17.2 15.35 17 15.2 17C15.1 17 15 17.2 15 17.5Z" fill="white"/>
<path d="M15.8 22.45C14.6 23.75 14.95 25.1 16.6 25.7C18.3 26.3 19.5 25.4 19.5 23.5C19.5 21.4 17.3 20.8 15.8 22.45ZM16.65 23.35C16.45 23.85 16.55 24.05 16.85 23.85C17.15 23.65 17.5 23.75 17.6 24.1C17.75 24.45 17.95 24.35 18.15 23.8C18.35 23.3 18.3 23.05 18 23.25C17.7 23.4 17.5 23.3 17.5 23C17.5 22.65 17.8 22.5 18.15 22.6C18.45 22.75 18.75 23.25 18.75 23.8C18.75 24.85 17.05 25.2 16.4 24.25C15.85 23.55 15.9 22.5 16.5 22.5C16.75 22.5 16.8 22.85 16.65 23.35Z" fill="white"/>
<path d="M15.5 4.90001C13.3 6.70001 15.55 9.80001 18.1 8.45001C19.7 7.60001 19 4.00001 17.2 4.00001C16.9 4.00001 16.1 4.40001 15.5 4.90001ZM16.2 6.15001C15.95 6.50001 16.1 6.40001 16.6 5.90001C17.05 5.40001 17.5 5.00001 17.65 5.00001C18.1 5.00001 18.45 6.50001 18.2 7.25001C17.8 8.20001 16.95 8.20001 15.75 7.30001C14.9 6.70001 14.9 6.50001 15.45 5.80001C16.25 4.85001 16.85 5.15001 16.2 6.15001Z" fill="white"/>
<path d="M24.5 16C24.5 16.25 24.75 16.5 25.05 16.5C25.3 16.5 25.4 16.25 25.25 16C25.1 15.7 24.85 15.5 24.7 15.5C24.6 15.5 24.5 15.7 24.5 16Z" fill="white"/>
<path d="M25.35 21.85C24.55 22.6 25 24.95 26 25.25C28.25 25.95 30 24.35 29 22.45C28.5 21.5 26.05 21.1 25.35 21.85ZM27.8 22.7C28.8 23.45 28.55 24.1 27.05 24.35C26.1 24.5 25.25 23.3 25.8 22.45C26.15 21.8 26.65 21.9 27.8 22.7Z" fill="white"/>
<path d="M26.4 2.85001C26.75 3.00001 27.2 2.95001 27.35 2.80001C27.55 2.65001 27.25 2.50001 26.7 2.55001C26.15 2.55001 26 2.70001 26.4 2.85001Z" fill="white"/>
<path d="M29.2 4.00001C30.25 5.60001 30.2 7.45001 29.15 8.60001C28.15 9.70001 28.6 9.80001 29.7 8.70001C30.8 7.60001 30.7 5.35001 29.45 3.95001L28.4 2.75001L29.2 4.00001Z" fill="white"/>
<path d="M25.3 4.80002C23.15 6.90002 25.8 10.25 28 8.25002C29.25 7.10002 29.3 5.20002 28.05 4.50002C26.7 3.80002 26.2 3.85002 25.3 4.80002Z" fill="white"/>
<path d="M23.5 8.20001C23.5 8.30001 23.9 8.70001 24.4 9.05001C25.15 9.70001 25.2 9.65001 24.55 8.85001C23.9 8.05001 23.5 7.80001 23.5 8.20001Z" fill="white"/>
<path d="M26.15 9.85002C26.6 9.95002 27.3 9.95002 27.65 9.85002C27.95 9.70002 27.6 9.60002 26.75 9.60002C25.95 9.60002 25.65 9.70002 26.15 9.85002Z" fill="white"/>
<path d="M6.39999 20.85C6.69999 20.95 7.29999 20.95 7.64999 20.85C7.94999 20.7 7.69999 20.6 6.99999 20.6C6.29999 20.6 6.04999 20.7 6.39999 20.85Z" fill="white"/>
<path d="M4.5 21.75C4.15 22.2 3.95 22.6 4.05 22.75C4.2 22.85 4.55 22.5 4.9 22C5.6 20.8 5.4 20.7 4.5 21.75Z" fill="white"/>
<path d="M6.4 21.85C5.25 22.15 4.7 24.3 5.5 25.25C6.8 26.85 9.8 25.65 9.4 23.7C9.2 22.65 7.5 21.6 6.4 21.85Z" fill="white"/>
<path d="M9.8 22.15C9.95 22.65 10.25 22.9 10.4 22.75C10.55 22.6 10.4 22.2 10.05 21.85C9.55 21.4 9.5 21.45 9.8 22.15Z" fill="white"/>
<path d="M4 24.95C4 25.45 5.95 27.25 6.15 26.95C6.25 26.85 5.8 26.25 5.15 25.65C4.5 25.05 4 24.7 4 24.95Z" fill="white"/>
<path d="M9.3 26.25C8.75 26.65 8.55 27 8.85 27C9.15 27 9.65 26.65 10 26.25C10.8 25.3 10.55 25.3 9.3 26.25Z" fill="white"/>
</svg>
