<svg width="70" height="70" viewBox="0 0 70 70" fill="none" xmlns="http://www.w3.org/2000/svg">
<path d="M34.7266 6.1797C34.7266 7.19142 32.8125 10.1172 30.6797 12.3594C26.0312 17.2266 18.1016 22.8867 8.69531 28C7.38281 28.7109 6.23437 29.4219 6.15234 29.5313C5.71484 30.2422 5.49609 34.4805 5.76953 37.1602C6.45312 44.543 9.40624 51.4336 13.9726 56.4649C16.0508 58.707 16.1055 58.2969 14.082 55.6445C9.8164 50.0391 8.33984 44.2422 10.0625 39.7031C10.9648 37.3789 12.1953 36.0391 14.9023 34.3985C16.2695 33.5781 21.3281 30.4609 26.1953 27.5078L35.0273 22.1211L43.1484 27.043C58.543 36.3125 57.6953 35.7656 58.9805 37.6524C60.375 39.7578 60.8125 41.6719 60.6211 44.8438C60.4023 48.5078 58.6523 52.4727 55.5898 56.2188C53.9766 58.2149 54.3594 58.5156 56.082 56.6016C59.9375 52.2813 62.8906 46.2656 64.0117 40.4688C64.3945 38.5274 64.5039 31.1719 64.2031 30.0781C64.0391 29.5586 63.1641 28.9297 60.5391 27.4805C56.2461 25.1016 50.832 21.6836 47.1953 19.0313C41.1523 14.6289 37.625 10.9922 36.0117 7.60157C35.1641 5.76954 34.7266 5.3047 34.7266 6.1797Z" fill="#E5E5E5"/>
<path d="M34.3437 28.6289C33.1953 31.3633 28.1367 35.6016 20.5898 40.1133C18.5117 41.3437 16.5976 42.5195 16.3242 42.7109C15.8867 43.0117 15.8047 43.4492 15.832 45.8008C15.8593 51.2422 17.1718 55.0977 20.5625 59.5273C22.2031 61.6602 22.3398 61.2773 20.7812 58.9805C19.0312 56.4102 18.3203 54.332 18.3203 51.8984C18.3203 49.6563 19.1679 47.7422 20.5625 46.6758C22.2578 45.418 34.6718 38.0078 35.082 38.0078C35.3007 38.0078 37.0781 38.9922 38.9922 40.168C40.9336 41.3711 44.2422 43.3672 46.3476 44.6523C49.9843 46.8398 50.2031 47.0313 50.9687 48.4805C51.3789 49.3008 51.8164 50.5313 51.8711 51.2148C52.1445 53.5117 51.0507 56.6289 49.0273 59.418C47.6328 61.3047 48.125 61.3047 49.6015 59.418C51.3515 57.2305 52.9648 54.0039 53.5937 51.4883C54.25 48.9453 54.5508 45.3906 54.2226 43.9141C54.0039 42.9023 53.8125 42.7383 50.2851 40.6055C48.2617 39.4023 45.4453 37.5977 44.0234 36.6406C40.8242 34.4531 36.3672 30.1055 35.6836 28.4922C35.3828 27.8633 35.1093 27.3438 35.0273 27.3438C34.9453 27.3438 34.6172 27.918 34.3437 28.6289Z" fill="#E5E5E5"/>
<path d="M34.7266 42.4922C34.7266 43.8867 30.2969 47.6875 25.2109 50.668L22.3672 52.3359L22.4766 55.207C22.5859 57.9141 22.668 58.2695 23.707 60.4297C24.8555 62.7812 26.0586 64.5312 26.3594 64.2305C26.4687 64.1484 26.1133 63.4375 25.5937 62.6445C23.7891 59.9648 23.707 56.8203 25.4297 55.2617C25.8398 54.8789 28.1914 53.3477 30.625 51.8711L35.0547 49.1914L39.9219 52.1445C45.418 55.4531 45.9375 56 45.9375 58.4609C45.9375 59.9922 45.4453 61.3867 44.2422 63.1094C43.1484 64.6953 43.4492 64.8867 44.6523 63.3828C46.4297 61.168 47.5234 58.3516 47.7695 55.207C47.9609 52.6914 47.7148 52.1719 45.9922 51.2969C41.918 49.2187 36.2852 44.707 35.5469 42.9023C35.1914 42.082 34.7266 41.8359 34.7266 42.4922Z" fill="#E5E5E5"/>
</svg>
