<svg width="50" height="50" viewBox="0 0 50 50" fill="none" xmlns="http://www.w3.org/2000/svg">
<path d="M22.1992 11.043C23.1953 9.27343 25.6758 9.53515 27.2773 10.2109C28.4727 11.8203 26.8477 13.5195 26.3633 15.0742C25.9219 15.7578 25.8555 17.1875 24.832 17.1641C23.8281 16.1836 23.6016 14.6562 22.957 13.4336C22.5469 12.6953 22.2344 11.8984 22.1992 11.043ZM18.668 12.8008C19.0898 12.3984 19.7461 12.5469 20.2734 12.4375C21.0234 13.5742 21.6914 14.9648 21.4297 16.3594C20.9805 17.8711 19.3633 18.4805 18.5117 19.7148C16.75 21.7187 15.3281 24.5586 16.4687 27.2109C17.4375 29.2383 18.8711 31.0664 20.7266 32.3555C21.6836 32.9883 22.2969 34.0312 22.6055 35.1172C22.6445 36.5625 22.8672 37.9922 23.0234 39.4258C23.1875 39.9414 22.5078 40.6094 22.1211 40.0156C19.5859 37.6055 16.5 35.7773 14.3555 32.9648C14.0078 32.6601 13.7891 32.0547 13.2852 32.0078C12.418 32.4687 11.6055 33.0351 10.7422 33.5078C10.25 33.6484 9.76172 33.8008 9.27344 33.9531C8.62891 33.6328 7.98047 33.332 7.32031 33.0547C8.41406 31.5195 10.5508 31.2187 12.0977 30.2422C11.9648 29.0742 11.1563 28.0664 10.8555 26.9219C8.67969 27.2773 6.48047 27.3398 4.28125 27.4336C3.05469 27.4492 1.53125 28.2187 0.523438 27.1992C1.29688 25.8828 2.00781 24.2422 3.70312 23.9609C6.06641 23.6445 8.47656 24.0352 10.8594 23.9961C10.9141 22.9844 11.2617 22.0312 11.7148 21.1367C10.0391 20.7812 8.10156 20.6641 6.83594 19.3672C6.36328 18.5703 6.17578 17.6484 5.86328 16.7851C8.39453 16.7656 10.6523 18.1992 13.0664 18.8125C14.5469 16.4922 16.6133 14.6094 18.668 12.8008ZM29.7266 12.4375C30.25 12.543 30.8945 12.3867 31.3125 12.7969C33.3867 14.5898 35.4453 16.4922 36.9336 18.8125C39.3477 18.1992 41.6016 16.7695 44.1328 16.7851C43.8164 17.6523 43.6367 18.5898 43.1484 19.3828C41.8867 20.668 39.9531 20.7812 38.2852 21.1367C38.7344 22.0312 39.0898 22.9844 39.1367 23.9961C41.5117 24.0312 43.9141 23.6523 46.2695 23.9531C47.9727 24.2305 48.6953 25.8672 49.4766 27.1875C48.4844 28.2305 46.9453 27.4453 45.7188 27.4336C43.5195 27.3398 41.3203 27.2773 39.1445 26.9219C38.8555 28.0703 38.0078 29.0781 37.918 30.2539C39.4609 31.2187 41.5859 31.5234 42.6797 33.0547C42.0156 33.332 41.3633 33.6328 40.7227 33.9609C39.3164 33.6484 38.1094 32.875 36.9219 32.1016C36.4375 31.7539 36.1484 32.4648 35.8477 32.7226C33.5938 35.7148 30.3477 37.6758 27.6445 40.2031L27.3516 40.2539C26.4844 39.3086 27.3984 37.8789 27.2969 36.7383C27.1758 35.0625 27.8477 33.3047 29.2773 32.3516C31.1289 31.0625 32.5625 29.2383 33.5312 27.2109C34.6719 24.5625 33.2539 21.7226 31.4961 19.7227C30.6406 18.4805 29.0156 17.875 28.5664 16.3516C28.3125 14.9609 28.9727 13.5703 29.7266 12.4375Z" fill="white"/>
<path d="M21.1055 25.1797C22.3477 24.4648 23.5937 23.6211 25.0078 23.3242C26.4531 23.5977 27.6406 24.582 28.9922 25.1289C28.9297 25.5586 28.7031 25.8711 28.3164 26.0625C27.2266 26.6211 26.1406 27.1992 25.0078 27.668C23.6836 27.0469 22.2773 26.5078 21.0977 25.6406C21.1016 25.5234 21.1055 25.293 21.1055 25.1797Z" fill="white"/>
</svg>
