<svg width="50" height="50" viewBox="0 0 50 50" fill="none" xmlns="http://www.w3.org/2000/svg">
<path d="M13.0527 1.57617C21.7148 1.55664 30.3809 1.54687 39.043 1.58203C39.0879 15.5703 39.0508 29.5644 39.0625 43.5547C39.0449 44.6543 39.0977 45.7559 39.043 46.8555C30.3828 46.8867 21.7168 46.8867 13.0566 46.8555C13.209 46.6211 13.377 46.3965 13.5547 46.1816C18.7676 40.0644 23.9668 33.9336 29.1738 27.8105C29.8145 27.0254 30.5273 26.2969 31.123 25.4766C31.3105 25.2812 31.0508 25.0742 30.957 24.9121C25.1035 17.3457 19.2891 9.75 13.4434 2.17773C13.3008 1.98437 13.1719 1.7832 13.0527 1.57617Z" fill="white"/>
<path d="M10.9863 16.8672C14.9199 16.875 18.8555 16.8672 22.7891 16.8711C22.8477 18.4473 22.8438 20.0332 22.793 21.6113C21.3731 21.6621 19.9473 21.543 18.5313 21.6562C18.4609 23.4902 18.461 25.3359 18.5293 27.1719C19.9473 27.2852 21.3731 27.166 22.793 27.2168C22.8438 28.666 22.8457 30.123 22.793 31.5723C18.8555 31.5801 14.918 31.5742 10.9824 31.5762C10.877 27.5645 10.9688 23.5449 10.9375 19.5312C10.9531 18.6426 10.8848 17.75 10.9863 16.8672Z" fill="white"/>
</svg>
