<svg width="50" height="43" viewBox="0 0 50 43" fill="none" xmlns="http://www.w3.org/2000/svg">
<g clip-path="url(#clip0_437_1279)">
<path d="M25.0889 0C24.5754 0 24.2105 0.0252461 23.9328 0.0938124L23.9247 0.0952468C23.863 0.109591 23.8042 0.127856 23.7483 0.150042L23.7417 0.151477L23.6384 0.155206L23.5925 0.211723C23.5683 0.227551 23.5448 0.244595 23.5222 0.262789C23.3944 0.346723 23.2825 0.452702 23.1917 0.575784C23.0383 0.776606 22.6312 1.22415 22.2872 1.57014C21.6618 2.19842 21.6609 2.19842 20.8195 2.32609C18.6583 2.65314 16.6065 3.33307 15.7043 4.02074C15.3408 4.29816 15.185 4.80968 15.3629 5.14189C15.4633 5.32923 15.3956 5.38919 14.588 5.82899C12.7177 6.84687 10.3042 8.61353 9.18673 9.78231C8.30226 10.7072 7.33315 11.9736 6.43834 13.3234L6.41711 13.3549C5.20358 15.1899 4.13004 17.1763 3.60045 18.6758C3.24643 19.6777 2.85368 21.5244 2.73605 22.737C2.66663 23.4563 2.58974 23.8582 2.47212 24.0481C2.40011 24.1118 2.30371 24.1571 2.17777 24.1964C2.02887 24.2156 1.71932 24.275 1.39829 24.3479C1.00354 24.4377 0.698861 24.5573 0.476236 24.7105C0.466195 24.7174 0.455006 24.7243 0.445252 24.7318C0.215168 24.899 0.0791826 25.1056 0.032133 25.3569C-0.0530728 25.811 0.0206575 26.0776 0.380702 26.6132C0.79296 27.2271 1.32112 27.5263 1.99445 27.5269H2.0851L2.10318 27.5272H2.11265C2.23027 27.5272 2.31834 27.5281 2.3872 27.5318L2.48101 27.5415C2.49657 27.5569 2.51034 27.5739 2.52203 27.5923L2.46294 27.9868C2.45146 28.0629 2.444 28.1337 2.44056 28.1991C2.42794 28.3196 2.43826 28.422 2.48158 28.5095C2.50186 28.5594 2.53141 28.6049 2.57023 28.6461V28.6799L2.62474 28.696C2.9713 28.9708 3.88705 29.0382 6.03641 29.1045L8.34213 29.1757C8.35361 29.198 8.37054 29.2531 8.38947 29.3309V29.4066C8.38947 29.5328 8.41701 29.7081 8.45086 29.7962L8.45316 29.8048C8.3909 29.8768 8.2618 29.9187 8.03488 29.9557C7.96268 29.957 7.89048 29.9578 7.81828 29.958C6.42744 29.9609 5.23571 30.4162 4.89517 31.0746C4.60369 31.6383 4.59968 32.1957 4.8923 33.3619C4.90378 33.4095 4.91592 33.4576 4.92874 33.5059L4.93505 33.5312C5.35104 35.1211 5.47067 35.5193 6.93523 35.6418C7.47946 35.7029 8.20988 35.7227 9.22058 35.7236H9.26763L9.31354 35.7239L9.83854 35.7242L10.2069 35.7262L11.2741 35.7428L11.6281 36.0059C11.8229 36.1505 12.4834 36.7082 13.0956 37.2452C13.7078 37.7823 14.5504 38.4513 14.9681 38.7313C15.4962 39.0883 16.0191 39.453 16.5365 39.8252C16.9821 40.1471 17.8074 40.6279 18.3706 40.8936C20.1177 41.7175 22.7207 42.7148 23.4918 42.8559C23.9128 42.9351 24.3392 42.9816 24.7673 42.9951C24.8118 42.9979 24.8523 43.0002 24.8864 43.0011C24.9392 43.0025 25.0052 43.0002 25.0789 42.9962C26.1539 42.9755 27.2334 42.699 28.7212 42.1068C31.0531 41.1791 32.2514 40.6185 33.0246 40.0929C33.4193 39.8247 34.2203 39.2813 34.8047 38.8851C35.3891 38.4889 36.3504 37.737 36.9411 37.214C37.5318 36.691 38.1739 36.1419 38.3678 35.9941L38.7115 35.7319L39.899 35.7253H40.8563C43.2025 35.7253 43.8669 35.6338 44.3248 35.2485C44.704 34.9298 44.8684 34.5407 45.192 33.1978C45.3082 32.7159 45.3691 32.3113 45.3728 31.9671C45.3805 31.8647 45.3808 31.782 45.3722 31.7275C45.368 31.7018 45.3633 31.6762 45.3582 31.6506C45.2979 31.1064 45.0523 30.7389 44.6013 30.4649C44.1581 30.1953 43.053 29.9566 42.2489 29.9566H42.1152L42.1071 29.9563H41.9473C41.7623 29.9353 41.6475 29.9132 41.5856 29.8846V29.3045L41.5959 29.1759L44.0494 29.1036C46.366 29.0357 47.0451 28.9748 47.3489 28.7729C47.3787 28.7574 47.4054 28.7413 47.4258 28.7244C47.436 28.7153 47.4456 28.7055 47.4544 28.6951L47.5818 28.6406L47.5632 28.4148C47.6068 28.1879 47.6009 27.9542 47.546 27.7297C47.515 27.6107 47.6406 27.5671 48.1315 27.5275C48.8631 27.4681 49.166 27.2779 49.652 26.573C49.8781 26.2448 49.9596 26.0537 49.9796 25.76L49.9822 25.7327C50.0165 25.5265 50.0004 25.3406 49.934 25.175C49.8115 24.7518 49.4541 24.5249 48.7162 24.3577C48.2721 24.2572 47.9677 24.1259 47.7689 23.9296C47.5933 23.7277 47.5193 23.5839 47.4691 23.2497C47.4592 23.1592 47.4541 23.0682 47.4539 22.9772C47.4519 22.2525 47.1119 19.9244 46.918 19.3053C46.6615 18.4865 46.2897 17.9477 45.9328 17.8763C45.6798 17.8258 45.4953 17.8568 45.359 17.9836C45.2566 18.0501 45.1926 18.1821 45.1318 18.4179L45.1238 18.4458C45.0621 18.6813 44.9648 19.0537 44.908 19.2729C44.8105 19.6478 44.4344 20.0911 44.1449 20.2093C44.0773 20.223 44.0077 20.2245 43.9395 20.2136C43.7544 20.1169 43.3003 19.7508 42.8321 19.315C41.6932 18.2541 41.0973 17.9078 40.5361 18.0616C40.4246 18.0874 40.3163 18.1333 40.2111 18.1993C40.1832 18.2171 40.1554 18.2372 40.1279 18.2596C39.8224 18.4684 39.6454 18.7461 39.5943 19.1039C39.5737 19.1783 39.5626 19.255 39.5613 19.3322C39.5613 19.3638 39.5708 19.4266 39.5865 19.509C39.6075 19.7454 39.6677 20.0081 39.7696 20.3008C40.0278 21.0409 40.2894 23.0999 40.1867 23.5805C40.1176 23.9038 40.0765 23.9374 39.7142 23.9672C39.6597 23.9716 39.6071 23.9747 39.5564 23.9764L39.4279 23.9701C39.3275 23.9649 39.2457 23.964 39.1734 23.962C38.9844 23.9379 38.8015 23.879 38.6338 23.7885C38.5185 23.7184 38.4061 23.6435 38.297 23.5641C38.2511 23.528 38.2052 23.4904 38.1573 23.4488C37.8884 23.215 37.2335 22.6914 36.7013 22.2849C35.4333 21.3158 34.8033 20.6746 34.1394 19.6768C33.4471 18.6365 33.4018 18.5235 32.7853 16.3016C32.0772 13.7482 31.7861 13.0827 31.1047 12.4598L30.5587 11.9607L31.3615 12.016C32.0925 12.0659 32.2147 12.0461 32.7328 11.7928C32.9455 11.6907 33.1425 11.5585 33.3178 11.4004C33.5009 11.2401 33.6534 11.048 33.7679 10.8332C33.8795 10.6355 33.9707 10.4135 34.0433 10.1627C34.1655 9.74329 34.257 9.60272 34.4378 9.55739C34.8107 9.46358 35.8409 9.6928 36.4884 10.0135C36.6573 10.096 36.8315 10.1673 37.0097 10.227C37.1124 10.2643 37.2082 10.295 37.3041 10.3153C38.2422 10.5621 39.2127 10.4952 39.7174 10.0985C39.8232 10.0169 39.8998 9.90311 39.9354 9.77428C39.9578 9.73625 39.9671 9.69188 39.9618 9.64805C39.9741 9.54253 39.9618 9.4356 39.9259 9.33562C39.8419 9.02378 39.6075 8.68181 39.2411 8.38172C38.5864 7.84524 36.4004 6.39846 35.4528 5.87432L34.6394 5.42505L34.6836 4.89316C34.7103 4.57041 34.7115 4.43472 34.6231 4.2993V4.29902L34.6222 4.29844C34.574 4.22471 34.4992 4.15098 34.3867 4.04742C33.6663 3.38384 32.087 2.82585 29.7879 2.42277C28.6131 2.21678 28.4573 2.164 28.1784 1.88113C27.9985 1.69922 27.8115 1.52447 27.6179 1.35727C27.4793 1.24165 27.2208 0.936976 27.0438 0.680498C26.9026 0.476521 26.7684 0.331643 26.5963 0.228937L26.5337 0.150616L26.4287 0.147747C26.1381 0.0335659 25.739 0 25.0889 0ZM24.8804 0.890501C25.9003 0.879599 26.176 0.943862 26.4261 1.18341C26.579 1.3303 26.7819 1.65879 26.876 1.91383C27.2578 2.94519 28.2229 5.36165 28.5568 6.1219C28.7932 6.66068 28.9266 6.96277 28.97 7.15212C28.9717 7.16388 28.9734 7.17593 28.9737 7.18454C28.9763 7.25769 28.9751 7.31651 28.9685 7.36729C28.9664 7.37302 28.9641 7.37847 28.9616 7.38364C28.9416 7.41099 28.9187 7.43853 28.8931 7.46626C28.8483 7.50442 28.7881 7.54085 28.7129 7.58675C28.3945 7.78098 28.2134 7.79102 25.0379 7.78758C23.5891 7.78586 22.737 7.77725 22.2126 7.752C21.8417 7.73077 21.6024 7.69807 21.4503 7.64671C21.4394 7.64232 21.4293 7.63773 21.4199 7.63294C21.3747 7.60888 21.3322 7.58023 21.2928 7.54745L21.2885 7.54315L21.24 7.49495C21.2219 7.47414 21.2063 7.45121 21.1936 7.42667C21.178 7.37936 21.1676 7.33049 21.1626 7.28093C21.152 7.19114 21.2119 6.96105 21.3095 6.69052C21.3382 6.62338 21.3686 6.55367 21.405 6.47621C21.7576 5.72542 22.7126 3.38098 23.0847 2.35277C23.1143 2.27129 23.1433 2.19527 23.1722 2.12182C23.324 1.77842 23.4456 1.53829 23.5518 1.37046C23.785 1.04054 24.0432 0.907714 24.3955 0.899107C24.5734 0.8949 24.735 0.892031 24.8804 0.890501ZM25.1466 2.25437C24.9432 2.25153 24.7399 2.26535 24.5387 2.29568C24.0404 2.37974 24.0386 2.38088 23.7652 3.03642C23.6146 3.39762 23.256 4.36213 22.9677 5.18005C22.408 6.77056 22.3976 7.02417 22.8902 7.12888C23.0139 7.15528 23.2064 7.1986 23.3177 7.22528C23.3484 7.23245 23.4477 7.23819 23.5819 7.24306C23.8499 7.27749 24.7409 7.27376 25.531 7.24593C27.1459 7.21724 27.5186 7.13032 27.5169 6.80154C27.5154 6.57863 26.4689 3.55253 26.1556 2.86544C26.089 2.72027 26.0385 2.61527 25.9895 2.53695C25.941 2.4417 25.9023 2.37974 25.8779 2.36482C25.8492 2.34703 25.7912 2.33355 25.7164 2.32351C25.6377 2.303 25.5579 2.28729 25.4774 2.27646C25.3677 2.26202 25.2572 2.25464 25.1466 2.25437ZM21.553 2.44343C21.5687 2.44377 21.5842 2.44668 21.5989 2.45203C21.5998 2.47785 21.537 2.65199 21.444 2.89441L21.2799 3.30352C20.9865 4.02613 20.6871 4.74633 20.382 5.46407C19.8914 6.6165 19.7181 7.10105 19.77 7.40229C19.7786 7.58962 19.8667 7.68544 20.0104 7.78643C20.1338 7.92414 20.2514 8.10717 20.2856 8.21877C20.4029 8.60377 20.6376 8.79197 21.0774 8.85394C21.7352 8.9466 26.0879 8.98189 27.8422 8.90902C29.1869 8.85308 29.4643 8.81406 29.639 8.65599C29.7526 8.55299 29.8455 8.38057 29.8455 8.27213C29.8455 8.16942 29.9723 7.96717 30.1321 7.80967C30.2328 7.73967 30.3069 7.67167 30.343 7.57012C30.5017 7.30618 30.3906 6.9754 29.9196 5.86887C29.6166 5.15129 29.3196 4.43118 29.0288 3.7086L28.5477 2.51113L28.5505 2.51056L28.918 2.57539C29.122 2.61154 29.3598 2.66175 29.4468 2.68728C29.7144 2.76474 31.1342 6.04387 31.4716 7.36356C31.5145 7.5311 31.5503 7.6908 31.5792 7.84266C31.5829 7.86389 31.5878 7.88627 31.5913 7.9075L31.5953 7.93045C31.6495 8.26525 31.6676 8.56217 31.6509 8.82554C31.6422 8.98753 31.6191 9.14843 31.5821 9.30636C31.3933 9.92317 30.8884 10.2798 30.0231 10.4683C28.9243 10.7078 28.2745 10.7061 27.5054 10.4467C27.384 10.3988 27.261 10.3553 27.1365 10.3162C25.6048 9.78948 24.1069 9.82219 22.3692 10.4189C22.13 10.501 21.9122 10.5733 21.7441 10.6269C21.5562 10.6565 21.3746 10.6737 21.1944 10.6791C21.0432 10.6542 20.8694 10.6258 20.5071 10.5692C19.2473 10.3733 18.7943 10.1504 18.5252 9.59382C18.4458 9.4303 18.3904 9.29948 18.3574 9.16607C18.3353 9.03216 18.3238 8.89671 18.323 8.76099C18.3327 8.53033 18.3818 8.23369 18.4681 7.77782C18.5298 7.45307 18.6101 7.12946 18.7183 6.78146C18.8086 6.50184 18.9144 6.20357 19.0359 5.88666C19.2459 5.35276 19.5179 4.74025 19.8756 3.98688C20.4465 2.78482 20.5332 2.65572 20.8114 2.60035C21.0014 2.56185 21.1906 2.51957 21.3789 2.47355L21.4716 2.45031C21.4908 2.44802 21.5129 2.44457 21.5281 2.44371C21.5355 2.44371 21.5467 2.44285 21.553 2.44343ZM25.0347 2.58343C25.1538 2.58257 25.272 2.58916 25.3609 2.60236C25.756 2.66261 25.8876 2.91794 26.6617 5.12698C27.1769 6.59728 27.1953 6.68191 27.0137 6.77888C26.8278 6.87814 24.5665 6.90425 23.5079 6.85003C23.2663 6.83253 23.0776 6.80986 22.98 6.78203C22.9668 6.77486 22.9568 6.76712 22.9462 6.75966C22.9146 6.71002 22.9175 6.60961 22.9671 6.41023C22.9819 6.35423 22.9973 6.29837 23.0133 6.24268C23.0245 6.20424 23.0397 6.15518 23.052 6.11358C23.1306 5.85998 23.2465 5.51887 23.4144 5.04349C24.1861 2.85798 24.2845 2.67208 24.7042 2.60609C24.796 2.59175 24.9157 2.584 25.0347 2.58314M29.8946 2.76072L30.4813 2.89728C30.6827 2.94405 30.8798 3.00429 31.0235 3.06023C31.1172 3.11876 31.2066 3.18886 31.2917 3.27052C31.3623 3.35114 31.4355 3.45126 31.5256 3.58696C31.6067 3.71159 31.6822 3.83987 31.7516 3.97139C31.7744 4.01251 31.7974 4.05507 31.8208 4.09906C32.0659 4.56694 32.2879 5.04662 32.4858 5.53637C32.7245 6.13022 32.9362 6.56601 32.9563 6.5049C33.0108 6.34252 32.3197 4.60369 31.9097 3.86983C31.7485 3.58122 31.6337 3.33909 31.6199 3.26364C31.6653 3.26306 31.7915 3.30725 31.9625 3.37868C32.1682 3.47163 32.4445 3.60102 32.7451 3.7459C33.4104 4.06693 33.7943 4.3016 33.9377 4.58132C33.9569 4.65476 33.9684 4.74025 33.9764 4.85242C33.9793 4.88972 33.9802 4.92243 33.981 4.9557C33.9532 5.10386 33.9087 5.2484 33.8485 5.38661C33.753 5.58083 33.6158 5.80461 33.4382 6.07113C32.7764 7.06605 32.7044 7.42954 33.0885 7.84409C33.1278 7.88627 33.1574 7.92442 33.1803 7.96487C33.1926 7.98859 33.2031 8.0125 33.2119 8.0366C33.2518 8.16426 33.2357 8.34643 33.1795 8.74406C33.0966 9.32903 32.9439 9.80669 32.7004 10.2144C32.687 10.2369 32.6733 10.2594 32.6593 10.2818L32.635 10.3185C32.6072 10.3606 32.5785 10.4021 32.5489 10.443L32.5363 10.4602C32.5099 10.4954 32.483 10.5301 32.4557 10.5644C32.3704 10.6645 32.2775 10.7646 32.1731 10.8667C31.9899 11.0377 31.7912 11.1912 31.5795 11.3252C30.8933 11.7656 30.2314 11.7555 29.3739 11.2916L28.7505 10.9542L29.6456 10.8544C29.9003 10.8257 30.1343 10.7861 30.3476 10.7356C30.6904 10.6676 30.9673 10.5647 31.1928 10.4201C31.4318 10.2839 31.6153 10.1197 31.743 9.92747C32.0414 9.47706 32.0477 8.71738 31.7516 7.57643C31.7403 7.52804 31.7293 7.48309 31.7183 7.44159C31.7037 7.38651 31.6839 7.31966 31.661 7.24708C31.4926 6.66699 31.2553 5.99912 30.946 5.23312C30.6044 4.38566 30.2182 3.48081 30.0883 3.22175L29.8828 2.81236C29.8792 2.79833 29.8782 2.78373 29.88 2.76933V2.7679L29.8814 2.7656C29.8853 2.76291 29.8899 2.76123 29.8946 2.76072ZM19.9981 2.7613C20.0888 2.76044 20.0432 2.90331 19.8151 3.40794C19.4895 4.12861 19.1076 5.08997 18.79 5.96039C18.6856 6.24068 18.5872 6.51207 18.5054 6.75134C18.457 6.89382 18.4119 7.03679 18.37 7.18023C18.2731 7.48606 18.2002 7.74253 18.1649 7.91381C17.9558 8.92853 17.9621 9.2355 18.2022 9.706C18.5886 10.4634 19.1076 10.7216 20.561 10.8802L21.1439 10.9439L20.4907 11.2908C19.575 11.7768 19.058 11.767 18.3138 11.2495C18.0378 11.0575 17.8066 10.853 17.6129 10.6243C17.5944 10.6025 17.5763 10.5803 17.5587 10.5578L17.5363 10.5291C17.4607 10.4306 17.3905 10.3281 17.326 10.2221L17.3209 10.2129C17.3008 10.1805 17.2827 10.1469 17.2638 10.1134C17.0314 9.68391 16.8837 9.17181 16.7953 8.52689L16.789 8.47697C16.7876 8.37751 16.7802 8.30933 16.7666 8.27242C16.7589 8.16742 16.7612 8.08938 16.7792 8.02569C16.789 8.00007 16.8014 7.9752 16.8165 7.9511C16.8372 7.92375 16.8569 7.89717 16.8756 7.87135L16.8819 7.86389C16.9026 7.83979 16.9259 7.81387 16.9519 7.78614C16.9574 7.7804 16.9614 7.77495 16.9666 7.7695L16.9683 7.76778C17.0779 7.66536 17.1456 7.5486 17.172 7.41261L17.1771 7.38938L17.1794 7.37274C17.1931 7.27836 17.1885 7.18223 17.1659 7.08958L17.1628 7.07581C17.159 7.05859 17.1546 7.04109 17.1496 7.02331C17.0779 6.74589 16.8977 6.40592 16.6011 5.97703C16.1748 5.3605 16.0812 5.14792 16.0812 4.79505C16.0812 4.63525 16.0927 4.52623 16.1243 4.43873C16.2264 4.28094 16.5489 4.04598 16.9508 3.81819C17.2895 3.64169 17.6374 3.4831 17.9928 3.34311L18.3075 3.21888L18.4882 3.15577L18.4911 3.15663L18.1061 3.87385C17.6201 4.78013 17.0739 6.1483 17.1143 6.3583C17.1309 6.44494 17.3174 6.07945 17.5286 5.54612C17.9208 4.55464 18.4656 3.56057 18.8296 3.17097C18.88 3.12064 18.937 3.07749 18.9992 3.04273C19.1024 2.99196 19.2304 2.94204 19.3629 2.89671C19.3767 2.89384 19.3908 2.88982 19.4043 2.88753C19.6082 2.85138 19.8547 2.79859 19.9511 2.7699C19.9663 2.76486 19.9821 2.76196 19.9981 2.7613ZM24.9865 3.54077C24.9475 3.54077 24.9039 3.56229 24.8574 3.60073C24.8098 3.63143 24.7616 3.68192 24.7123 3.74848C24.6285 3.84717 24.5426 3.98727 24.4546 4.16877C24.4059 4.26976 24.3571 4.38394 24.3098 4.50213C24.1468 4.87853 24.0102 5.29395 23.952 5.61612C23.9334 5.69377 23.9185 5.76492 23.9072 5.82957C23.8872 5.90215 23.8743 5.95752 23.8743 5.98133C23.8753 5.99298 23.8791 6.00421 23.8854 6.01403C23.8832 6.07485 23.8883 6.11875 23.9047 6.1351C23.9457 6.17613 24.1718 6.24068 24.4073 6.27855C24.8081 6.34281 25.4034 6.31641 25.7729 6.23924C25.8518 6.23092 25.9149 6.22203 25.9407 6.21227C25.9687 6.20166 25.9943 6.18568 26.0162 6.16522C26.0398 6.15476 26.0619 6.14115 26.0819 6.12477C26.1909 6.02293 26.1668 5.85653 25.9485 5.19583C25.7491 4.59279 25.5701 4.16246 25.4008 3.89766C25.2559 3.63487 25.1334 3.54077 24.9865 3.54077ZM25.006 3.86094C25.1036 3.86467 25.1925 3.92434 25.2843 4.05889C25.29 4.06893 25.2964 4.07783 25.3027 4.08873L25.303 4.0893C25.3253 4.12775 25.348 4.17336 25.3709 4.22328C25.5649 4.67111 25.8472 5.65026 25.8558 5.89584C25.845 5.9282 25.823 5.95567 25.7938 5.9733C25.5371 6.03756 24.469 6.06912 24.2624 6.00801C24.0857 5.95608 24.1448 5.68956 24.6486 4.27463C24.7223 4.0675 24.8124 3.93496 24.9076 3.87729C24.9246 3.87107 24.942 3.86646 24.9598 3.86352L24.9696 3.86295C24.9818 3.86142 24.994 3.86075 25.006 3.86094ZM15.747 5.77448L15.8675 5.91334L16.0723 6.19219C16.4677 6.72953 16.4863 7.20978 16.1309 7.69176C16.0455 7.8077 15.9713 7.93141 15.9091 8.06127C15.8557 8.15192 15.823 8.23283 15.805 8.32922C15.722 8.59586 15.6996 8.87762 15.7393 9.15402C15.7978 9.56255 16.1271 10.6206 16.2998 10.9537C16.3417 11.0346 16.3305 11.1014 16.2361 11.1947L16.1165 11.2833L15.8985 11.4443C15.8793 11.4569 15.8629 11.4681 15.8417 11.4815C14.308 12.4627 12.671 14.0526 11.7676 15.4386C10.4852 17.4055 9.21628 21.0808 9.03353 23.3558C8.99653 23.8169 8.9162 24.2254 8.85509 24.2638C8.79398 24.3023 7.51991 24.335 6.02379 24.3364C5.49133 24.337 5.05813 24.3356 4.70324 24.3318L4.64816 24.3313C3.60217 24.3192 3.28258 24.2842 3.25188 24.2047C3.16409 23.9772 3.3279 22.1188 3.52729 21.0762C3.95848 18.825 5.09657 16.2456 6.75478 13.7629C9.16837 10.1492 11.197 8.29307 15.0857 6.14055L15.747 5.77448ZM34.356 5.82957C34.5577 5.88924 35.2218 6.25473 36.7518 7.14265C36.8086 7.17564 36.8625 7.20806 36.9173 7.24077C37.1694 7.3972 37.4194 7.55692 37.6673 7.71987C38.6226 8.37914 39.1728 8.98706 39.3114 9.53874C39.3613 9.73784 39.3286 9.82506 39.1723 9.90883C39.1183 9.93752 39.0557 9.9597 38.9844 9.97538C38.8762 9.9903 38.7483 9.99891 38.608 10.0024C38.3578 9.99489 38.0285 9.95129 37.5792 9.86981C37.3654 9.83316 37.1538 9.78499 36.9452 9.72551C36.7848 9.67223 36.6286 9.60721 36.4778 9.531C36.3688 9.46745 36.266 9.39378 36.1709 9.31095C35.9084 9.08316 35.369 8.90501 34.9415 8.90501C34.7444 8.90501 34.533 8.81377 34.3861 8.68869C34.3176 8.58797 34.2549 8.48337 34.1985 8.37541L34.1973 8.36365C34.1973 8.28848 34.0617 8.02655 33.8955 7.78155C33.755 7.57385 33.6365 7.31478 33.6026 7.15327C33.5984 7.10749 33.5975 7.06147 33.5998 7.01556C33.6416 6.81302 33.8637 6.38441 34.0594 6.09551C34.111 6.02953 34.1592 5.96985 34.1999 5.91994C34.2516 5.87403 34.2983 5.84018 34.356 5.82957ZM36.5134 7.7411L36.4093 7.86073C36.3992 7.86475 36.3886 7.86762 36.3788 7.87221C36.2881 7.91255 36.2098 7.9763 36.1519 8.05691C36.0939 8.13753 36.0585 8.23211 36.0492 8.33094C36.0248 8.39836 36.032 8.45603 36.0693 8.52058C36.0899 8.58713 36.1241 8.65054 36.1749 8.70677C36.5269 9.09579 37.3348 8.84103 37.3348 8.34098C37.3348 8.07762 36.9971 7.8484 36.6738 7.82545L36.5134 7.7411ZM13.3664 7.80708C13.2821 7.80508 13.1923 7.83204 13.0589 7.88713C12.8207 7.98582 12.7487 8.07274 12.7424 8.27529C12.7424 8.27815 12.7413 8.2816 12.7413 8.28447L12.7418 8.29164L12.7413 8.30426L12.7427 8.32635C12.7402 8.37034 12.747 8.41395 12.7631 8.45717C12.7961 8.5748 12.8661 8.67722 12.9665 8.7475C13.2485 8.94488 13.6906 8.95091 13.8495 8.75927C13.8764 8.72634 13.8979 8.68935 13.9132 8.64967C13.9293 8.61812 13.9398 8.58407 13.9448 8.54754C13.9509 8.51044 13.9518 8.47219 13.9476 8.43279C13.9445 8.36616 13.9316 8.30035 13.9095 8.23742C13.8955 8.19532 13.8768 8.15498 13.8535 8.11721C13.803 8.02819 13.7296 7.95429 13.641 7.90319C13.5299 7.84122 13.451 7.80967 13.3664 7.80737M36.7822 8.23971C36.7918 8.24047 36.8014 8.24172 36.8109 8.24344C36.8228 8.25281 36.8355 8.26429 36.8491 8.27787C36.8689 8.29776 36.8831 8.31488 36.8915 8.32922C36.8873 8.34911 36.8695 8.37063 36.8382 8.39377C36.8108 8.3976 36.774 8.39941 36.7277 8.39922C36.5584 8.39922 36.52 8.37713 36.5811 8.30512C36.6462 8.25635 36.7217 8.23598 36.7825 8.23971M13.3489 8.24746C13.4126 8.24746 13.48 8.28934 13.5127 8.34529C13.5135 8.35635 13.5121 8.36745 13.5087 8.37799C13.486 8.39291 13.435 8.39922 13.3489 8.39922C13.2723 8.39922 13.2235 8.39434 13.1974 8.38258C13.1931 8.36642 13.1917 8.34962 13.1931 8.33295C13.2108 8.3077 13.234 8.28686 13.261 8.27204C13.2881 8.25721 13.3181 8.2488 13.3489 8.24746ZM33.4819 8.35791C33.491 8.36135 33.5019 8.37799 33.5143 8.40037L33.5794 8.55099C33.5893 8.57451 33.5985 8.60062 33.6069 8.62931L33.6147 8.65771C33.6212 8.68238 33.6273 8.70849 33.633 8.73603L33.6348 8.74578C33.6893 9.03009 33.6878 9.4544 33.6442 9.83194C33.6245 9.97504 33.5912 10.116 33.545 10.2528C33.452 10.5136 33.345 10.7047 33.1866 10.8676C33.1023 10.9451 33.0059 11.022 32.9055 11.0954C32.8108 11.1579 32.7029 11.2193 32.5784 11.2819C32.328 11.4084 31.9636 11.5432 31.7688 11.582L31.6845 11.5989C31.6079 11.609 31.5312 11.6184 31.4544 11.627L31.7183 11.4586C32.5787 10.9089 33.1927 9.95616 33.3602 8.92078C33.3846 8.80718 33.4041 8.69787 33.4136 8.60148L33.4213 8.52115C33.4423 8.40066 33.4595 8.34959 33.4819 8.35791ZM16.5305 8.39148C16.5477 8.42762 16.573 8.53635 16.6022 8.67377C16.6214 8.79312 16.6507 8.92509 16.688 9.06279C16.9471 10.1386 17.5309 10.9918 18.3651 11.5054C18.4762 11.5739 18.5249 11.6115 18.504 11.6181C18.4418 11.6049 18.3807 11.5908 18.3207 11.5756C18.2147 11.5418 18.1092 11.5063 18.0042 11.4692C16.7021 11.0145 16.1231 9.95645 16.4347 8.60148L16.4459 8.55414C16.4715 8.50116 16.4997 8.44694 16.5305 8.39148ZM10.47 10.2505C10.3466 10.2471 10.258 10.2855 10.1449 10.3842C10.0924 10.4017 10.0506 10.4215 10.029 10.4433C9.98549 10.4875 9.95279 10.5412 9.9335 10.6002C9.76653 10.8002 9.7935 10.9144 10.0204 11.1551C10.0615 11.2193 10.1125 11.2781 10.1742 11.3266C10.2155 11.3591 10.2605 11.3876 10.309 11.4121C10.447 11.5013 10.5862 11.5363 10.7775 11.5363C10.8263 11.5363 10.8739 11.5331 10.9204 11.5266C11.0877 11.5122 11.2403 11.4606 11.3418 11.3688C11.4161 11.3017 11.4663 11.242 11.4927 11.1815L11.493 11.1803L11.499 11.1651C11.5172 11.123 11.5265 11.0791 11.5269 11.0334C11.5269 10.9129 11.4038 10.7463 11.2343 10.5985C11.1003 10.4453 10.997 10.3724 10.8412 10.3423C10.7247 10.2875 10.5986 10.2563 10.47 10.2505ZM10.6679 10.7374C10.6909 10.7374 10.7141 10.7385 10.7376 10.7408C10.7554 10.7431 10.7726 10.7463 10.7893 10.7506L10.7979 10.7523L10.8094 10.7563C10.904 10.7879 10.97 10.8495 10.9703 10.9299L10.9697 10.9336C10.968 11.0311 10.8774 11.0905 10.7661 11.1051C10.676 11.104 10.5667 11.0667 10.4622 10.9898C10.4289 10.9658 10.3967 10.9403 10.3656 10.9135L10.3541 10.8911C10.3608 10.8659 10.371 10.8415 10.3848 10.818C10.4467 10.762 10.5549 10.7371 10.6676 10.7374M25.0212 10.7497C25.706 10.7388 26.4 10.8673 27.1804 11.1407C28.9341 11.7547 30.7091 12.8798 31.1434 13.6521C31.4002 14.1092 31.782 15.288 32.2772 17.1533C33.0048 19.8945 33.8086 21.0105 36.5754 23.1217C37.6282 23.925 38.9359 25.1486 39.4953 25.8386C39.5995 25.9791 39.6979 26.1197 39.7876 26.2606C39.9254 26.4938 40.0831 26.7979 40.2008 27.0553C40.3043 27.2905 40.3855 27.5019 40.4452 27.7016C40.5095 27.9684 40.5169 28.2524 40.51 28.817C40.5029 29.4281 40.4501 29.9112 40.3818 29.9933C40.3181 30.0702 40.0504 30.162 39.7871 30.1976C39.4468 30.2435 39.1152 30.3545 38.8013 30.5189C38.7643 30.5343 38.7276 30.5506 38.6914 30.5679C38.472 30.6741 38.2468 30.8468 38.0293 31.0654C37.3158 31.716 36.7842 32.6654 36.6092 33.7211C36.4876 34.4544 36.5234 34.7149 36.8272 35.1799L36.8364 35.1943C36.8479 35.2121 36.8574 35.2278 36.87 35.2465L36.8878 35.2729L36.8892 35.2749L37.0958 35.579L37.0969 35.581V35.5839C37.0728 35.6309 37.045 35.676 37.0137 35.7187L36.3918 36.3418C34.8692 37.8669 32.7107 39.4003 30.5949 40.4598C29.3759 41.0703 28.4777 41.3994 26.9394 41.7987C25.1934 42.252 24.9472 42.2563 23.4155 41.8575C21.7857 41.4329 20.5831 40.9734 19.0413 40.1856C16.9037 39.0931 15.193 37.8721 13.6909 36.3671L13.0319 35.7064C13.0118 35.6759 12.9964 35.6426 12.986 35.6077L13.1369 35.3036L13.2063 35.1794C13.295 35.0207 13.3538 34.9011 13.3908 34.7846C13.5689 34.4033 13.5592 34.2998 13.4568 33.8252C13.2359 32.8048 12.6205 31.673 11.9483 31.0505L11.946 31.0485C11.885 30.9898 11.8218 30.9335 11.7567 30.8795C11.287 30.4776 10.9563 30.3551 9.88989 30.1178C9.86436 30.1121 9.84313 30.1055 9.82133 30.0991C9.75817 30.0739 9.70101 30.0357 9.6535 29.987C9.56772 29.8628 9.52497 29.6097 9.44579 29.0296C9.44407 29.0155 9.44254 29.0012 9.4412 28.9869C9.43259 28.7493 9.44646 28.5119 9.4828 28.2745C9.57202 27.8144 9.77399 27.2762 10.087 26.6668C10.548 25.7694 11.9024 24.4004 13.6071 23.1077C14.6147 22.3437 15.2739 21.7797 15.7725 21.2271C15.8446 21.1488 15.9143 21.0682 15.9814 20.9856L15.9957 20.9689L16.0109 20.9491C16.2564 20.6448 16.476 20.3205 16.6673 19.9795C16.9987 19.3962 17.2308 18.8735 17.5355 17.942C17.5636 17.8576 17.5902 17.7741 17.6152 17.6912C17.8027 17.0928 17.9817 16.4917 18.1523 15.8881C18.7794 13.6929 18.9946 13.3509 20.2893 12.4894C21.333 11.7951 22.6469 11.2041 23.7813 10.9187C24.1867 10.8144 24.6028 10.7577 25.0212 10.7497ZM16.941 11.6895C16.9626 11.6934 16.9854 11.6995 17.0093 11.7079C17.0354 11.7194 17.0587 11.728 17.0836 11.7386C17.1295 11.7601 17.1749 11.7827 17.2196 11.8066C17.3237 11.8617 17.4491 11.9013 17.6101 11.9294C17.9492 12.0261 18.2392 12.0447 18.6649 12.0183L19.1825 11.9865L19.3632 11.987L18.8821 12.4369C18.2415 13.0362 17.9164 13.7052 17.4523 15.3821C16.9218 17.2979 16.6352 18.2254 16.2422 18.9739C16.1179 19.1977 15.9849 19.4164 15.8434 19.6297C15.6592 19.8934 15.466 20.1507 15.2642 20.4012C14.6953 21.1161 14.2572 21.5063 12.5387 22.8277C11.409 23.6964 11.3568 23.7239 10.7572 23.7635L10.3019 23.7936C10.1974 23.7638 10.1383 23.7024 10.0982 23.5971L10.0741 23.4769C10.0505 23.3559 10.0325 23.2338 10.0201 23.1111C10.0169 23.0461 10.0146 22.9778 10.0133 22.9063C10.0092 22.4249 10.0586 21.7702 10.1395 21.1996C10.4772 19.4226 11.3854 17.324 12.6492 15.5361C12.9415 15.144 13.2482 14.7629 13.5687 14.3935C14.7819 13.0594 16.4877 11.6594 16.941 11.6895ZM8.6973 12.9691C8.61979 12.9671 8.54223 12.9692 8.46492 12.9751C7.99443 13.0089 7.82516 13.0726 7.57959 13.3076C7.49068 13.3914 7.41735 13.4902 7.36298 13.5996C7.30594 13.7109 7.27614 13.8341 7.27606 13.9591V13.9614C7.27644 14.0067 7.28466 14.0541 7.30073 14.1034C7.31584 14.1755 7.34615 14.2444 7.39167 14.31C7.47544 14.4477 7.60684 14.5682 7.78069 14.6565C7.81436 14.6751 7.8485 14.6908 7.88311 14.7036L7.88541 14.7042C7.95311 14.7313 8.02608 14.7535 8.1043 14.7707C8.79054 14.9222 9.44522 14.7065 9.76079 14.2248C9.90539 14.0039 9.90567 13.9519 9.76424 13.6782C9.51149 13.1897 9.20854 12.982 8.6973 12.9691ZM8.59173 13.3888C8.72255 13.3871 8.85222 13.414 8.96726 13.4723C8.99633 13.4883 9.02474 13.5055 9.05247 13.5239C9.38411 13.7505 9.36546 14.0274 9.0014 14.2159C8.67234 14.386 8.35189 14.4035 8.01996 14.2695C7.73594 14.1548 7.67627 14.048 7.81225 13.8346C7.85586 13.781 7.90779 13.7227 7.97664 13.6539C8.00992 13.6206 8.04387 13.5904 8.07848 13.5632C8.14562 13.5185 8.21562 13.4786 8.28476 13.4456C8.38323 13.4098 8.48696 13.3906 8.59173 13.3888ZM8.49045 13.6616C8.28734 13.6616 8.18492 13.7752 8.23053 13.9144C8.2312 13.9418 8.23912 13.9685 8.25348 13.9918C8.26419 14.0063 8.27869 14.0175 8.29537 14.0242C8.36222 14.1034 8.44914 14.1677 8.49045 14.1677C8.62673 14.1677 8.8132 13.8759 8.74607 13.7672C8.71021 13.7092 8.59517 13.6616 8.49045 13.6616ZM30.3355 13.8642C30.2174 13.8642 30.0286 13.9898 29.8323 14.1766C29.7463 14.2512 29.6639 14.3398 29.5868 14.4382C29.4275 14.6264 29.2815 14.8384 29.1843 15.0378C29.1011 15.2076 29.0437 15.4618 29.0116 15.7335C28.9484 16.0548 28.9398 16.3704 29.0064 16.6338C29.0308 16.8231 29.0732 16.9752 29.1366 17.0521C29.2764 17.2205 29.2987 17.1789 29.4146 16.5365C29.575 15.6463 29.6872 15.3643 30.1651 14.6497C30.6121 13.9815 30.6376 13.8642 30.3355 13.8642ZM19.5239 13.8687C19.4967 13.8695 19.4761 13.8768 19.4619 13.8905C19.4499 13.9026 19.4711 13.9565 19.5144 14.034C19.5216 14.0524 19.5305 14.0719 19.5434 14.0942C19.5577 14.1301 19.5907 14.1754 19.6366 14.2279C19.6906 14.3083 19.7508 14.394 19.8211 14.4861C20.2133 15.0008 20.6339 16.0548 20.6367 16.5316C20.6376 16.651 20.6674 16.8578 20.703 16.9912C20.7647 17.2213 20.775 17.2242 20.9038 17.0477C21.115 16.7594 21.1198 16.2077 20.9672 15.634C20.955 15.5797 20.9402 15.5261 20.9228 15.4733C20.9164 15.4548 20.9096 15.4362 20.9024 15.4177C20.7839 15.0619 20.6089 14.7088 20.3854 14.4158C20.18 14.1467 19.7121 13.8613 19.5239 13.8687ZM25.0063 14.8585C24.9145 14.8588 24.8231 14.8724 24.7352 14.899C24.6933 14.9052 24.6516 14.9134 24.6104 14.9233C24.5542 14.9377 24.467 14.9879 24.3643 15.0599C23.9999 15.253 23.775 15.461 23.4459 15.8925C23.3642 15.9863 23.3039 16.0675 23.2795 16.1225C23.2115 16.2229 23.1714 16.2929 23.1869 16.2929C23.2118 16.2929 23.5917 16.0881 24.0312 15.8377C24.4552 15.5961 24.9111 15.3987 25.0714 15.3849C25.1598 15.3936 25.2875 15.434 25.4387 15.498C25.6488 15.5969 25.8515 15.7107 26.0454 15.8385C26.3249 16.0218 26.5716 16.1713 26.6926 16.2324C26.7905 16.2984 26.8126 16.3001 26.7767 16.2244C26.7489 16.0574 26.2491 15.4739 25.9255 15.2492C25.5437 14.9847 25.2705 14.8605 25.0063 14.8585ZM6.58867 16.9052C6.24269 16.9006 5.8508 17.0716 5.53637 17.3154C5.33497 17.4525 5.19526 17.5989 5.10919 17.7667C5.00849 17.9222 4.94825 18.0831 4.94825 18.2337C4.94825 18.6466 5.22567 19.0887 5.60063 19.2737C6.24125 19.5899 7.10536 19.3913 7.63381 18.8061L7.64241 18.796C7.84983 18.5903 7.98438 18.3571 7.98438 18.1571C7.98438 18.1285 7.98305 18.0998 7.98037 18.0711C7.97979 17.9259 7.93791 17.7773 7.85643 17.6178C7.69176 17.2953 7.00724 16.9106 6.58867 16.9052ZM22.3922 17.1031C22.2261 17.1031 21.3364 17.8163 21.1703 18.0613L21.0906 18.1339L21.1419 18.1264C21.1439 18.1761 21.1896 18.2162 21.2458 18.2162C21.4532 18.2162 22.105 17.8984 22.3291 17.6878C22.597 17.4365 22.6326 17.1031 22.3922 17.1031ZM27.5952 17.1028C27.5533 17.1028 27.5281 17.1163 27.5163 17.1401C27.4423 17.2009 27.4753 17.3309 27.5794 17.4778C27.609 17.538 27.6483 17.5946 27.6965 17.6382C27.718 17.6577 27.7498 17.6812 27.7868 17.707C27.9194 17.8264 28.0852 17.9408 28.2688 18.024C28.5898 18.1701 28.7356 18.2237 28.7955 18.2013C28.8386 18.2062 28.8328 18.1755 28.8328 18.1204C28.8321 18.1149 28.8305 18.1095 28.8282 18.1044C28.8216 18.0911 28.8139 18.0783 28.8053 18.0662C28.8045 18.0542 28.7952 18.0395 28.7775 18.0223L28.7548 18.0017C28.5132 17.7211 27.7768 17.1025 27.6517 17.1025C27.6389 17.1025 27.6269 17.1032 27.6159 17.1046C27.6141 17.1043 27.611 17.1025 27.6095 17.1025C27.6061 17.1029 27.6027 17.1035 27.5995 17.1043C27.5986 17.104 27.5961 17.1025 27.5952 17.1025M6.63974 17.4373C6.85526 17.43 7.06806 17.4872 7.25081 17.6017C7.4743 17.742 7.57442 17.9167 7.5595 18.0966C7.52393 18.2366 7.44073 18.3803 7.32512 18.5057C7.20831 18.6091 7.07682 18.6945 6.93495 18.7593C6.57117 18.932 5.98277 18.9673 5.68813 18.8431C5.62764 18.7975 5.57129 18.7466 5.51973 18.691C5.47727 18.6093 5.45403 18.4997 5.45403 18.3677C5.45403 18.2085 5.47985 18.0995 5.5553 17.9945C5.59681 17.9453 5.64252 17.8966 5.69243 17.8482C5.72571 17.8189 5.76186 17.7888 5.80432 17.7564C6.07113 17.5527 6.36146 17.4454 6.63974 17.4373ZM25.0379 17.4517C24.7464 17.4586 24.4374 17.7939 23.8783 18.4635C23.4669 18.9561 23.2362 19.2224 22.9703 19.424C22.8615 19.5032 22.7439 19.5764 22.614 19.649C22.4028 19.7608 22.1412 19.8727 21.7728 20.0268C19.622 20.9248 18.7972 21.5106 18.6506 22.2444L18.6483 22.2588C18.6268 22.3273 18.611 22.3879 18.611 22.4212C18.611 22.4427 18.6288 22.4805 18.6586 22.5293C18.7169 22.6834 18.8853 22.8713 19.2729 23.2729C19.9367 23.9606 19.9562 23.9844 19.7818 24.1832C19.6834 24.2828 19.5443 24.4036 19.3954 24.522C19.0454 24.7754 18.609 24.9966 18.403 24.9966C18.2232 24.9966 17.884 24.7929 17.3854 24.3855C16.5529 23.7056 16.373 23.6757 15.8276 24.1875C15.815 24.1982 15.8029 24.2088 15.7915 24.2191C15.7566 24.252 15.7231 24.2864 15.6911 24.3221C15.2888 24.7329 14.9374 25.2579 14.6789 25.8162C14.6287 25.9114 14.5831 26.0027 14.5472 26.0839C14.4892 26.2209 14.4439 26.3631 14.4121 26.5085C14.349 26.7142 14.2997 26.9196 14.2672 27.121C14.0822 28.2691 14.5036 31.0152 15.0654 32.326C15.3322 32.9479 15.704 33.4764 16.4476 34.2866L16.4579 34.2975C16.5007 34.3442 16.5397 34.3878 16.5847 34.4363C16.6163 34.4699 16.6444 34.498 16.6748 34.5301C16.7982 34.6641 16.9184 34.7883 17.03 34.8945C17.6689 35.521 18.2025 35.8814 19.2688 36.4546C20.2156 36.9638 20.5185 37.1534 20.6258 37.7229C20.643 37.8543 20.6591 38.0196 20.6749 38.1905C20.6826 38.3383 20.6872 38.5044 20.6909 38.696C20.7041 39.3338 20.7661 40.0117 20.8292 40.2025C20.8565 40.2857 20.8958 40.3686 20.944 40.4492C21.0364 40.6664 21.1723 40.7981 21.3812 40.9369C21.512 41.0379 21.6549 41.1188 21.7992 41.1693C22.1957 41.3076 22.5259 41.313 22.9726 41.1891C23.2371 41.1154 23.3966 40.9825 23.4838 40.7286C23.5538 40.5866 23.5704 40.4045 23.5704 40.0372C23.5704 39.9925 23.5713 39.9535 23.5722 39.913C23.5899 39.7039 23.6112 39.5395 23.6402 39.4052C23.682 39.2767 23.7449 39.1582 23.841 39.0168C23.8951 38.9364 23.9431 38.8407 23.985 38.7296L24.127 38.5382V38.5219L24.1259 38.414L24.1253 38.3245L24.2093 38.1639L24.1921 37.5674C24.2452 36.8206 24.2392 35.7551 24.1858 34.2085C24.1442 33.0082 24.1135 32.3271 24.0346 31.889L24.0237 31.5844L23.9187 31.4759C23.8197 31.2476 23.6763 31.1073 23.4583 30.9237C23.2813 30.7748 22.9247 30.5455 22.665 30.4142C22.4791 30.3195 22.3374 30.2222 22.2275 30.1037C22.1304 29.9665 22.0486 29.819 21.9837 29.6639C21.9349 29.5062 21.9022 29.3177 21.8781 29.0847C21.8719 29.0236 21.8675 28.9622 21.8649 28.9008C21.8663 28.8449 21.8683 28.7861 21.8718 28.7218C21.8789 28.5778 21.8878 28.4599 21.9008 28.3586C21.9371 28.1702 22.0057 27.9894 22.1036 27.8244C22.19 27.692 22.289 27.5681 22.3991 27.4546L22.4266 27.4271C22.7672 27.1063 23.2706 26.841 23.9609 26.6037C24.9116 26.2767 26.0185 26.4037 27.0645 26.9551L27.0667 26.9563C27.1356 26.9926 27.2043 27.0309 27.2727 27.071C27.7911 27.3746 28.0975 27.856 28.1667 28.4071C28.1716 28.4788 28.1747 28.5528 28.1744 28.6323C28.1744 28.7404 28.1701 28.843 28.1615 28.9401C28.1226 29.2052 28.0412 29.4623 27.9205 29.7015C27.8494 29.8444 27.7837 29.9546 27.7079 30.0512C27.5688 30.2016 27.3958 30.341 27.1809 30.4767C27.1322 30.5054 27.0817 30.5349 27.0249 30.5665C25.9949 31.1428 25.9852 31.1675 25.8891 33.4296C25.813 35.2233 25.7904 36.6261 25.8182 37.488C25.8211 37.7289 25.8277 37.9048 25.8383 37.9757C25.8403 37.9891 25.844 38.0038 25.8463 38.0175L25.8506 38.0614L25.8489 38.3125L25.9215 38.4252C25.9869 38.6025 26.1071 38.8122 26.2104 38.9221C26.2402 38.9537 26.2649 38.9864 26.2878 39.0205C26.3363 39.1143 26.3739 39.2121 26.4037 39.3252C26.4301 39.4609 26.4453 39.6347 26.4548 39.8789C26.4778 40.4699 26.5673 40.8044 26.7991 41.0029C26.8436 41.0573 26.9007 41.0999 26.9655 41.1271C26.9962 41.1386 27.0335 41.1486 27.0733 41.1572C27.1534 41.1865 27.2417 41.2109 27.3422 41.2307C27.7111 41.3036 27.9142 41.2829 28.3394 41.1294C29.1312 40.8437 29.2485 40.5829 29.3355 38.9138C29.3799 38.0606 29.4344 37.6191 29.5262 37.3984C29.5486 37.3562 29.5736 37.3154 29.6011 37.2762C29.7351 37.1245 30.1577 36.837 30.5946 36.6046C31.8893 35.9158 32.534 35.4559 33.3094 34.6681C33.9584 34.0086 34.4131 33.4402 34.7545 32.7793C34.7834 32.7267 34.8113 32.6743 34.8383 32.622C34.8968 32.5084 34.9567 32.3638 35.017 32.196C35.2184 31.6802 35.3739 31.0878 35.5124 30.3608L35.5127 30.3591C35.5869 29.9665 35.6526 29.5725 35.7098 29.1771C35.9775 27.3508 35.6438 25.9972 34.5818 24.6098L34.5608 24.5817C34.541 24.5565 34.5233 24.5312 34.5035 24.506L34.4788 24.4759C34.4535 24.4437 34.4282 24.4127 34.4028 24.3829C33.7584 23.6103 33.4084 23.6545 32.3925 24.5312C31.7143 25.1162 31.4074 25.1354 30.7257 24.6354C30.4589 24.4394 30.2133 24.209 30.1806 24.1233C30.1471 24.0363 30.2822 23.8263 30.5714 23.5125L30.701 23.382C31.0054 23.075 31.1738 22.8891 31.2645 22.7353C31.3405 22.6349 31.3907 22.5557 31.4033 22.5133C31.426 22.4372 31.4074 22.3021 31.3574 22.1466C31.3282 22.0135 31.2639 21.8741 31.1652 21.7148C31.1474 21.687 31.1275 21.6604 31.1058 21.6354C30.9466 21.4076 30.7283 21.2343 30.3005 20.9758C29.911 20.7406 29.4327 20.4961 29.2379 20.4327C28.7023 20.2583 27.6222 19.7781 27.1557 19.5164C26.9863 19.394 26.8266 19.2586 26.6783 19.1113C26.474 18.887 26.2797 18.6537 26.0959 18.4122C25.6048 17.7667 25.3296 17.4448 25.0379 17.4517ZM6.53675 17.7202C6.50832 17.7192 6.47989 17.7224 6.4524 17.7297C5.97215 17.7905 5.6517 18.2871 6.03641 18.5112C6.27453 18.6497 6.32617 18.646 6.68019 18.463C6.87757 18.3608 6.94987 18.2822 6.95704 18.1396C6.96213 18.1185 6.96233 18.0964 6.95761 18.0751C6.98917 17.946 6.9404 17.8407 6.83425 17.7825C6.78749 17.7541 6.72437 17.7377 6.63716 17.728C6.61794 17.7257 6.59929 17.726 6.58035 17.7251C6.56587 17.7223 6.55148 17.7207 6.53675 17.7202ZM45.81 18.3301C45.9474 18.3198 46.119 18.4363 46.2558 18.6715C46.4535 19.0112 46.5809 19.3715 46.6626 19.9161L46.6632 19.9192C46.672 19.9791 46.6802 20.0412 46.6879 20.1057L46.6936 20.1525C46.7005 20.2117 46.707 20.2732 46.7131 20.3369L46.7171 20.3777C46.7613 20.8599 46.784 21.4661 46.7949 22.2639L46.8227 24.3106L46.8219 24.3264C46.792 24.3304 46.7283 24.335 46.65 24.3393L44.0121 24.3465L41.2014 24.3545L41.1412 23.9924C41.1085 23.7933 41.0809 23.439 41.0804 23.2052C41.0789 22.6814 40.9226 21.8893 40.6724 21.1414C40.5686 20.8301 40.4527 20.2356 40.4151 19.8202C40.4062 19.7245 40.3984 19.6287 40.3916 19.5328C40.3921 19.2889 40.4151 19.0801 40.4638 18.9484C40.4971 18.8933 40.5413 18.8385 40.5998 18.7705C40.6713 18.6876 40.7235 18.6314 40.7705 18.5932C40.831 18.563 40.8941 18.5453 40.9599 18.5401C41.0212 18.5554 41.0807 18.5773 41.1372 18.6056C41.2935 18.6767 41.6975 18.9538 42.0346 19.2215C43.0071 19.9929 43.7645 20.4543 44.1779 20.5309C44.2083 20.5383 44.2358 20.5435 44.2568 20.5435L44.2757 20.5423L44.2906 20.5435C44.5417 20.5435 44.7571 20.4402 44.943 20.2288C44.962 20.2104 44.9803 20.1909 44.9981 20.1702C45.0756 20.0928 45.141 20.0084 45.1854 19.9227C45.2362 19.824 45.2996 19.6427 45.3584 19.4436C45.4392 19.2085 45.5118 18.9333 45.5765 18.6179C45.6325 18.4725 45.6971 18.379 45.7701 18.3373C45.7832 18.334 45.7966 18.3316 45.81 18.3301ZM25.0425 18.6529L25.4197 19.0052L25.5523 19.1412C26.2075 19.8134 27.0383 20.3969 28.2766 21.0553C29.4017 21.6537 29.9176 21.9423 30.026 22.2043C30.0604 22.3624 29.9623 22.5328 29.7563 22.7769C29.709 22.8248 29.6582 22.8747 29.6014 22.9292C29.1596 23.3524 28.9921 23.5833 28.9476 23.8774C28.9392 23.9189 28.9348 23.9608 28.9344 24.0031L28.9355 24.0243C28.9348 24.0384 28.9344 24.0528 28.9344 24.0673C28.9344 24.5642 29.1937 25.0273 29.7856 25.587C30.3941 26.1625 30.874 26.4141 31.3629 26.4141C31.4145 26.4141 31.4883 26.4003 31.5746 26.3768C31.5832 26.3758 31.5915 26.3747 31.5996 26.3733C31.6641 26.3613 31.7694 26.3226 31.8962 26.2678C32.3185 26.1048 32.8587 25.8331 33.2007 25.5916C33.7871 25.1779 34.1621 25.4788 34.5169 26.6473C34.7034 27.2604 34.7235 27.5091 34.6713 28.5284C34.5161 31.5402 32.9852 33.9641 30.1063 35.7577L29.9982 35.8257C29.9259 35.8699 29.8619 35.9109 29.7994 35.9511L29.7939 35.9545C29.7242 35.999 29.6545 36.0443 29.5954 36.0856C29.1292 36.4001 29.0144 36.5576 28.7955 36.9905C28.5164 37.5425 28.4828 37.7169 28.4243 38.9132C28.4066 39.3 28.3775 39.6861 28.3368 40.0711C28.3138 40.226 28.2898 40.3465 28.2651 40.4145C28.2548 40.438 28.2433 40.4587 28.2321 40.4799C28.2082 40.5181 28.1799 40.5533 28.1477 40.5849C27.9679 40.735 27.6755 40.7754 27.4322 40.6595C27.1838 40.5407 27.1591 40.4707 27.1078 39.7489C27.059 39.0595 27.0168 38.9301 26.7535 38.6556L26.7248 38.6257C26.7078 38.6024 26.6902 38.5799 26.672 38.5583C26.5744 38.4424 26.5131 38.3675 26.4735 38.2356C26.4647 38.2007 26.4572 38.1655 26.4511 38.13L26.4253 36.7564C26.4092 35.8831 26.4339 34.4277 26.4803 33.5223C26.5788 31.6096 26.5541 31.6575 27.6692 31.2209C28.5933 30.8594 28.8747 30.6505 29.2124 30.0762C29.3601 29.8249 29.4316 29.6585 29.4631 29.4215C29.5282 29.1521 29.5399 28.8726 29.4975 28.5987C29.4729 28.4355 29.4358 28.2744 29.3868 28.1168C29.0971 26.9428 28.1661 25.9886 26.7021 25.393C26.0744 25.1377 25.6028 24.9885 25.1607 24.9501C25.0246 24.9263 24.8855 24.9251 24.749 24.9464C24.2478 24.9819 23.7334 25.1644 23.0136 25.4989C20.9359 26.4657 20.0216 28.2786 20.7914 29.9055C20.9291 30.1961 21.0828 30.4285 21.2716 30.6199C21.3717 30.7277 21.4825 30.8178 21.613 30.8973C21.8362 31.0421 22.1016 31.1572 22.4272 31.2559C22.8133 31.3735 23.2035 31.5514 23.2942 31.6512C23.4296 31.801 23.4735 32.2336 23.5446 34.1078C23.592 35.3592 23.6135 36.7911 23.5925 37.2894C23.5581 38.1091 23.526 38.2318 23.2586 38.5689C22.9909 38.9072 22.9631 39.0148 22.9631 39.7065C22.9631 39.7509 22.9625 39.7868 22.9622 39.8269C22.962 39.8665 22.962 39.909 22.9611 39.9449L22.9605 39.9609L22.9582 40.0318C22.9482 40.1689 22.9335 40.296 22.9158 40.401C22.8828 40.5074 22.8285 40.5648 22.7379 40.6282C22.4846 40.8055 22.4028 40.8118 22.0729 40.6796C21.8899 40.6061 21.761 40.4435 21.6764 40.1617C21.6262 39.903 21.576 39.4336 21.5473 38.9353C21.5467 38.8966 21.5462 38.8593 21.5462 38.8191C21.5462 38.0041 21.5017 37.6523 21.3419 37.214C21.3065 37.0955 21.2596 36.9808 21.2019 36.8714C20.9816 36.4078 20.6941 36.1901 19.6857 35.5882C18.3984 34.8202 16.7698 33.1419 16.2511 32.0494C15.5628 30.5992 15.3479 29.7385 15.3365 28.3879C15.3347 28.1968 15.3353 28.0379 15.3376 27.8915C15.3491 27.5504 15.3755 27.2572 15.4197 26.9985C15.4504 26.8645 15.4897 26.7362 15.5433 26.5934C15.8216 25.8503 16.1426 25.4019 16.3962 25.4019C16.5064 25.4019 16.9623 25.6131 17.4089 25.8707C18.4699 26.4826 18.9117 26.5386 19.6234 26.1513C20.2729 25.7975 20.9038 25.0987 21.0444 24.5768C21.2036 23.9856 21.0378 23.5504 20.4399 22.9889C20.3452 22.9 20.2577 22.8085 20.1817 22.7215C20.0618 22.5709 19.974 22.4433 19.9413 22.3698C19.9349 22.3324 19.936 22.2941 19.9445 22.2571C20.0294 22.0763 20.4666 21.8112 22.1162 20.8984C22.8604 20.4864 23.3553 20.1605 23.8306 19.7611C24.0924 19.5529 24.3404 19.3279 24.5731 19.0875L24.6202 19.0396L24.8411 18.8322L25.0425 18.6529ZM30.129 18.9246C30.1261 18.925 30.1234 18.9255 30.121 18.9263C30.1014 18.925 30.0818 18.9256 30.0624 18.9283C29.9683 18.9292 29.9333 18.9636 29.9505 19.0215C29.9481 19.0326 29.9468 19.0438 29.9465 19.0551C29.9465 19.1733 30.7897 19.7373 31.1609 19.8676C31.2576 19.9014 31.3293 19.9181 31.379 19.9198C31.4438 19.9295 31.4647 19.9049 31.4647 19.8492C31.4647 19.8205 31.42 19.7652 31.3503 19.6966C31.2573 19.5947 31.1073 19.4622 30.9004 19.3047C30.6101 19.0841 30.3341 18.9524 30.1542 18.9297C30.146 18.9271 30.1376 18.9253 30.129 18.9246ZM19.8326 18.9283C19.6748 18.934 19.4347 19.0454 19.1618 19.2536C19.0382 19.3483 18.914 19.455 18.8133 19.55C18.8012 19.5615 18.7895 19.5729 18.7783 19.5844C18.7051 19.6558 18.6449 19.7198 18.6199 19.7594C18.4492 20.0302 18.6882 19.9869 19.4065 19.6163C19.8042 19.4111 20.0067 19.2519 20.0262 19.1294C20.0262 19.1274 20.0279 19.1251 20.0279 19.1231L20.0274 19.1159L20.0279 19.1102L20.0265 19.0907C20.0347 19.068 20.036 19.0434 20.0304 19.0199C20.0247 18.9965 20.0123 18.9752 19.9947 18.9587C19.974 18.9381 19.9393 18.9309 19.8945 18.9335C19.8741 18.9295 19.8534 18.9278 19.8326 18.9283ZM17.137 20.6453C17.1178 20.6453 17.0575 20.7122 16.9829 20.8066L16.9668 20.8198C16.8119 20.9598 16.5744 21.3304 16.5061 21.5195C16.496 21.5375 16.4892 21.5572 16.486 21.5777C16.486 21.5802 16.4866 21.5823 16.4877 21.584C16.4866 21.5903 16.4859 21.5963 16.4857 21.6018C16.4857 21.7366 16.8837 21.5206 17.1705 21.292C17.3607 21.1772 17.4979 21.0745 17.4979 21.0412C17.4979 21.0229 17.4821 20.9919 17.4586 20.956C17.4678 20.781 17.3633 20.6872 17.225 20.6961C17.1878 20.6651 17.1556 20.6453 17.137 20.6453ZM32.6691 20.6582C32.6209 20.662 32.5951 20.7033 32.5842 20.7816C32.5632 20.8063 32.5624 20.8453 32.5779 20.892V20.8946L32.5782 20.8972C32.581 21.0757 32.6929 21.203 33.0079 21.3866C33.2446 21.5243 33.4735 21.6417 33.5166 21.6471C33.662 21.6661 33.3046 21.0914 33.0375 20.87C32.9991 20.8353 32.9579 20.8038 32.9144 20.7759C32.8008 20.6944 32.7213 20.6542 32.6691 20.6582ZM6.22289 21.2601C6.16609 21.2601 6.1045 21.2618 6.03814 21.2653C5.85856 21.2627 5.67926 21.2804 5.50366 21.3181C5.23887 21.3608 5.00563 21.4254 4.90751 21.4899C4.53083 21.7366 4.16361 22.2711 4.08701 22.6842C4.04082 22.9338 4.04943 23.0434 4.20176 23.2431C4.2775 23.3665 4.38939 23.489 4.52652 23.6026C4.74255 23.8054 4.98296 23.9506 5.23858 24.0292C5.33287 24.0579 5.4262 24.0822 5.51858 24.1023C5.55186 24.1106 5.58743 24.1176 5.6253 24.1236C6.1592 24.2205 6.65035 24.1666 7.04052 23.9924C7.087 23.9752 7.13032 23.9574 7.1679 23.9379C7.26257 23.8892 7.3495 23.8258 7.42753 23.752C7.73393 23.4938 7.91955 23.1275 7.92615 22.6802C7.93475 22.0907 7.70639 21.7857 6.99778 21.4429C6.72236 21.3095 6.53876 21.2593 6.22289 21.2601ZM43.8359 21.2604C43.6035 21.257 43.4492 21.2859 43.2535 21.3637C43.111 21.4095 42.9745 21.4723 42.847 21.5507C42.7963 21.5803 42.747 21.6125 42.6996 21.6471C42.2943 21.9162 42.0916 22.2554 42.0914 22.6647C42.0914 23.2781 42.503 23.8022 43.1726 24.0409C43.9814 24.3293 44.8725 24.1801 45.468 23.6562L45.4795 23.6456C45.6508 23.5222 45.7535 23.4092 45.8157 23.262C45.9621 23.0253 45.9919 22.7867 45.9127 22.5173C45.8966 22.4091 45.8542 22.3144 45.7793 22.2008C45.5119 21.6948 45.1711 21.4397 44.5879 21.331C44.3878 21.2785 44.1809 21.2563 43.9742 21.2653H43.9607C43.9177 21.2633 43.8741 21.261 43.8359 21.2604ZM6.00543 21.7633C6.43117 21.7473 6.8638 21.8666 7.1722 22.1257C7.72102 22.5876 7.46368 23.3613 6.68966 23.5762C6.43232 23.6479 6.1526 23.6795 5.93715 23.668C5.91841 23.6672 5.89966 23.666 5.88092 23.6642C5.82205 23.6599 5.76384 23.649 5.70735 23.6318C5.5878 23.5972 5.46704 23.5668 5.3453 23.5409C4.99243 23.464 4.54833 23.0354 4.54402 22.7692L4.54374 22.7646C4.54431 22.6449 4.69464 22.3968 4.87853 22.2129C5.16026 21.9312 5.57969 21.7797 6.00543 21.7633ZM43.7794 21.778C43.8804 21.7774 43.9989 21.7823 44.1412 21.7909L44.1446 21.7912C44.5345 21.8244 44.8108 21.9007 45.0193 22.0459C45.0329 22.0561 45.0463 22.0663 45.0595 22.0766C45.2041 22.1885 45.3148 22.3365 45.4084 22.5328L45.4898 22.7035C45.509 22.8201 45.4869 22.9293 45.4236 23.0311L45.258 23.1791C45.081 23.3372 44.7632 23.5148 44.5514 23.5736C44.2196 23.6662 43.8721 23.6883 43.5312 23.6384C43.1844 23.5633 42.8972 23.3977 42.7199 23.1897C42.6413 23.042 42.5994 22.8133 42.6164 22.6088C42.6445 22.2748 42.703 22.1994 43.1038 21.9851C43.3393 21.8589 43.4968 21.7986 43.6999 21.7808C43.7261 21.78 43.7507 21.778 43.7794 21.778ZM44.1366 22.0823C44.0557 22.0791 43.9748 22.085 43.8953 22.1001C43.181 22.2338 42.8797 22.949 43.4415 23.1757C43.5441 23.2158 43.6516 23.2426 43.761 23.2554C43.8572 23.2704 43.9538 23.2735 44.0479 23.2669C44.1357 23.2652 44.2218 23.254 44.3033 23.2325C44.5443 23.1817 44.7508 23.0778 44.8481 22.9327C44.925 22.8174 44.9407 22.6969 44.9112 22.5838C44.9078 22.549 44.8946 22.5159 44.873 22.4883C44.76 22.2685 44.4737 22.0958 44.1366 22.0823ZM5.91449 22.0927C5.87987 22.094 5.84496 22.0969 5.80977 22.1013C5.08882 22.1896 4.86534 22.811 5.4417 23.1243C5.56592 23.1917 5.74149 23.2354 5.92539 23.2554C5.95637 23.2591 5.98736 23.2616 6.01834 23.2632L6.02781 23.2638C6.0651 23.2683 6.10259 23.2699 6.14027 23.2683H6.17527C6.19286 23.2683 6.21027 23.2679 6.22748 23.2669C6.40478 23.26 6.56802 23.2296 6.6756 23.1719C6.79265 23.1091 6.86036 22.9797 6.86954 22.8062C6.87958 22.7425 6.87241 22.6785 6.84945 22.6168C6.75564 22.2984 6.36547 22.0743 5.91449 22.0927ZM31.8919 23.0819C31.8479 23.0821 31.8049 23.0901 31.7628 23.106C31.64 23.1387 31.5405 23.2359 31.4613 23.3977C31.4125 23.4772 31.3896 23.5323 31.3916 23.5877C31.3724 23.6927 31.4088 23.7664 31.5149 23.8834C31.5884 23.9649 31.6687 24.02 31.7496 24.0533C31.785 24.0726 31.8242 24.0839 31.8644 24.0863C32.132 24.1264 32.3756 23.9233 32.3756 23.5578C32.3756 23.3535 32.3053 23.2405 32.1289 23.1599C32.0597 23.1104 31.977 23.0832 31.8919 23.0819ZM18.1052 23.0999C18.0869 23.1005 18.0684 23.1025 18.0499 23.106C18.0033 23.1059 17.9576 23.1184 17.9176 23.1421L17.9136 23.145C17.8245 23.1896 17.7566 23.2675 17.7245 23.3619C17.6212 23.5478 17.6568 23.7371 17.8335 23.9649C17.8924 24.0406 18.0111 24.0719 18.1365 24.0659C18.3436 24.115 18.5387 23.9965 18.5944 23.7566C18.7037 23.4195 18.4062 23.0913 18.1052 23.0999ZM10.262 24.8201L9.75219 25.3509C9.4719 25.6423 9.16091 26.0621 9.06136 26.283L9.0103 26.396L8.84763 26.6846L6.48425 26.6987C5.16657 26.7061 3.76971 26.7331 3.38012 26.7586C3.30113 26.7636 3.22348 26.7672 3.14716 26.7695L2.77364 26.7658L2.63794 26.7618C1.86076 26.713 1.2735 26.4878 0.903412 26.0905C0.679639 25.8503 0.645787 25.5411 0.803575 25.3732C0.824614 25.353 0.849477 25.3334 0.878166 25.3144L0.89251 25.305C1.38711 25.0405 3.1638 24.9045 6.66929 24.8626L10.262 24.8201ZM39.6729 24.8267L43.4885 24.868C46.3646 24.899 47.5018 24.9475 48.1063 25.0648C48.8659 25.212 49.2297 25.3279 49.3404 25.4699C49.3651 25.5253 49.3749 25.5875 49.372 25.6547C49.3252 25.9602 49.0226 26.3203 48.6479 26.5001C48.4712 26.5848 48.1057 26.6688 47.7339 26.7299C47.4499 26.7469 47.0557 26.7563 46.4802 26.7615C46.1026 26.7354 45.0549 26.7121 43.8322 26.7055L41.0838 26.6912L41.0712 26.67C41.0502 26.6112 40.9874 26.5073 40.9025 26.3822L40.8348 26.2669C40.6979 26.0334 40.3806 25.6139 40.1296 25.3345L39.6729 24.8267ZM7.64987 27.2245C8.37914 27.2257 8.61382 27.2383 8.65398 27.3112L8.58914 27.5367C8.53492 27.7257 8.49045 27.9945 8.49045 28.134L8.49017 28.2407L8.47009 28.3879L8.42849 28.3881L6.18789 28.4025C4.50099 28.4134 3.73442 28.3836 3.40594 28.2648C3.35491 28.2419 3.30563 28.2154 3.25848 28.1853C3.23138 28.1616 3.21025 28.1318 3.1968 28.0984C3.10786 27.866 3.36434 27.4951 3.67073 27.4133C3.83053 27.3708 5.02485 27.3037 6.32445 27.2647L7.64987 27.2245ZM42.3387 27.2337C42.4781 27.2343 42.6367 27.2352 42.8146 27.2366C42.9867 27.238 43.179 27.2412 43.3715 27.2446C43.9745 27.261 44.653 27.2882 45.1593 27.3192C46.341 27.3909 46.5789 27.4334 46.6994 27.5923C46.8408 27.7788 46.8769 28.0505 46.8021 28.2086C46.7826 28.2265 46.7625 28.2437 46.7418 28.2602C46.7336 28.2669 46.7253 28.2732 46.7169 28.2791C46.6623 28.3035 46.5878 28.323 46.4719 28.3377C46.0432 28.3669 45.1192 28.3879 44.0861 28.3879H41.577L41.521 28.1345C41.4769 27.9401 41.4304 27.7461 41.3816 27.5527L41.3222 27.3178C41.3612 27.2472 41.5853 27.2311 42.3387 27.2337ZM8.6798 30.7782C8.90568 30.7774 9.14265 30.7815 9.39071 30.7903C10.8102 30.8408 11.2802 30.9194 11.6895 31.3009L11.8436 31.4627C11.8574 31.4771 11.8686 31.4906 11.882 31.5049C11.905 31.5317 11.9284 31.5597 11.9523 31.589C12.4395 32.1914 12.5304 32.3877 12.7519 33.316C12.8764 33.8373 12.9375 34.1262 12.9269 34.3072L12.9252 34.3285L12.9232 34.3422C12.9098 34.4055 12.8887 34.4602 12.86 34.5063C12.8141 34.5643 12.7464 34.6076 12.6529 34.6561C12.6047 34.681 12.5373 34.7026 12.4458 34.7215C12.4211 34.7264 12.3921 34.7312 12.3652 34.7358C12.0123 34.7955 11.3559 34.8273 10.0973 34.8535C7.82459 34.9005 7.55405 34.8879 6.83827 34.7011C6.76138 34.6828 6.687 34.6551 6.61679 34.6188C6.44179 34.5029 6.33851 34.3333 6.24039 34.0691C6.16982 33.8559 6.10182 33.5696 6.02035 33.174C5.96633 32.9158 5.9242 32.6552 5.89412 32.3931C5.89182 32.365 5.88838 32.3349 5.88666 32.3079C5.85424 31.8236 5.85596 31.5382 5.96527 31.3491C6.13596 31.1053 6.64347 30.9331 7.40917 30.8451C7.75114 30.8106 8.17545 30.7891 8.61554 30.7791C8.63734 30.7791 8.65771 30.7785 8.6798 30.7782ZM41.3655 30.7796C41.9207 30.7923 42.4678 30.8244 42.8892 30.8715C43.2874 30.9308 43.6053 31.0192 43.8376 31.1365C43.8595 31.1477 43.8772 31.1578 43.8959 31.1681C43.9765 31.2309 44.0388 31.3038 44.0838 31.3919C44.1125 31.5075 44.1151 31.6885 44.1142 32.0087C44.1128 32.7876 43.9079 33.8298 43.6635 34.3023C43.4742 34.6684 43.1193 34.7892 42.0159 34.8635C41.6024 34.8908 41.1891 34.9205 40.776 34.9527C40.5809 34.9694 40.1256 34.9501 39.7638 34.9105C39.4021 34.8704 38.7374 34.8328 38.2867 34.8262C38.241 34.8256 38.2003 34.8242 38.1576 34.8233C37.9989 34.8067 37.8162 34.7883 37.6934 34.7748C37.5683 34.7525 37.461 34.7289 37.3775 34.7043C37.076 34.5442 37.1078 34.1741 37.2877 33.3111C37.4289 32.6355 37.7424 32.0021 38.1294 31.5531C38.2098 31.464 38.2962 31.3767 38.3888 31.2912L38.4023 31.2788C38.5635 31.14 38.7325 31.0327 38.9037 30.9673C39.0707 30.9036 39.8711 30.8255 40.6827 30.794C40.9102 30.7852 41.1379 30.7804 41.3655 30.7796ZM10.8148 32.4846C10.6256 32.4846 10.4387 32.5253 10.2666 32.604C10.2155 32.6277 10.1724 32.6525 10.1372 32.6786C10.0701 32.7101 10.0333 32.7506 10.0305 32.7993C10.023 32.8081 10.0201 32.8163 10.0219 32.8237C10.0003 32.9121 10.0706 32.9904 10.2365 33.0225C10.3818 33.0511 10.5288 33.0703 10.6765 33.0799C11.0917 33.1029 11.3246 33.003 11.3246 32.7902C11.3246 32.5982 11.1008 32.4872 10.8148 32.4846ZM39.2024 32.4921C38.995 32.4898 38.8309 32.5429 38.7425 32.6493C38.7255 32.67 38.7114 32.6887 38.7003 32.7055C38.6713 32.7323 38.6602 32.7615 38.6671 32.793C38.6676 32.8427 38.7092 32.8866 38.8002 32.9531C39.0254 33.1175 39.4402 33.135 39.8077 32.9953C40.1549 32.8633 40.1351 32.7325 39.7486 32.5977C39.5507 32.5288 39.3633 32.4935 39.2021 32.4921M41.3532 32.5868C41.2896 32.5824 41.226 32.5958 41.1696 32.6255C41.1093 32.6499 41.0632 32.6863 41.0436 32.7368C41.0121 32.8191 41.0637 32.9313 41.1593 32.987C41.4089 33.1321 41.7451 33.098 41.8532 32.9479C41.8753 32.9356 41.8888 32.9213 41.8888 32.9038C41.8887 32.8965 41.8871 32.8893 41.8842 32.8825C41.8874 32.8689 41.889 32.8549 41.8888 32.8409C41.8888 32.6774 41.6059 32.5799 41.3655 32.5882C41.3612 32.5882 41.3569 32.5868 41.3532 32.5868ZM8.65599 32.5922C8.54066 32.5922 8.40754 32.6252 8.28131 32.6926L8.27271 32.6981L8.26295 32.7027C8.14131 32.7678 8.09139 32.7973 8.10746 32.8381C8.06529 32.9167 8.11664 32.9861 8.26238 33.0245C8.30962 33.0364 8.35514 33.046 8.39894 33.0532C8.48213 33.0902 8.55558 33.0943 8.63505 33.0699C8.8746 33.0595 9.01546 32.9543 8.97443 32.7867C8.9862 32.7159 8.93513 32.6593 8.8482 32.6269L8.84103 32.6232L8.82956 32.6203L8.79542 32.6111C8.7501 32.5981 8.70314 32.5917 8.65599 32.5922ZM6.88446 32.6892C6.65265 32.6892 6.41912 32.7973 6.32789 32.917C6.27969 32.952 6.2599 32.9766 6.2665 33.0019L6.21314 33.0297L6.2906 33.0518L6.29576 33.0575C6.29863 33.0647 6.30064 33.0719 6.30494 33.0788C6.35142 33.1539 6.50375 33.1904 6.66958 33.1918C6.76718 33.2004 6.8655 33.1888 6.95847 33.1579C7.05171 33.1336 7.13032 33.0971 7.17077 33.0478C7.22528 32.9827 7.2488 32.9224 7.24565 32.8708C7.24574 32.8654 7.24506 32.8599 7.24364 32.8547C7.24084 32.8398 7.23571 32.8255 7.22843 32.8122C7.21983 32.775 7.18712 32.7503 7.12802 32.7276C7.0497 32.7003 6.96709 32.6874 6.88417 32.6895M43.0478 32.6895C42.9064 32.6895 42.8333 32.7259 42.8092 32.8105C42.7739 32.8472 42.7701 32.8946 42.8063 32.9454C42.8226 33.03 42.87 33.1075 42.9262 33.131C42.9606 33.1456 43.006 33.1557 43.0573 33.1623C43.2515 33.2122 43.5106 33.1964 43.6248 33.1218C43.708 33.0989 43.7699 33.0699 43.7811 33.0357C43.8084 32.9525 43.6515 32.8421 43.4498 32.7684C43.3508 32.7187 43.242 32.6918 43.1313 32.6895C43.121 32.6897 43.1108 32.6903 43.1006 32.6915C43.0831 32.6903 43.0655 32.6896 43.0478 32.6895Z" fill="#BC9028"/>
</g>
<defs>
<clipPath id="clip0_437_1279">
<rect width="50" height="43.0014" fill="white"/>
</clipPath>
</defs>
</svg>
