<svg width="50" height="50" viewBox="0 0 50 50" fill="none" xmlns="http://www.w3.org/2000/svg">
<path d="M23.6621 3.33984C22.998 4.0332 23.0078 3.97461 22.998 6.8457C22.9785 9.77539 23.0371 9.54102 22.1582 10.5078C21.8945 10.8008 21.6699 11.1328 21.6602 11.2598C21.6504 11.377 21.6406 11.6309 21.6211 11.8164C21.6113 12.002 21.6016 13.75 21.5918 15.6934L21.582 19.2285L15.1855 26.2109C8.37891 33.6426 8.53516 33.4961 7.75391 33.3691C7.49023 33.3203 7.40234 33.3496 7.32422 33.5059C7.23633 33.6719 7.30469 33.7793 7.7832 34.2969C8.39844 34.9414 8.7793 35.1562 9.31641 35.1562C10.0391 35.1562 10.3711 34.9121 11.7871 33.3691C12.5293 32.5488 15.5762 29.2285 18.5449 25.9863C21.5137 22.7441 24.0234 19.9316 24.1113 19.7363C24.248 19.4238 24.2676 18.5547 24.2676 11.1914C24.2676 5.64453 24.2383 2.98828 24.1699 2.95898C24.1113 2.93945 23.8867 3.11523 23.6621 3.33984ZM25.8203 3.05664C25.8008 3.125 25.791 6.82617 25.8008 11.2793C25.8301 18.4863 25.8496 19.4238 25.9863 19.7266C26.0742 19.9219 27.627 21.6992 29.4434 23.6816C39.5996 34.7754 39.6582 34.8437 40.0488 35C40.8984 35.3418 41.4941 35.1562 42.3145 34.2969C42.793 33.7891 42.8613 33.6621 42.7832 33.5059C42.6953 33.3496 42.6074 33.3301 42.2852 33.3691C42.0703 33.3984 41.7676 33.3691 41.5918 33.3008C41.3965 33.2129 39.082 30.7617 34.9023 26.2012L28.5156 19.2285L28.5059 15.6934C28.4961 13.75 28.4863 12.002 28.4766 11.8164C28.457 11.6309 28.4473 11.377 28.4375 11.2598C28.4277 11.1328 28.2031 10.8008 27.9395 10.5078C27.0605 9.54102 27.1094 9.75586 27.0898 6.94336C27.0801 5.56641 27.0703 4.3457 27.0605 4.22852C27.0508 4.01367 26.1328 2.92969 25.9668 2.92969C25.918 2.92969 25.8496 2.98828 25.8203 3.05664ZM24.0137 25.0781C23.6133 25.4883 20.2637 29.1406 16.5723 33.1738C10.6348 39.6582 9.78516 40.5469 9.32617 40.7812C8.76953 41.0449 8.74023 41.0449 7.08008 40.8984C6.81641 40.8691 6.78711 40.8984 6.78711 41.1426C6.78711 41.3672 7.22656 41.9043 9.13086 43.9844C10.4199 45.4004 11.6211 46.6504 11.7969 46.7773C12.2363 47.0898 13.0273 47.1484 13.5254 46.9141C13.7793 46.7969 15.3906 45.1074 18.8867 41.2891L23.877 35.8398L23.8965 34.8926L23.916 33.9453L24.3848 33.4766C24.6387 33.2129 24.9316 33.0078 25.0488 33.0078C25.166 33.0078 25.459 33.2129 25.7129 33.4766L26.1719 33.9453V35.791L31.1914 41.2695C34.4922 44.873 36.3281 46.7969 36.5527 46.9043C37.041 47.1387 37.6855 47.1191 38.1543 46.8457C38.3984 46.7187 39.4824 45.6152 40.957 43.9941C42.9395 41.8359 43.3594 41.3184 43.3398 41.1133C43.3105 40.9082 43.2617 40.8691 43.0176 40.8984C41.3672 41.0449 41.3281 41.0449 40.7813 40.7812C40.3125 40.5566 39.4434 39.6387 33.4863 33.125C29.7656 29.0625 26.416 25.4102 26.0352 25.0195C25.1074 24.0527 24.9805 24.0625 24.0137 25.0781Z" fill="white"/>
</svg>
