<svg width="50" height="50" viewBox="0 0 50 50" fill="none" xmlns="http://www.w3.org/2000/svg">
<path d="M22.3769 3.27736C27.1718 2.69728 32.1543 3.73829 36.2832 6.25197C40.6816 8.88673 44.0957 13.1172 45.7285 17.9766C47.457 23.0723 47.2324 28.8106 45.0625 33.7383C42.9179 38.7051 38.8496 42.8047 33.9023 44.9902C29.4902 46.9746 24.4101 47.4004 19.7207 46.2363C15.0683 45.0996 10.8359 42.3613 7.86521 38.6094C4.63669 34.5801 2.93161 29.3731 3.13669 24.2149C3.30271 18.791 5.59958 13.4688 9.43357 9.62892C12.8633 6.12501 17.5078 3.84376 22.3769 3.27736ZM14.3593 9.65626C10.3886 12.3965 7.54294 16.7246 6.65818 21.4727C5.86325 25.5918 6.49802 29.9707 8.45896 33.6817C13.75 24.5469 19.0996 15.4453 24.4023 6.31642C20.8281 6.46095 17.289 7.59181 14.3593 9.65626ZM25.5879 6.32228C30.9492 15.3652 36.3047 24.4141 41.6582 33.4629C43.4336 29.9727 44.0625 25.9199 43.4433 22.0547C42.8261 18.0547 40.832 14.293 37.9023 11.5059C34.6211 8.334 30.1465 6.46681 25.5879 6.32228ZM23.4648 17.0293C20.414 17.5899 17.8281 20.0449 17.1172 23.0664C16.5 25.4961 17.1152 28.1856 18.705 30.1192C20.2129 31.9902 22.5879 33.1309 24.9941 33.1152C27.1211 33.1309 29.2324 32.2461 30.7324 30.7402C32.291 29.1953 33.1816 26.9942 33.1133 24.7969C33.0703 22.459 31.9394 20.1738 30.1191 18.707C28.291 17.2031 25.789 16.5684 23.4648 17.0293ZM9.05271 34.7246C11.2441 38.3027 14.6562 41.125 18.6074 42.5508C22.6406 44.0293 27.1894 44.0488 31.2343 42.6074C35.2519 41.2012 38.7265 38.3496 40.9472 34.7246C30.3164 34.7266 19.6836 34.7266 9.05271 34.7246Z" fill="white"/>
</svg>
