<svg width="70" height="70" viewBox="0 0 70 70" fill="none" xmlns="http://www.w3.org/2000/svg">
<path d="M32.6593 9.02343C33.9007 6.33827 34.6445 3.45624 34.9999 0.530457C35.3773 3.45077 36.0937 6.3328 37.3296 9.01249C48.7812 9.90389 58.9585 19.2008 60.6374 30.5976C60.8781 33.343 60.8398 36.1101 60.6976 38.8609C59.3632 49.7219 50.2249 59.0242 39.4187 60.6648C38.664 60.9492 37.4226 60.6156 37.089 61.5726C35.9132 64.0555 35.4046 66.7898 34.9999 69.4914C34.6554 66.5547 33.9007 63.6672 32.6593 60.982C19.9445 60.0523 8.67885 48.4641 9.20385 35.5305C8.64057 28.1203 11.9984 20.743 17.4179 15.7773C21.5851 11.9383 27.021 9.53749 32.6593 9.02343ZM33.6382 11.3805C34.5406 11.3859 35.4429 11.3859 36.3453 11.3914C35.9242 10.2375 35.5085 9.08358 35.0874 7.93514C34.5187 9.0453 34.0538 10.2047 33.6382 11.3805ZM12.5124 26.1242C9.30229 33.9828 10.7515 43.482 16.0562 50.0828C19.9007 54.9719 25.6703 58.1875 31.8117 59.057C31.3578 58.2039 30.8874 57.3508 30.4171 56.5031C33.4414 56.8969 36.5093 56.9133 39.5335 56.4976C39.0851 57.3508 38.6421 58.2094 38.2156 59.068C46.8617 57.8867 54.7148 51.7891 57.6296 43.5039C60.6757 35.7328 59.1609 26.4414 53.9601 19.939C50.121 15.0445 44.346 11.8344 38.2101 10.9266C38.6476 11.7906 39.1015 12.6437 39.5554 13.5023C36.5203 13.1086 33.4468 13.1031 30.4171 13.5133C30.882 12.6547 31.3468 11.7961 31.8007 10.932C23.2859 12.1023 15.5203 18.0195 12.5124 26.1242ZM33.6601 58.5812C34.0429 59.7789 34.4913 60.9547 35.0929 62.0648C35.5085 60.9164 35.9187 59.768 36.3343 58.625C35.4429 58.614 34.5515 58.5976 33.6601 58.5812Z" fill="white"/>
<path d="M35.4976 24.1828C36.7281 23.6141 37.4281 21.2789 39.0195 22.1812C41.2562 23.0836 42.7382 25.107 44.8218 26.2664C45.6476 26.857 46.8015 27.1469 47.2882 28.1039C47.8078 29.8102 48.0046 31.5984 48.1742 33.3648C47.3757 34.0758 46.5937 34.7977 45.8117 35.5305C46.4187 36.2742 47.2335 36.9086 47.6109 37.8109C47.6875 39.7906 45.6476 40.7477 44.6304 42.0492C44.8437 43.9141 44.4445 45.8445 43.1648 47.2773C42.0875 47.0695 41.0921 46.4625 39.9875 46.4187C37.6632 47.1516 35.3226 47.9555 32.8671 48.1086C31.4179 47.2281 30.1875 46.0031 28.6671 45.2047C28.2187 42.8531 25.6921 41.8469 25.0687 39.5445C24.0515 39.1617 22.4437 39.2984 21.8914 38.2703C22.5039 36.5148 22.8867 34.7047 23.0726 32.8562C23.6851 31.3469 24.3468 29.8484 25.0742 28.3937C27.5406 27.5516 29.5039 25.55 29.7828 22.8812C31.7515 22.9961 33.6054 23.6852 35.4976 24.1828ZM37.4609 26.5508C37.7234 27.9016 37.0835 29.1047 36.5804 30.3078C37.5429 29.6023 38.4289 28.8039 39.3148 28.0055C39.6101 28.2352 40.2062 28.6891 40.5015 28.9133C40.3484 28.1586 40.1843 27.4039 40.0203 26.6547C39.1671 26.6219 38.314 26.5891 37.4609 26.5508ZM27.4968 30.0617C27.6062 30.7891 27.7101 31.5109 27.8085 32.2383C25.7687 33.7148 24.7023 36.1375 23.1656 38.0734C24.2921 38.3359 25.4078 38.6477 26.5289 38.9539C26.1296 38.6805 25.3367 38.1445 24.9375 37.8766C25.5171 37.4117 26.146 37.018 26.7914 36.657C27.3054 37.1109 27.8195 37.5594 28.339 38.0078C28.3992 37.7562 28.5304 37.2531 28.596 37.0016C29.1867 36.9086 29.7828 36.8102 30.3734 36.7117C30.439 37.3187 30.3078 37.882 29.9414 38.3742C29.4765 39.5992 28.7875 40.7148 27.8796 41.6664C27.6937 40.6492 27.5296 39.6375 27.3656 38.6203C27.0812 38.8609 26.507 39.3477 26.2226 39.5937C26.8078 41.0648 27.9781 42.0984 29.3398 42.8586L29.1757 41.6773C29.6351 42.2352 30.1 42.782 30.5593 43.3344C30.9148 43.143 31.6312 42.7602 31.9867 42.5687C31.9265 43.2305 31.8773 43.9578 31.2429 44.3461C30.3789 43.8594 29.6187 43.2031 28.8093 42.6398C29.1593 44.9969 31.6148 45.5602 33.0531 47.075C35.1039 46.807 37.1382 46.3695 39.0523 45.5547C40.321 44.8273 41.6281 45.7297 42.8148 46.1727C43.5914 44.7016 43.5804 43.0773 43.6078 41.4695C44.2312 40.6 45.1718 40.0258 45.9375 39.2984C44.5429 39.282 43.3179 39.9328 42.1203 40.5672C42.2132 39.9656 42.3117 39.3586 42.4101 38.757C43.4054 38.3195 44.4664 37.9148 45.1554 37.0234L42.8093 37.3078C43.3343 35.7219 44.6414 34.6719 45.9703 33.7695C45.7898 32.9875 45.6093 32.2 45.4125 31.4234C44.0343 32.818 43.0718 34.568 42.689 36.4984C42.3171 36.5586 41.5625 36.6844 41.1851 36.75C40.7619 37.4404 40.3335 38.1277 39.9 38.8117C40.0804 37.3187 39.3039 36.132 37.975 35.5633C37.9039 35.1531 37.7726 34.3383 37.707 33.9281C36.8812 34.1633 36.5367 35.1203 35.9734 35.6945C35.5359 35.5195 35.1039 35.3445 34.6718 35.1695C34.0484 35.5305 33.425 35.8805 32.796 36.2195C32.6648 36.4437 32.4078 36.8867 32.2765 37.1055C31.4015 36.482 30.3898 36.132 29.3781 35.7875C29.0062 35.093 28.7054 34.3656 28.4757 33.6055C28.9187 33.1461 29.3671 32.6977 29.8101 32.2437C28.7601 31.8773 28.2023 30.8437 27.4968 30.0617ZM29.9031 32.5281C29.9523 32.8398 30.0562 33.4687 30.1054 33.7805L30.2312 33.1898C30.8601 33.9773 31.6476 34.5516 32.6867 34.5133C33.1187 33.1953 33.5453 31.8664 33.9882 30.5484C32.8507 31.5219 31.6367 33.25 29.9031 32.5281Z" fill="white"/>
<path d="M34.8906 37.4828C36.1429 37.0781 37.4664 37.3734 38.7461 37.4226C38.9757 38.0078 39.2711 38.582 39.3257 39.2164C38.0734 39.0304 36.8156 39.014 35.5851 39.3476L36.0117 40.6601C35.7492 41.2344 35.4867 41.814 35.2296 42.3937C34.7921 42.8476 34.3601 43.307 33.9281 43.7664C33.3646 43.2168 32.7731 42.6966 32.1562 42.2078C33.4742 41.7648 33.6656 40.4305 33.6546 39.2219C33.2804 39.8469 32.9158 40.4777 32.5609 41.114C31.8882 40.4359 30.7726 39.6976 31.4617 38.6258C31.7843 38.314 32.4351 37.6851 32.7632 37.3734C32.6484 37.9695 32.4132 39.1508 32.2984 39.7469C33.1351 38.9703 33.7859 37.9148 34.8906 37.4828ZM38.3906 40.6383C39.4078 40.7094 39.1398 42.4594 38.2211 42.4758C37.1765 42.3609 37.3953 40.6492 38.3906 40.6383Z" fill="white"/>
</svg>
