<svg width="70" height="70" viewBox="0 0 70 70" fill="none" xmlns="http://www.w3.org/2000/svg">
<g clip-path="url(#clip0_410_772)">
<path d="M30.4992 9.19296C31.6859 6.29999 32.6484 3.28671 32.8836 0.147644C33.1789 3.23202 34.0594 6.21796 35.2789 9.05624C36.4656 6.22342 37.3898 3.26483 37.6469 0.191394C37.9258 3.33046 38.8445 6.36014 40.075 9.25311C50.4 11.118 59.0844 19.682 60.8945 30.0453C63.7766 31.3031 66.8117 32.2711 69.9672 32.4898C66.9156 32.8289 63.9461 33.682 61.1297 34.8906C63.9625 36.0609 66.9102 37.007 69.9727 37.2859C66.8992 37.5922 63.8258 38.3305 61.075 39.7523C59.9102 43.575 58.6031 47.4578 56.0602 50.6242C52.2703 55.8141 46.4188 59.1062 40.2555 60.6101C38.6695 63.2898 38.0352 66.4781 37.6633 69.5516C37.368 66.5164 36.4656 63.5797 35.2844 60.7797C34.0758 63.5687 33.168 66.5 32.8891 69.5406C32.6266 66.407 31.6531 63.3883 30.4117 60.5172C22.3945 59.0023 15.2578 53.5609 11.7797 46.1672C10.7078 44.1437 10.2977 41.8687 9.49375 39.7414C6.68828 38.3031 3.54922 37.5539 0.410156 37.3023C3.52734 37.0453 6.53516 36.1156 9.39531 34.8797C6.56797 33.693 3.59844 32.7797 0.525 32.5281C3.69688 32.282 6.75391 31.2922 9.65781 30.018C11.0469 22.832 15.5203 16.2641 21.8586 12.5508C24.5164 10.932 27.4859 9.9203 30.4992 9.19296ZM31.5656 11.282C32.4625 11.282 33.3594 11.282 34.2617 11.2766C33.7859 10.0516 33.3375 8.81561 32.9109 7.56874C32.4789 8.81561 32.0305 10.0515 31.5656 11.282ZM37.6469 7.54686C37.2203 8.79921 36.7719 10.0461 36.3016 11.282H38.9758C38.5164 10.0461 38.068 8.79921 37.6469 7.54686ZM11.6758 29.1265C12.2008 28.8203 13.2617 28.2133 13.7922 27.907C13.393 30.2476 13.5078 32.6156 13.6938 34.9672C13.4695 37.275 13.4312 39.5992 13.7867 41.8961C13.0916 41.4861 12.3934 41.0814 11.6922 40.682C13.8141 49.3172 20.9125 56.3883 29.5477 58.5047C29.1211 57.7937 28.6891 57.0883 28.2625 56.3828C31.4234 57.0281 34.6172 56.1969 37.7836 56.6398C39.293 56.7383 40.7969 56.5523 42.2953 56.3937C41.8742 57.0937 41.4586 57.7992 41.043 58.5047C49.6781 56.35 56.7219 49.2844 58.8875 40.6547C58.1766 41.0758 57.4656 41.4969 56.7547 41.9234C57.132 39.5992 57.0719 37.2531 56.8367 34.9234C57.0609 32.5828 57.1484 30.2203 56.7492 27.8906C57.4547 28.3062 58.1656 28.7164 58.8711 29.132C56.7438 20.5133 49.6891 13.4203 41.0648 11.3039L42.2461 13.4039C39.8617 12.9937 37.4609 13.1851 35.0711 13.3328C32.818 13.0867 30.543 13.0594 28.3062 13.4258C28.7055 12.7203 29.1047 12.0094 29.4984 11.2984C20.8633 13.4148 13.8359 20.5187 11.6758 29.1265ZM7.82578 32.5391C9.11641 32.9383 10.3906 33.3867 11.6539 33.868L11.6375 31.1773C10.3797 31.6531 9.11094 32.1234 7.82578 32.5391ZM58.8875 31.1719L58.9039 33.8953C60.1508 33.4031 61.4031 32.9273 62.6664 32.4953C61.3977 32.0797 60.1398 31.6367 58.8875 31.1719ZM7.78203 37.275C9.08906 37.6851 10.3906 38.1336 11.6758 38.6039C11.6484 37.718 11.6266 36.8266 11.5992 35.9406C10.3359 36.4055 9.06172 36.8539 7.78203 37.275ZM58.8875 35.9351C58.893 36.832 58.893 37.7289 58.893 38.6258C60.1508 38.15 61.4141 37.6906 62.6883 37.2531C61.4141 36.843 60.1453 36.4 58.8875 35.9351ZM31.5438 58.5156C32.0141 59.757 32.4734 60.9984 32.9164 62.2508C33.3484 60.9984 33.7969 59.757 34.2617 58.5266C33.3539 58.5211 32.4516 58.5211 31.5438 58.5156ZM36.2906 58.5211C36.7555 59.757 37.2094 61.0039 37.6305 62.2617C38.0625 61.0039 38.5273 59.757 39.0031 58.5156C38.0953 58.5211 37.193 58.5211 36.2906 58.5211Z" fill="white"/>
<path d="M34.6828 21.3172C34.9726 19.857 34.382 18.118 35.5414 16.9367C35.7218 18.375 35.6835 19.8351 35.8695 21.268C36.7335 23.6414 38.6695 25.5062 39.4078 27.9289C39.0031 29.8156 37.8164 31.418 37.0343 33.157C38.7406 32.3422 40.3429 31.232 42.1859 30.7289C44.3296 31.3851 46.0304 32.982 48.0374 33.9555C49.6234 34.9344 51.7562 33.8351 53.2492 35.0984C51.3789 35.5797 49.2625 34.9617 47.5781 36.0828C45.757 37.0125 44.1875 38.5383 42.1695 39.0195C40.3156 38.6203 38.757 37.4062 37.0289 36.668C37.6687 38.7844 40.321 40.9336 38.8828 43.2305C37.9476 45.0078 36.6406 46.5883 35.8749 48.4586C35.6453 49.9078 35.7273 51.3844 35.5687 52.8391C34.2234 51.6687 35.1203 49.7437 34.6062 48.2562C33.671 46.0961 31.9921 44.3351 31.1882 42.1148C31.2703 40.1187 32.8179 38.5 33.5124 36.6734C31.8007 37.4172 30.2476 38.6039 28.3992 38.9976C25.4515 38.4234 23.4226 35.2461 20.2507 35.3883C19.3429 35.1805 17.8171 35.793 17.5437 34.4805C18.9164 34.4148 20.3 34.5242 21.6617 34.3109C24.0132 33.3101 26.0367 31.675 28.3554 30.5867C30.0945 31.3961 31.8171 32.2601 33.5343 33.1242C32.7195 31.407 31.5164 29.8101 31.1445 27.918C31.839 25.5008 33.7859 23.6633 34.6828 21.3172ZM35.1914 22.1266C34.3601 23.7891 33.4195 25.3914 32.4625 26.9828C33.414 27.918 34.4039 28.8148 35.4046 29.6898C35.6398 28.7055 36.5093 28.2625 37.3296 27.8141L34.7156 27.7703C35.9679 27.475 37.2312 27.2344 38.4671 26.8789C37.2203 26.7531 35.9734 26.693 34.7265 26.5891C35.8039 26.3976 36.8867 26.2445 37.9695 26.0422C36.9414 25.7305 35.8695 25.643 34.8031 25.5664C35.6234 25.293 36.4382 25.0086 37.2531 24.7078C36.6187 24.6258 35.3499 24.4672 34.7156 24.3851L36.3507 24.057C35.946 23.4226 35.5687 22.7773 35.1914 22.1266ZM33.6437 32.7578C34.1468 33.2391 34.6554 33.7203 35.164 34.1961L36.6515 32.7742C36.1484 32.2711 35.6453 31.768 35.1476 31.2648C34.6445 31.7625 34.1414 32.2601 33.6437 32.7578ZM22.5312 34.8906C23.1382 35.1476 23.7398 35.4047 24.3414 35.6617C25.5226 36.2414 26.6273 36.9633 27.6335 37.8055L27.6117 36.2851C27.9179 36.318 28.5359 36.389 28.8476 36.4219C28.7929 36.1484 28.689 35.6015 28.6343 35.3281C29.0281 35.268 29.8046 35.1422 30.1929 35.082C29.2742 34.0703 28.3335 33.0805 27.382 32.0961C25.7578 33.0148 24.139 33.95 22.5312 34.8906ZM40.3757 35.1148L41.9124 35.3117C41.8578 35.5906 41.7484 36.1375 41.6937 36.4109L42.9242 36.3015C42.9242 36.6734 42.9187 37.4117 42.9132 37.7836C43.7007 37.1711 44.5484 36.6461 45.4453 36.2141C45.4781 36.1266 45.5437 35.9625 45.5765 35.8805C46.3968 35.5469 47.2171 35.2297 48.0374 34.918C46.4132 33.9609 44.7726 33.0258 43.1484 32.0687C42.2187 33.075 41.289 34.0867 40.3757 35.1148ZM32.982 33.4086C32.4789 33.9062 31.9703 34.4039 31.4671 34.9015L32.9437 36.3781C33.4304 35.875 33.9226 35.3664 34.4148 34.8633C33.9335 34.3765 33.4578 33.8953 32.982 33.4086ZM35.9625 34.9234C36.4656 35.432 36.9687 35.9406 37.4773 36.4492C37.9859 35.9351 38.4945 35.4156 39.0031 34.9015C38.4945 34.393 37.9859 33.8789 37.4773 33.3703C36.9742 33.8898 36.4656 34.4094 35.9625 34.9234ZM35.1695 35.5414C34.6609 36.0445 34.1578 36.5476 33.6492 37.0562C34.1468 37.543 34.639 38.0351 35.1367 38.5219C35.6453 38.0242 36.1539 37.532 36.6625 37.0344L35.1695 35.5414ZM34.3601 40.4141C34.6226 40.6273 35.1421 41.0539 35.3992 41.2672C34.6226 41.4203 33.8515 41.5844 33.0804 41.7539C33.9335 41.9617 34.7921 42.1695 35.6453 42.3828C34.475 42.4703 33.3101 42.5797 32.1398 42.7055C33.2554 43.3398 34.5296 43.5148 35.771 43.7281L32.7304 44.0344C33.6874 44.2859 34.6445 44.5266 35.6015 44.7508L33.3867 45.1883C34.1195 45.4015 34.8578 45.6094 35.6015 45.8117C35.3171 45.85 34.7484 45.932 34.464 45.9703C34.6609 46.4078 35.0601 47.2719 35.2625 47.7039C36.1703 46.0305 37.1437 44.3844 38.1007 42.7383C36.9195 41.907 36.0281 40.0476 34.3601 40.4141Z" fill="white"/>
<path d="M26.5016 19.9445C28.5579 21.3172 28.9461 24.0242 30.1493 26.0422C28.8586 24.0625 27.2071 22.2469 26.5016 19.9445ZM40.4196 26.0148C41.5407 23.9586 42.0711 21.432 43.9633 19.9062C43.4219 22.2578 41.661 24.0242 40.4196 26.0148ZM20.4094 26.0531C22.5094 26.8734 24.2758 28.3227 26.1243 29.575C24.2102 28.4703 21.454 28.1914 20.4094 26.0531ZM44.3188 29.6953C46.025 28.5469 47.6055 27.1523 49.4922 26.3156L50.2469 26.7641C48.311 27.825 46.3094 28.7492 44.3188 29.6953ZM43.2415 40.9391C45.1829 42.2133 47.3758 43.2031 48.9071 45.0078C46.5172 44.5703 45.1227 42.2789 43.2415 40.9391ZM21.6508 45.0734C23.018 43.2359 25.2 42.3336 27.0485 41.0867C25.3313 42.4977 23.9094 44.5047 21.6508 45.0734ZM28.8313 50.6187C28.4266 48.3273 30.3461 46.5008 31.1938 44.5156C30.554 46.5992 29.9469 48.7266 28.8313 50.6187ZM39.3149 44.357C40.086 46.3969 42.1586 48.2617 41.6555 50.575C40.5782 48.6227 39.9438 46.4789 39.3149 44.357Z" fill="white"/>
</g>
<defs>
<clipPath id="clip0_410_772">
<rect width="70" height="70" fill="white"/>
</clipPath>
</defs>
</svg>
